<mxfile host="Electron" agent="Mozilla/5.0 (Windows NT 10.0; Win64; x64) AppleWebKit/537.36 (KHTML, like Gecko) draw.io/26.0.16 Chrome/132.0.6834.196 Electron/34.2.0 Safari/537.36" version="26.0.16">
  <diagram name="Page-1" id="VDYSUpoRDSG2aDpyqH4-">
    <mxGraphModel dx="-5267" dy="-1002" grid="0" gridSize="10" guides="1" tooltips="1" connect="1" arrows="1" fold="1" page="0" pageScale="1" pageWidth="850" pageHeight="1100" math="0" shadow="0">
      <root>
        <mxCell id="0" />
        <mxCell id="1" parent="0" />
        <mxCell id="zIbtgdpSCptLn_aJRIT2-5" value="&lt;b style=&quot;text-wrap-mode: wrap;&quot;&gt;&lt;font style=&quot;font-size: 27px;&quot;&gt;UserAccount&lt;/font&gt;&lt;/b&gt;" style="shape=table;startSize=30;container=1;collapsible=1;childLayout=tableLayout;fixedRows=1;rowLines=0;fontStyle=1;align=center;resizeLast=1;html=1;fillColor=#a20025;fontColor=#ffffff;strokeColor=#6F0000;strokeWidth=2;" parent="1" vertex="1">
          <mxGeometry x="9544" y="4124" width="259" height="162" as="geometry" />
        </mxCell>
        <mxCell id="zIbtgdpSCptLn_aJRIT2-6" value="" style="shape=tableRow;horizontal=0;startSize=0;swimlaneHead=0;swimlaneBody=0;fillColor=none;collapsible=0;dropTarget=0;points=[[0,0.5],[1,0.5]];portConstraint=eastwest;top=0;left=0;right=0;bottom=1;strokeWidth=2;" parent="zIbtgdpSCptLn_aJRIT2-5" vertex="1">
          <mxGeometry y="30" width="259" height="37" as="geometry" />
        </mxCell>
        <mxCell id="zIbtgdpSCptLn_aJRIT2-7" value="&lt;font style=&quot;font-size: 20px;&quot;&gt;PK&lt;/font&gt;" style="shape=partialRectangle;connectable=0;fillColor=none;top=0;left=0;bottom=0;right=0;fontStyle=1;overflow=hidden;whiteSpace=wrap;html=1;strokeWidth=2;" parent="zIbtgdpSCptLn_aJRIT2-6" vertex="1">
          <mxGeometry width="41.928641183036234" height="37" as="geometry">
            <mxRectangle width="41.928641183036234" height="37" as="alternateBounds" />
          </mxGeometry>
        </mxCell>
        <mxCell id="zIbtgdpSCptLn_aJRIT2-8" value="&lt;b style=&quot;text-align: center;&quot;&gt;&lt;font style=&quot;font-size: 20px;&quot;&gt;UserID&lt;/font&gt;&lt;/b&gt;" style="shape=partialRectangle;connectable=0;fillColor=none;top=0;left=0;bottom=0;right=0;align=left;spacingLeft=6;fontStyle=5;overflow=hidden;whiteSpace=wrap;html=1;strokeWidth=2;" parent="zIbtgdpSCptLn_aJRIT2-6" vertex="1">
          <mxGeometry x="41.928641183036234" width="217.07135881696377" height="37" as="geometry">
            <mxRectangle width="217.07135881696377" height="37" as="alternateBounds" />
          </mxGeometry>
        </mxCell>
        <mxCell id="zIbtgdpSCptLn_aJRIT2-9" value="" style="shape=tableRow;horizontal=0;startSize=0;swimlaneHead=0;swimlaneBody=0;fillColor=none;collapsible=0;dropTarget=0;points=[[0,0.5],[1,0.5]];portConstraint=eastwest;top=0;left=0;right=0;bottom=0;strokeWidth=2;" parent="zIbtgdpSCptLn_aJRIT2-5" vertex="1">
          <mxGeometry y="67" width="259" height="30" as="geometry" />
        </mxCell>
        <mxCell id="zIbtgdpSCptLn_aJRIT2-10" value="" style="shape=partialRectangle;connectable=0;fillColor=none;top=0;left=0;bottom=0;right=0;editable=1;overflow=hidden;whiteSpace=wrap;html=1;strokeWidth=2;" parent="zIbtgdpSCptLn_aJRIT2-9" vertex="1">
          <mxGeometry width="41.928641183036234" height="30" as="geometry">
            <mxRectangle width="41.928641183036234" height="30" as="alternateBounds" />
          </mxGeometry>
        </mxCell>
        <mxCell id="zIbtgdpSCptLn_aJRIT2-11" value="&lt;b style=&quot;text-align: center;&quot;&gt;&lt;font style=&quot;font-size: 20px;&quot;&gt;UserRole&lt;/font&gt;&lt;/b&gt;" style="shape=partialRectangle;connectable=0;fillColor=none;top=0;left=0;bottom=0;right=0;align=left;spacingLeft=6;overflow=hidden;whiteSpace=wrap;html=1;strokeWidth=2;" parent="zIbtgdpSCptLn_aJRIT2-9" vertex="1">
          <mxGeometry x="41.928641183036234" width="217.07135881696377" height="30" as="geometry">
            <mxRectangle width="217.07135881696377" height="30" as="alternateBounds" />
          </mxGeometry>
        </mxCell>
        <mxCell id="zIbtgdpSCptLn_aJRIT2-12" value="" style="shape=tableRow;horizontal=0;startSize=0;swimlaneHead=0;swimlaneBody=0;fillColor=none;collapsible=0;dropTarget=0;points=[[0,0.5],[1,0.5]];portConstraint=eastwest;top=0;left=0;right=0;bottom=0;strokeWidth=2;" parent="zIbtgdpSCptLn_aJRIT2-5" vertex="1">
          <mxGeometry y="97" width="259" height="30" as="geometry" />
        </mxCell>
        <mxCell id="zIbtgdpSCptLn_aJRIT2-13" value="" style="shape=partialRectangle;connectable=0;fillColor=none;top=0;left=0;bottom=0;right=0;editable=1;overflow=hidden;whiteSpace=wrap;html=1;strokeWidth=2;" parent="zIbtgdpSCptLn_aJRIT2-12" vertex="1">
          <mxGeometry width="41.928641183036234" height="30" as="geometry">
            <mxRectangle width="41.928641183036234" height="30" as="alternateBounds" />
          </mxGeometry>
        </mxCell>
        <mxCell id="zIbtgdpSCptLn_aJRIT2-14" value="&lt;b style=&quot;text-align: center;&quot;&gt;&lt;font style=&quot;font-size: 20px;&quot;&gt;UserName&lt;/font&gt;&lt;/b&gt;" style="shape=partialRectangle;connectable=0;fillColor=none;top=0;left=0;bottom=0;right=0;align=left;spacingLeft=6;overflow=hidden;whiteSpace=wrap;html=1;strokeWidth=2;" parent="zIbtgdpSCptLn_aJRIT2-12" vertex="1">
          <mxGeometry x="41.928641183036234" width="217.07135881696377" height="30" as="geometry">
            <mxRectangle width="217.07135881696377" height="30" as="alternateBounds" />
          </mxGeometry>
        </mxCell>
        <mxCell id="zIbtgdpSCptLn_aJRIT2-18" value="" style="shape=tableRow;horizontal=0;startSize=0;swimlaneHead=0;swimlaneBody=0;fillColor=none;collapsible=0;dropTarget=0;points=[[0,0.5],[1,0.5]];portConstraint=eastwest;top=0;left=0;right=0;bottom=0;strokeWidth=2;" parent="zIbtgdpSCptLn_aJRIT2-5" vertex="1">
          <mxGeometry y="127" width="259" height="30" as="geometry" />
        </mxCell>
        <mxCell id="zIbtgdpSCptLn_aJRIT2-19" value="" style="shape=partialRectangle;connectable=0;fillColor=none;top=0;left=0;bottom=0;right=0;editable=1;overflow=hidden;whiteSpace=wrap;html=1;strokeWidth=2;" parent="zIbtgdpSCptLn_aJRIT2-18" vertex="1">
          <mxGeometry width="41.928641183036234" height="30" as="geometry">
            <mxRectangle width="41.928641183036234" height="30" as="alternateBounds" />
          </mxGeometry>
        </mxCell>
        <mxCell id="zIbtgdpSCptLn_aJRIT2-20" value="&lt;font style=&quot;font-size: 20px;&quot;&gt;&lt;b&gt;Password&lt;/b&gt;&lt;/font&gt;" style="shape=partialRectangle;connectable=0;fillColor=none;top=0;left=0;bottom=0;right=0;align=left;spacingLeft=6;overflow=hidden;whiteSpace=wrap;html=1;strokeWidth=2;" parent="zIbtgdpSCptLn_aJRIT2-18" vertex="1">
          <mxGeometry x="41.928641183036234" width="217.07135881696377" height="30" as="geometry">
            <mxRectangle width="217.07135881696377" height="30" as="alternateBounds" />
          </mxGeometry>
        </mxCell>
        <mxCell id="zIbtgdpSCptLn_aJRIT2-55" value="&lt;b style=&quot;text-wrap-mode: wrap;&quot;&gt;&lt;font style=&quot;font-size: 27px;&quot;&gt;Manager&lt;/font&gt;&lt;/b&gt;" style="shape=table;startSize=30;container=1;collapsible=1;childLayout=tableLayout;fixedRows=1;rowLines=0;fontStyle=1;align=center;resizeLast=1;html=1;fillColor=#a20025;fontColor=#ffffff;strokeColor=#6F0000;strokeWidth=2;" parent="1" vertex="1">
          <mxGeometry x="9506.5" y="3438" width="272" height="192" as="geometry" />
        </mxCell>
        <mxCell id="zIbtgdpSCptLn_aJRIT2-56" value="" style="shape=tableRow;horizontal=0;startSize=0;swimlaneHead=0;swimlaneBody=0;fillColor=none;collapsible=0;dropTarget=0;points=[[0,0.5],[1,0.5]];portConstraint=eastwest;top=0;left=0;right=0;bottom=1;strokeWidth=2;" parent="zIbtgdpSCptLn_aJRIT2-55" vertex="1">
          <mxGeometry y="30" width="272" height="37" as="geometry" />
        </mxCell>
        <mxCell id="zIbtgdpSCptLn_aJRIT2-57" value="&lt;font style=&quot;font-size: 20px;&quot;&gt;PK&lt;/font&gt;" style="shape=partialRectangle;connectable=0;fillColor=none;top=0;left=0;bottom=0;right=0;fontStyle=1;overflow=hidden;whiteSpace=wrap;html=1;strokeWidth=2;" parent="zIbtgdpSCptLn_aJRIT2-56" vertex="1">
          <mxGeometry width="41.928641183036234" height="37" as="geometry">
            <mxRectangle width="41.928641183036234" height="37" as="alternateBounds" />
          </mxGeometry>
        </mxCell>
        <mxCell id="zIbtgdpSCptLn_aJRIT2-58" value="&lt;b style=&quot;text-align: center;&quot;&gt;&lt;font style=&quot;font-size: 20px;&quot;&gt;ManagerID&lt;/font&gt;&lt;/b&gt;" style="shape=partialRectangle;connectable=0;fillColor=none;top=0;left=0;bottom=0;right=0;align=left;spacingLeft=6;fontStyle=5;overflow=hidden;whiteSpace=wrap;html=1;strokeWidth=2;" parent="zIbtgdpSCptLn_aJRIT2-56" vertex="1">
          <mxGeometry x="41.928641183036234" width="230.07135881696377" height="37" as="geometry">
            <mxRectangle width="230.07135881696377" height="37" as="alternateBounds" />
          </mxGeometry>
        </mxCell>
        <mxCell id="zIbtgdpSCptLn_aJRIT2-59" value="" style="shape=tableRow;horizontal=0;startSize=0;swimlaneHead=0;swimlaneBody=0;fillColor=none;collapsible=0;dropTarget=0;points=[[0,0.5],[1,0.5]];portConstraint=eastwest;top=0;left=0;right=0;bottom=0;strokeWidth=2;" parent="zIbtgdpSCptLn_aJRIT2-55" vertex="1">
          <mxGeometry y="67" width="272" height="30" as="geometry" />
        </mxCell>
        <mxCell id="zIbtgdpSCptLn_aJRIT2-60" value="" style="shape=partialRectangle;connectable=0;fillColor=none;top=0;left=0;bottom=0;right=0;editable=1;overflow=hidden;whiteSpace=wrap;html=1;strokeWidth=2;" parent="zIbtgdpSCptLn_aJRIT2-59" vertex="1">
          <mxGeometry width="41.928641183036234" height="30" as="geometry">
            <mxRectangle width="41.928641183036234" height="30" as="alternateBounds" />
          </mxGeometry>
        </mxCell>
        <mxCell id="zIbtgdpSCptLn_aJRIT2-61" value="&lt;b style=&quot;text-align: center;&quot;&gt;&lt;font style=&quot;font-size: 20px;&quot;&gt;Salary&lt;/font&gt;&lt;/b&gt;" style="shape=partialRectangle;connectable=0;fillColor=none;top=0;left=0;bottom=0;right=0;align=left;spacingLeft=6;overflow=hidden;whiteSpace=wrap;html=1;strokeWidth=2;" parent="zIbtgdpSCptLn_aJRIT2-59" vertex="1">
          <mxGeometry x="41.928641183036234" width="230.07135881696377" height="30" as="geometry">
            <mxRectangle width="230.07135881696377" height="30" as="alternateBounds" />
          </mxGeometry>
        </mxCell>
        <mxCell id="zIbtgdpSCptLn_aJRIT2-62" value="" style="shape=tableRow;horizontal=0;startSize=0;swimlaneHead=0;swimlaneBody=0;fillColor=none;collapsible=0;dropTarget=0;points=[[0,0.5],[1,0.5]];portConstraint=eastwest;top=0;left=0;right=0;bottom=0;strokeWidth=2;" parent="zIbtgdpSCptLn_aJRIT2-55" vertex="1">
          <mxGeometry y="97" width="272" height="29" as="geometry" />
        </mxCell>
        <mxCell id="zIbtgdpSCptLn_aJRIT2-63" value="" style="shape=partialRectangle;connectable=0;fillColor=none;top=0;left=0;bottom=0;right=0;editable=1;overflow=hidden;whiteSpace=wrap;html=1;strokeWidth=2;" parent="zIbtgdpSCptLn_aJRIT2-62" vertex="1">
          <mxGeometry width="41.928641183036234" height="29" as="geometry">
            <mxRectangle width="41.928641183036234" height="29" as="alternateBounds" />
          </mxGeometry>
        </mxCell>
        <mxCell id="zIbtgdpSCptLn_aJRIT2-64" value="&lt;b style=&quot;text-align: center;&quot;&gt;&lt;font style=&quot;font-size: 20px;&quot;&gt;HireDate&lt;/font&gt;&lt;/b&gt;" style="shape=partialRectangle;connectable=0;fillColor=none;top=0;left=0;bottom=0;right=0;align=left;spacingLeft=6;overflow=hidden;whiteSpace=wrap;html=1;strokeWidth=2;" parent="zIbtgdpSCptLn_aJRIT2-62" vertex="1">
          <mxGeometry x="41.928641183036234" width="230.07135881696377" height="29" as="geometry">
            <mxRectangle width="230.07135881696377" height="29" as="alternateBounds" />
          </mxGeometry>
        </mxCell>
        <mxCell id="zIbtgdpSCptLn_aJRIT2-65" value="" style="shape=tableRow;horizontal=0;startSize=0;swimlaneHead=0;swimlaneBody=0;fillColor=none;collapsible=0;dropTarget=0;points=[[0,0.5],[1,0.5]];portConstraint=eastwest;top=0;left=0;right=0;bottom=0;strokeWidth=2;" parent="zIbtgdpSCptLn_aJRIT2-55" vertex="1">
          <mxGeometry y="126" width="272" height="29" as="geometry" />
        </mxCell>
        <mxCell id="zIbtgdpSCptLn_aJRIT2-66" value="" style="shape=partialRectangle;connectable=0;fillColor=none;top=0;left=0;bottom=0;right=0;editable=1;overflow=hidden;whiteSpace=wrap;html=1;strokeWidth=2;" parent="zIbtgdpSCptLn_aJRIT2-65" vertex="1">
          <mxGeometry width="41.928641183036234" height="29" as="geometry">
            <mxRectangle width="41.928641183036234" height="29" as="alternateBounds" />
          </mxGeometry>
        </mxCell>
        <mxCell id="zIbtgdpSCptLn_aJRIT2-67" value="&lt;font style=&quot;font-size: 20px;&quot;&gt;&lt;b&gt;ExperienceYears&lt;/b&gt;&lt;/font&gt;" style="shape=partialRectangle;connectable=0;fillColor=none;top=0;left=0;bottom=0;right=0;align=left;spacingLeft=6;overflow=hidden;whiteSpace=wrap;html=1;strokeWidth=2;" parent="zIbtgdpSCptLn_aJRIT2-65" vertex="1">
          <mxGeometry x="41.928641183036234" width="230.07135881696377" height="29" as="geometry">
            <mxRectangle width="230.07135881696377" height="29" as="alternateBounds" />
          </mxGeometry>
        </mxCell>
        <mxCell id="bemgITp-xIqUBpVqshJo-1" value="" style="shape=tableRow;horizontal=0;startSize=0;swimlaneHead=0;swimlaneBody=0;fillColor=none;collapsible=0;dropTarget=0;points=[[0,0.5],[1,0.5]];portConstraint=eastwest;top=0;left=0;right=0;bottom=0;strokeWidth=2;" parent="zIbtgdpSCptLn_aJRIT2-55" vertex="1">
          <mxGeometry y="155" width="272" height="29" as="geometry" />
        </mxCell>
        <mxCell id="bemgITp-xIqUBpVqshJo-2" value="&lt;b&gt;&lt;font style=&quot;font-size: 20px;&quot;&gt;FK&lt;/font&gt;&lt;/b&gt;" style="shape=partialRectangle;connectable=0;fillColor=none;top=0;left=0;bottom=0;right=0;editable=1;overflow=hidden;whiteSpace=wrap;html=1;strokeWidth=2;" parent="bemgITp-xIqUBpVqshJo-1" vertex="1">
          <mxGeometry width="41.928641183036234" height="29" as="geometry">
            <mxRectangle width="41.928641183036234" height="29" as="alternateBounds" />
          </mxGeometry>
        </mxCell>
        <mxCell id="bemgITp-xIqUBpVqshJo-3" value="&lt;font style=&quot;font-size: 20px;&quot;&gt;&lt;b&gt;PersonID&lt;/b&gt;&lt;/font&gt;" style="shape=partialRectangle;connectable=0;fillColor=none;top=0;left=0;bottom=0;right=0;align=left;spacingLeft=6;overflow=hidden;whiteSpace=wrap;html=1;strokeWidth=2;" parent="bemgITp-xIqUBpVqshJo-1" vertex="1">
          <mxGeometry x="41.928641183036234" width="230.07135881696377" height="29" as="geometry">
            <mxRectangle width="230.07135881696377" height="29" as="alternateBounds" />
          </mxGeometry>
        </mxCell>
        <mxCell id="zIbtgdpSCptLn_aJRIT2-21" value="&lt;b style=&quot;text-wrap-mode: wrap;&quot;&gt;&lt;font style=&quot;font-size: 27px;&quot;&gt;Person&lt;/font&gt;&lt;/b&gt;" style="shape=table;startSize=30;container=1;collapsible=1;childLayout=tableLayout;fixedRows=1;rowLines=0;fontStyle=1;align=center;resizeLast=1;html=1;fillColor=#a20025;fontColor=#ffffff;strokeColor=#6F0000;strokeWidth=2;" parent="1" vertex="1">
          <mxGeometry x="9542" y="3756" width="259" height="337" as="geometry" />
        </mxCell>
        <mxCell id="zIbtgdpSCptLn_aJRIT2-22" value="" style="shape=tableRow;horizontal=0;startSize=0;swimlaneHead=0;swimlaneBody=0;fillColor=none;collapsible=0;dropTarget=0;points=[[0,0.5],[1,0.5]];portConstraint=eastwest;top=0;left=0;right=0;bottom=1;strokeWidth=2;" parent="zIbtgdpSCptLn_aJRIT2-21" vertex="1">
          <mxGeometry y="30" width="259" height="37" as="geometry" />
        </mxCell>
        <mxCell id="zIbtgdpSCptLn_aJRIT2-23" value="&lt;font style=&quot;font-size: 20px;&quot;&gt;PK&lt;/font&gt;" style="shape=partialRectangle;connectable=0;fillColor=none;top=0;left=0;bottom=0;right=0;fontStyle=1;overflow=hidden;whiteSpace=wrap;html=1;strokeWidth=2;" parent="zIbtgdpSCptLn_aJRIT2-22" vertex="1">
          <mxGeometry width="41.928641183036234" height="37" as="geometry">
            <mxRectangle width="41.928641183036234" height="37" as="alternateBounds" />
          </mxGeometry>
        </mxCell>
        <mxCell id="zIbtgdpSCptLn_aJRIT2-24" value="&lt;b style=&quot;text-align: center;&quot;&gt;&lt;font style=&quot;font-size: 20px;&quot;&gt;PersonID&lt;/font&gt;&lt;/b&gt;" style="shape=partialRectangle;connectable=0;fillColor=none;top=0;left=0;bottom=0;right=0;align=left;spacingLeft=6;fontStyle=5;overflow=hidden;whiteSpace=wrap;html=1;strokeWidth=2;" parent="zIbtgdpSCptLn_aJRIT2-22" vertex="1">
          <mxGeometry x="41.928641183036234" width="217.07135881696377" height="37" as="geometry">
            <mxRectangle width="217.07135881696377" height="37" as="alternateBounds" />
          </mxGeometry>
        </mxCell>
        <mxCell id="zIbtgdpSCptLn_aJRIT2-25" value="" style="shape=tableRow;horizontal=0;startSize=0;swimlaneHead=0;swimlaneBody=0;fillColor=none;collapsible=0;dropTarget=0;points=[[0,0.5],[1,0.5]];portConstraint=eastwest;top=0;left=0;right=0;bottom=0;strokeWidth=2;" parent="zIbtgdpSCptLn_aJRIT2-21" vertex="1">
          <mxGeometry y="67" width="259" height="30" as="geometry" />
        </mxCell>
        <mxCell id="zIbtgdpSCptLn_aJRIT2-26" value="" style="shape=partialRectangle;connectable=0;fillColor=none;top=0;left=0;bottom=0;right=0;editable=1;overflow=hidden;whiteSpace=wrap;html=1;strokeWidth=2;" parent="zIbtgdpSCptLn_aJRIT2-25" vertex="1">
          <mxGeometry width="41.928641183036234" height="30" as="geometry">
            <mxRectangle width="41.928641183036234" height="30" as="alternateBounds" />
          </mxGeometry>
        </mxCell>
        <mxCell id="zIbtgdpSCptLn_aJRIT2-27" value="&lt;b style=&quot;text-align: center;&quot;&gt;&lt;font style=&quot;font-size: 20px;&quot;&gt;FName&lt;/font&gt;&lt;/b&gt;" style="shape=partialRectangle;connectable=0;fillColor=none;top=0;left=0;bottom=0;right=0;align=left;spacingLeft=6;overflow=hidden;whiteSpace=wrap;html=1;strokeWidth=2;" parent="zIbtgdpSCptLn_aJRIT2-25" vertex="1">
          <mxGeometry x="41.928641183036234" width="217.07135881696377" height="30" as="geometry">
            <mxRectangle width="217.07135881696377" height="30" as="alternateBounds" />
          </mxGeometry>
        </mxCell>
        <mxCell id="zIbtgdpSCptLn_aJRIT2-34" value="" style="shape=tableRow;horizontal=0;startSize=0;swimlaneHead=0;swimlaneBody=0;fillColor=none;collapsible=0;dropTarget=0;points=[[0,0.5],[1,0.5]];portConstraint=eastwest;top=0;left=0;right=0;bottom=0;strokeWidth=2;" parent="zIbtgdpSCptLn_aJRIT2-21" vertex="1">
          <mxGeometry y="97" width="259" height="30" as="geometry" />
        </mxCell>
        <mxCell id="zIbtgdpSCptLn_aJRIT2-35" value="" style="shape=partialRectangle;connectable=0;fillColor=none;top=0;left=0;bottom=0;right=0;editable=1;overflow=hidden;whiteSpace=wrap;html=1;strokeWidth=2;" parent="zIbtgdpSCptLn_aJRIT2-34" vertex="1">
          <mxGeometry width="41.928641183036234" height="30" as="geometry">
            <mxRectangle width="41.928641183036234" height="30" as="alternateBounds" />
          </mxGeometry>
        </mxCell>
        <mxCell id="zIbtgdpSCptLn_aJRIT2-36" value="&lt;b style=&quot;text-align: center;&quot;&gt;&lt;font style=&quot;font-size: 20px;&quot;&gt;Lname&lt;/font&gt;&lt;/b&gt;" style="shape=partialRectangle;connectable=0;fillColor=none;top=0;left=0;bottom=0;right=0;align=left;spacingLeft=6;overflow=hidden;whiteSpace=wrap;html=1;strokeWidth=2;" parent="zIbtgdpSCptLn_aJRIT2-34" vertex="1">
          <mxGeometry x="41.928641183036234" width="217.07135881696377" height="30" as="geometry">
            <mxRectangle width="217.07135881696377" height="30" as="alternateBounds" />
          </mxGeometry>
        </mxCell>
        <mxCell id="zIbtgdpSCptLn_aJRIT2-28" value="" style="shape=tableRow;horizontal=0;startSize=0;swimlaneHead=0;swimlaneBody=0;fillColor=none;collapsible=0;dropTarget=0;points=[[0,0.5],[1,0.5]];portConstraint=eastwest;top=0;left=0;right=0;bottom=0;strokeWidth=2;" parent="zIbtgdpSCptLn_aJRIT2-21" vertex="1">
          <mxGeometry y="127" width="259" height="30" as="geometry" />
        </mxCell>
        <mxCell id="zIbtgdpSCptLn_aJRIT2-29" value="" style="shape=partialRectangle;connectable=0;fillColor=none;top=0;left=0;bottom=0;right=0;editable=1;overflow=hidden;whiteSpace=wrap;html=1;strokeWidth=2;" parent="zIbtgdpSCptLn_aJRIT2-28" vertex="1">
          <mxGeometry width="41.928641183036234" height="30" as="geometry">
            <mxRectangle width="41.928641183036234" height="30" as="alternateBounds" />
          </mxGeometry>
        </mxCell>
        <mxCell id="zIbtgdpSCptLn_aJRIT2-30" value="&lt;b style=&quot;text-align: center;&quot;&gt;&lt;font style=&quot;font-size: 20px;&quot;&gt;PhoneNumber&lt;/font&gt;&lt;/b&gt;" style="shape=partialRectangle;connectable=0;fillColor=none;top=0;left=0;bottom=0;right=0;align=left;spacingLeft=6;overflow=hidden;whiteSpace=wrap;html=1;strokeWidth=2;" parent="zIbtgdpSCptLn_aJRIT2-28" vertex="1">
          <mxGeometry x="41.928641183036234" width="217.07135881696377" height="30" as="geometry">
            <mxRectangle width="217.07135881696377" height="30" as="alternateBounds" />
          </mxGeometry>
        </mxCell>
        <mxCell id="zIbtgdpSCptLn_aJRIT2-40" value="" style="shape=tableRow;horizontal=0;startSize=0;swimlaneHead=0;swimlaneBody=0;fillColor=none;collapsible=0;dropTarget=0;points=[[0,0.5],[1,0.5]];portConstraint=eastwest;top=0;left=0;right=0;bottom=0;strokeWidth=2;" parent="zIbtgdpSCptLn_aJRIT2-21" vertex="1">
          <mxGeometry y="157" width="259" height="30" as="geometry" />
        </mxCell>
        <mxCell id="zIbtgdpSCptLn_aJRIT2-41" value="" style="shape=partialRectangle;connectable=0;fillColor=none;top=0;left=0;bottom=0;right=0;editable=1;overflow=hidden;whiteSpace=wrap;html=1;strokeWidth=2;" parent="zIbtgdpSCptLn_aJRIT2-40" vertex="1">
          <mxGeometry width="41.928641183036234" height="30" as="geometry">
            <mxRectangle width="41.928641183036234" height="30" as="alternateBounds" />
          </mxGeometry>
        </mxCell>
        <mxCell id="zIbtgdpSCptLn_aJRIT2-42" value="&lt;b style=&quot;text-align: center;&quot;&gt;&lt;font style=&quot;font-size: 20px;&quot;&gt;Gender&lt;/font&gt;&lt;/b&gt;" style="shape=partialRectangle;connectable=0;fillColor=none;top=0;left=0;bottom=0;right=0;align=left;spacingLeft=6;overflow=hidden;whiteSpace=wrap;html=1;strokeWidth=2;" parent="zIbtgdpSCptLn_aJRIT2-40" vertex="1">
          <mxGeometry x="41.928641183036234" width="217.07135881696377" height="30" as="geometry">
            <mxRectangle width="217.07135881696377" height="30" as="alternateBounds" />
          </mxGeometry>
        </mxCell>
        <mxCell id="zIbtgdpSCptLn_aJRIT2-37" value="" style="shape=tableRow;horizontal=0;startSize=0;swimlaneHead=0;swimlaneBody=0;fillColor=none;collapsible=0;dropTarget=0;points=[[0,0.5],[1,0.5]];portConstraint=eastwest;top=0;left=0;right=0;bottom=0;strokeWidth=2;" parent="zIbtgdpSCptLn_aJRIT2-21" vertex="1">
          <mxGeometry y="187" width="259" height="25" as="geometry" />
        </mxCell>
        <mxCell id="zIbtgdpSCptLn_aJRIT2-38" value="" style="shape=partialRectangle;connectable=0;fillColor=none;top=0;left=0;bottom=0;right=0;editable=1;overflow=hidden;whiteSpace=wrap;html=1;strokeWidth=2;" parent="zIbtgdpSCptLn_aJRIT2-37" vertex="1">
          <mxGeometry width="41.928641183036234" height="25" as="geometry">
            <mxRectangle width="41.928641183036234" height="25" as="alternateBounds" />
          </mxGeometry>
        </mxCell>
        <mxCell id="zIbtgdpSCptLn_aJRIT2-39" value="&lt;b style=&quot;text-align: center;&quot;&gt;&lt;font style=&quot;font-size: 20px;&quot;&gt;Email&lt;/font&gt;&lt;/b&gt;" style="shape=partialRectangle;connectable=0;fillColor=none;top=0;left=0;bottom=0;right=0;align=left;spacingLeft=6;overflow=hidden;whiteSpace=wrap;html=1;strokeWidth=2;" parent="zIbtgdpSCptLn_aJRIT2-37" vertex="1">
          <mxGeometry x="41.928641183036234" width="217.07135881696377" height="25" as="geometry">
            <mxRectangle width="217.07135881696377" height="25" as="alternateBounds" />
          </mxGeometry>
        </mxCell>
        <mxCell id="zIbtgdpSCptLn_aJRIT2-46" value="" style="shape=tableRow;horizontal=0;startSize=0;swimlaneHead=0;swimlaneBody=0;fillColor=none;collapsible=0;dropTarget=0;points=[[0,0.5],[1,0.5]];portConstraint=eastwest;top=0;left=0;right=0;bottom=0;strokeWidth=2;" parent="zIbtgdpSCptLn_aJRIT2-21" vertex="1">
          <mxGeometry y="212" width="259" height="30" as="geometry" />
        </mxCell>
        <mxCell id="zIbtgdpSCptLn_aJRIT2-47" value="" style="shape=partialRectangle;connectable=0;fillColor=none;top=0;left=0;bottom=0;right=0;editable=1;overflow=hidden;whiteSpace=wrap;html=1;strokeWidth=2;" parent="zIbtgdpSCptLn_aJRIT2-46" vertex="1">
          <mxGeometry width="41.928641183036234" height="30" as="geometry">
            <mxRectangle width="41.928641183036234" height="30" as="alternateBounds" />
          </mxGeometry>
        </mxCell>
        <mxCell id="zIbtgdpSCptLn_aJRIT2-48" value="&lt;font style=&quot;font-size: 20px;&quot;&gt;&lt;b&gt;Address&lt;/b&gt;&lt;/font&gt;" style="shape=partialRectangle;connectable=0;fillColor=none;top=0;left=0;bottom=0;right=0;align=left;spacingLeft=6;overflow=hidden;whiteSpace=wrap;html=1;strokeWidth=2;" parent="zIbtgdpSCptLn_aJRIT2-46" vertex="1">
          <mxGeometry x="41.928641183036234" width="217.07135881696377" height="30" as="geometry">
            <mxRectangle width="217.07135881696377" height="30" as="alternateBounds" />
          </mxGeometry>
        </mxCell>
        <mxCell id="zIbtgdpSCptLn_aJRIT2-49" value="" style="shape=tableRow;horizontal=0;startSize=0;swimlaneHead=0;swimlaneBody=0;fillColor=none;collapsible=0;dropTarget=0;points=[[0,0.5],[1,0.5]];portConstraint=eastwest;top=0;left=0;right=0;bottom=0;strokeWidth=2;" parent="zIbtgdpSCptLn_aJRIT2-21" vertex="1">
          <mxGeometry y="242" width="259" height="30" as="geometry" />
        </mxCell>
        <mxCell id="zIbtgdpSCptLn_aJRIT2-50" value="" style="shape=partialRectangle;connectable=0;fillColor=none;top=0;left=0;bottom=0;right=0;editable=1;overflow=hidden;whiteSpace=wrap;html=1;strokeWidth=2;" parent="zIbtgdpSCptLn_aJRIT2-49" vertex="1">
          <mxGeometry width="41.928641183036234" height="30" as="geometry">
            <mxRectangle width="41.928641183036234" height="30" as="alternateBounds" />
          </mxGeometry>
        </mxCell>
        <mxCell id="zIbtgdpSCptLn_aJRIT2-51" value="&lt;b style=&quot;font-size: 20px;&quot;&gt;NationalID&lt;/b&gt;" style="shape=partialRectangle;connectable=0;fillColor=none;top=0;left=0;bottom=0;right=0;align=left;spacingLeft=6;overflow=hidden;whiteSpace=wrap;html=1;strokeWidth=2;" parent="zIbtgdpSCptLn_aJRIT2-49" vertex="1">
          <mxGeometry x="41.928641183036234" width="217.07135881696377" height="30" as="geometry">
            <mxRectangle width="217.07135881696377" height="30" as="alternateBounds" />
          </mxGeometry>
        </mxCell>
        <mxCell id="zIbtgdpSCptLn_aJRIT2-52" value="" style="shape=tableRow;horizontal=0;startSize=0;swimlaneHead=0;swimlaneBody=0;fillColor=none;collapsible=0;dropTarget=0;points=[[0,0.5],[1,0.5]];portConstraint=eastwest;top=0;left=0;right=0;bottom=0;strokeWidth=2;" parent="zIbtgdpSCptLn_aJRIT2-21" vertex="1">
          <mxGeometry y="272" width="259" height="30" as="geometry" />
        </mxCell>
        <mxCell id="zIbtgdpSCptLn_aJRIT2-53" value="" style="shape=partialRectangle;connectable=0;fillColor=none;top=0;left=0;bottom=0;right=0;editable=1;overflow=hidden;whiteSpace=wrap;html=1;strokeWidth=2;" parent="zIbtgdpSCptLn_aJRIT2-52" vertex="1">
          <mxGeometry width="41.928641183036234" height="30" as="geometry">
            <mxRectangle width="41.928641183036234" height="30" as="alternateBounds" />
          </mxGeometry>
        </mxCell>
        <mxCell id="zIbtgdpSCptLn_aJRIT2-54" value="&lt;font style=&quot;font-size: 20px;&quot;&gt;&lt;b&gt;DateOfBirth&lt;/b&gt;&lt;/font&gt;" style="shape=partialRectangle;connectable=0;fillColor=none;top=0;left=0;bottom=0;right=0;align=left;spacingLeft=6;overflow=hidden;whiteSpace=wrap;html=1;strokeWidth=2;" parent="zIbtgdpSCptLn_aJRIT2-52" vertex="1">
          <mxGeometry x="41.928641183036234" width="217.07135881696377" height="30" as="geometry">
            <mxRectangle width="217.07135881696377" height="30" as="alternateBounds" />
          </mxGeometry>
        </mxCell>
        <mxCell id="zIbtgdpSCptLn_aJRIT2-31" value="" style="shape=tableRow;horizontal=0;startSize=0;swimlaneHead=0;swimlaneBody=0;fillColor=none;collapsible=0;dropTarget=0;points=[[0,0.5],[1,0.5]];portConstraint=eastwest;top=0;left=0;right=0;bottom=0;strokeWidth=2;" parent="zIbtgdpSCptLn_aJRIT2-21" vertex="1">
          <mxGeometry y="302" width="259" height="30" as="geometry" />
        </mxCell>
        <mxCell id="zIbtgdpSCptLn_aJRIT2-32" value="&lt;b style=&quot;forced-color-adjust: none; color: rgb(0, 0, 0); font-family: Helvetica; font-size: 12px; font-style: normal; font-variant-ligatures: normal; font-variant-caps: normal; letter-spacing: normal; orphans: 2; text-align: center; text-indent: 0px; text-transform: none; widows: 2; word-spacing: 0px; -webkit-text-stroke-width: 0px; white-space: normal; background-color: rgb(255, 255, 255); text-decoration-thickness: initial; text-decoration-style: initial; text-decoration-color: initial;&quot;&gt;&lt;font style=&quot;forced-color-adjust: none; font-size: 20px;&quot;&gt;FK&lt;/font&gt;&lt;/b&gt;&lt;div&gt;&lt;br/&gt;&lt;/div&gt;" style="shape=partialRectangle;connectable=0;fillColor=none;top=0;left=0;bottom=0;right=0;editable=1;overflow=hidden;whiteSpace=wrap;html=1;strokeWidth=2;" parent="zIbtgdpSCptLn_aJRIT2-31" vertex="1">
          <mxGeometry width="41.928641183036234" height="30" as="geometry">
            <mxRectangle width="41.928641183036234" height="30" as="alternateBounds" />
          </mxGeometry>
        </mxCell>
        <mxCell id="zIbtgdpSCptLn_aJRIT2-33" value="&lt;font style=&quot;font-size: 20px;&quot;&gt;&lt;b&gt;UserID&lt;/b&gt;&lt;/font&gt;" style="shape=partialRectangle;connectable=0;fillColor=none;top=0;left=0;bottom=0;right=0;align=left;spacingLeft=6;overflow=hidden;whiteSpace=wrap;html=1;strokeWidth=2;" parent="zIbtgdpSCptLn_aJRIT2-31" vertex="1">
          <mxGeometry x="41.928641183036234" width="217.07135881696377" height="30" as="geometry">
            <mxRectangle width="217.07135881696377" height="30" as="alternateBounds" />
          </mxGeometry>
        </mxCell>
        <mxCell id="bemgITp-xIqUBpVqshJo-4" value="&lt;b style=&quot;text-wrap-mode: wrap;&quot;&gt;&lt;font style=&quot;font-size: 27px;&quot;&gt;Instructor&lt;/font&gt;&lt;/b&gt;" style="shape=table;startSize=30;container=1;collapsible=1;childLayout=tableLayout;fixedRows=1;rowLines=0;fontStyle=1;align=center;resizeLast=1;html=1;fillColor=#a20025;fontColor=#ffffff;strokeColor=#6F0000;strokeWidth=2;" parent="1" vertex="1">
          <mxGeometry x="8417" y="3340" width="259" height="259" as="geometry" />
        </mxCell>
        <mxCell id="bemgITp-xIqUBpVqshJo-5" value="" style="shape=tableRow;horizontal=0;startSize=0;swimlaneHead=0;swimlaneBody=0;fillColor=none;collapsible=0;dropTarget=0;points=[[0,0.5],[1,0.5]];portConstraint=eastwest;top=0;left=0;right=0;bottom=1;strokeWidth=2;" parent="bemgITp-xIqUBpVqshJo-4" vertex="1">
          <mxGeometry y="30" width="259" height="37" as="geometry" />
        </mxCell>
        <mxCell id="bemgITp-xIqUBpVqshJo-6" value="&lt;font style=&quot;font-size: 20px;&quot;&gt;PK&lt;/font&gt;" style="shape=partialRectangle;connectable=0;fillColor=none;top=0;left=0;bottom=0;right=0;fontStyle=1;overflow=hidden;whiteSpace=wrap;html=1;strokeWidth=2;" parent="bemgITp-xIqUBpVqshJo-5" vertex="1">
          <mxGeometry width="41.928641183036234" height="37" as="geometry">
            <mxRectangle width="41.928641183036234" height="37" as="alternateBounds" />
          </mxGeometry>
        </mxCell>
        <mxCell id="bemgITp-xIqUBpVqshJo-7" value="&lt;b style=&quot;text-align: center;&quot;&gt;&lt;font style=&quot;font-size: 20px;&quot;&gt;InstructorID&lt;/font&gt;&lt;/b&gt;" style="shape=partialRectangle;connectable=0;fillColor=none;top=0;left=0;bottom=0;right=0;align=left;spacingLeft=6;fontStyle=5;overflow=hidden;whiteSpace=wrap;html=1;strokeWidth=2;" parent="bemgITp-xIqUBpVqshJo-5" vertex="1">
          <mxGeometry x="41.928641183036234" width="217.07135881696377" height="37" as="geometry">
            <mxRectangle width="217.07135881696377" height="37" as="alternateBounds" />
          </mxGeometry>
        </mxCell>
        <mxCell id="bemgITp-xIqUBpVqshJo-8" value="" style="shape=tableRow;horizontal=0;startSize=0;swimlaneHead=0;swimlaneBody=0;fillColor=none;collapsible=0;dropTarget=0;points=[[0,0.5],[1,0.5]];portConstraint=eastwest;top=0;left=0;right=0;bottom=0;strokeWidth=2;" parent="bemgITp-xIqUBpVqshJo-4" vertex="1">
          <mxGeometry y="67" width="259" height="30" as="geometry" />
        </mxCell>
        <mxCell id="bemgITp-xIqUBpVqshJo-9" value="" style="shape=partialRectangle;connectable=0;fillColor=none;top=0;left=0;bottom=0;right=0;editable=1;overflow=hidden;whiteSpace=wrap;html=1;strokeWidth=2;" parent="bemgITp-xIqUBpVqshJo-8" vertex="1">
          <mxGeometry width="41.928641183036234" height="30" as="geometry">
            <mxRectangle width="41.928641183036234" height="30" as="alternateBounds" />
          </mxGeometry>
        </mxCell>
        <mxCell id="bemgITp-xIqUBpVqshJo-10" value="&lt;b style=&quot;text-align: center;&quot;&gt;&lt;font style=&quot;font-size: 20px;&quot;&gt;Salary&lt;/font&gt;&lt;/b&gt;" style="shape=partialRectangle;connectable=0;fillColor=none;top=0;left=0;bottom=0;right=0;align=left;spacingLeft=6;overflow=hidden;whiteSpace=wrap;html=1;strokeWidth=2;" parent="bemgITp-xIqUBpVqshJo-8" vertex="1">
          <mxGeometry x="41.928641183036234" width="217.07135881696377" height="30" as="geometry">
            <mxRectangle width="217.07135881696377" height="30" as="alternateBounds" />
          </mxGeometry>
        </mxCell>
        <mxCell id="bemgITp-xIqUBpVqshJo-11" value="" style="shape=tableRow;horizontal=0;startSize=0;swimlaneHead=0;swimlaneBody=0;fillColor=none;collapsible=0;dropTarget=0;points=[[0,0.5],[1,0.5]];portConstraint=eastwest;top=0;left=0;right=0;bottom=0;strokeWidth=2;" parent="bemgITp-xIqUBpVqshJo-4" vertex="1">
          <mxGeometry y="97" width="259" height="30" as="geometry" />
        </mxCell>
        <mxCell id="bemgITp-xIqUBpVqshJo-12" value="" style="shape=partialRectangle;connectable=0;fillColor=none;top=0;left=0;bottom=0;right=0;editable=1;overflow=hidden;whiteSpace=wrap;html=1;strokeWidth=2;" parent="bemgITp-xIqUBpVqshJo-11" vertex="1">
          <mxGeometry width="41.928641183036234" height="30" as="geometry">
            <mxRectangle width="41.928641183036234" height="30" as="alternateBounds" />
          </mxGeometry>
        </mxCell>
        <mxCell id="bemgITp-xIqUBpVqshJo-13" value="&lt;b style=&quot;text-align: center;&quot;&gt;&lt;font style=&quot;font-size: 20px;&quot;&gt;HireDate&lt;/font&gt;&lt;/b&gt;" style="shape=partialRectangle;connectable=0;fillColor=none;top=0;left=0;bottom=0;right=0;align=left;spacingLeft=6;overflow=hidden;whiteSpace=wrap;html=1;strokeWidth=2;" parent="bemgITp-xIqUBpVqshJo-11" vertex="1">
          <mxGeometry x="41.928641183036234" width="217.07135881696377" height="30" as="geometry">
            <mxRectangle width="217.07135881696377" height="30" as="alternateBounds" />
          </mxGeometry>
        </mxCell>
        <mxCell id="bemgITp-xIqUBpVqshJo-14" value="" style="shape=tableRow;horizontal=0;startSize=0;swimlaneHead=0;swimlaneBody=0;fillColor=none;collapsible=0;dropTarget=0;points=[[0,0.5],[1,0.5]];portConstraint=eastwest;top=0;left=0;right=0;bottom=0;strokeWidth=2;" parent="bemgITp-xIqUBpVqshJo-4" vertex="1">
          <mxGeometry y="127" width="259" height="30" as="geometry" />
        </mxCell>
        <mxCell id="bemgITp-xIqUBpVqshJo-15" value="" style="shape=partialRectangle;connectable=0;fillColor=none;top=0;left=0;bottom=0;right=0;editable=1;overflow=hidden;whiteSpace=wrap;html=1;strokeWidth=2;" parent="bemgITp-xIqUBpVqshJo-14" vertex="1">
          <mxGeometry width="41.928641183036234" height="30" as="geometry">
            <mxRectangle width="41.928641183036234" height="30" as="alternateBounds" />
          </mxGeometry>
        </mxCell>
        <mxCell id="bemgITp-xIqUBpVqshJo-16" value="&lt;b style=&quot;text-align: center;&quot;&gt;&lt;font style=&quot;font-size: 20px;&quot;&gt;ExperienceYears&lt;/font&gt;&lt;/b&gt;" style="shape=partialRectangle;connectable=0;fillColor=none;top=0;left=0;bottom=0;right=0;align=left;spacingLeft=6;overflow=hidden;whiteSpace=wrap;html=1;strokeWidth=2;" parent="bemgITp-xIqUBpVqshJo-14" vertex="1">
          <mxGeometry x="41.928641183036234" width="217.07135881696377" height="30" as="geometry">
            <mxRectangle width="217.07135881696377" height="30" as="alternateBounds" />
          </mxGeometry>
        </mxCell>
        <mxCell id="bemgITp-xIqUBpVqshJo-17" value="" style="shape=tableRow;horizontal=0;startSize=0;swimlaneHead=0;swimlaneBody=0;fillColor=none;collapsible=0;dropTarget=0;points=[[0,0.5],[1,0.5]];portConstraint=eastwest;top=0;left=0;right=0;bottom=0;strokeWidth=2;" parent="bemgITp-xIqUBpVqshJo-4" vertex="1">
          <mxGeometry y="157" width="259" height="30" as="geometry" />
        </mxCell>
        <mxCell id="bemgITp-xIqUBpVqshJo-18" value="&lt;b&gt;&lt;font style=&quot;font-size: 20px;&quot;&gt;FK&lt;/font&gt;&lt;/b&gt;" style="shape=partialRectangle;connectable=0;fillColor=none;top=0;left=0;bottom=0;right=0;editable=1;overflow=hidden;whiteSpace=wrap;html=1;strokeWidth=2;" parent="bemgITp-xIqUBpVqshJo-17" vertex="1">
          <mxGeometry width="41.928641183036234" height="30" as="geometry">
            <mxRectangle width="41.928641183036234" height="30" as="alternateBounds" />
          </mxGeometry>
        </mxCell>
        <mxCell id="bemgITp-xIqUBpVqshJo-19" value="&lt;b style=&quot;text-align: center;&quot;&gt;&lt;font style=&quot;font-size: 20px;&quot;&gt;DepartmentID&lt;/font&gt;&lt;/b&gt;" style="shape=partialRectangle;connectable=0;fillColor=none;top=0;left=0;bottom=0;right=0;align=left;spacingLeft=6;overflow=hidden;whiteSpace=wrap;html=1;strokeWidth=2;" parent="bemgITp-xIqUBpVqshJo-17" vertex="1">
          <mxGeometry x="41.928641183036234" width="217.07135881696377" height="30" as="geometry">
            <mxRectangle width="217.07135881696377" height="30" as="alternateBounds" />
          </mxGeometry>
        </mxCell>
        <mxCell id="bemgITp-xIqUBpVqshJo-20" value="" style="shape=tableRow;horizontal=0;startSize=0;swimlaneHead=0;swimlaneBody=0;fillColor=none;collapsible=0;dropTarget=0;points=[[0,0.5],[1,0.5]];portConstraint=eastwest;top=0;left=0;right=0;bottom=0;strokeWidth=2;" parent="bemgITp-xIqUBpVqshJo-4" vertex="1">
          <mxGeometry y="187" width="259" height="36" as="geometry" />
        </mxCell>
        <mxCell id="bemgITp-xIqUBpVqshJo-21" value="&lt;b&gt;&lt;font style=&quot;font-size: 20px;&quot;&gt;FK&lt;/font&gt;&lt;/b&gt;" style="shape=partialRectangle;connectable=0;fillColor=none;top=0;left=0;bottom=0;right=0;editable=1;overflow=hidden;whiteSpace=wrap;html=1;strokeWidth=2;" parent="bemgITp-xIqUBpVqshJo-20" vertex="1">
          <mxGeometry width="41.928641183036234" height="36" as="geometry">
            <mxRectangle width="41.928641183036234" height="36" as="alternateBounds" />
          </mxGeometry>
        </mxCell>
        <mxCell id="bemgITp-xIqUBpVqshJo-22" value="&lt;b style=&quot;text-align: center;&quot;&gt;&lt;font style=&quot;font-size: 20px;&quot;&gt;BIT_ID&lt;/font&gt;&lt;/b&gt;" style="shape=partialRectangle;connectable=0;fillColor=none;top=0;left=0;bottom=0;right=0;align=left;spacingLeft=6;overflow=hidden;whiteSpace=wrap;html=1;strokeWidth=2;" parent="bemgITp-xIqUBpVqshJo-20" vertex="1">
          <mxGeometry x="41.928641183036234" width="217.07135881696377" height="36" as="geometry">
            <mxRectangle width="217.07135881696377" height="36" as="alternateBounds" />
          </mxGeometry>
        </mxCell>
        <mxCell id="bemgITp-xIqUBpVqshJo-26" value="" style="shape=tableRow;horizontal=0;startSize=0;swimlaneHead=0;swimlaneBody=0;fillColor=none;collapsible=0;dropTarget=0;points=[[0,0.5],[1,0.5]];portConstraint=eastwest;top=0;left=0;right=0;bottom=0;strokeWidth=2;" parent="bemgITp-xIqUBpVqshJo-4" vertex="1">
          <mxGeometry y="223" width="259" height="36" as="geometry" />
        </mxCell>
        <mxCell id="bemgITp-xIqUBpVqshJo-27" value="&lt;b&gt;&lt;font style=&quot;font-size: 20px;&quot;&gt;FK&lt;/font&gt;&lt;/b&gt;" style="shape=partialRectangle;connectable=0;fillColor=none;top=0;left=0;bottom=0;right=0;editable=1;overflow=hidden;whiteSpace=wrap;html=1;strokeWidth=2;" parent="bemgITp-xIqUBpVqshJo-26" vertex="1">
          <mxGeometry width="41.928641183036234" height="36" as="geometry">
            <mxRectangle width="41.928641183036234" height="36" as="alternateBounds" />
          </mxGeometry>
        </mxCell>
        <mxCell id="bemgITp-xIqUBpVqshJo-28" value="&lt;b style=&quot;font-size: 20px;&quot;&gt;PersonID&lt;/b&gt;" style="shape=partialRectangle;connectable=0;fillColor=none;top=0;left=0;bottom=0;right=0;align=left;spacingLeft=6;overflow=hidden;whiteSpace=wrap;html=1;strokeWidth=2;" parent="bemgITp-xIqUBpVqshJo-26" vertex="1">
          <mxGeometry x="41.928641183036234" width="217.07135881696377" height="36" as="geometry">
            <mxRectangle width="217.07135881696377" height="36" as="alternateBounds" />
          </mxGeometry>
        </mxCell>
        <mxCell id="bemgITp-xIqUBpVqshJo-57" value="&lt;b style=&quot;text-wrap-mode: wrap;&quot;&gt;&lt;font style=&quot;font-size: 27px;&quot;&gt;Student&lt;/font&gt;&lt;/b&gt;" style="shape=table;startSize=42;container=1;collapsible=1;childLayout=tableLayout;fixedRows=1;rowLines=0;fontStyle=1;align=center;resizeLast=1;html=1;fillColor=#a20025;fontColor=#ffffff;strokeColor=#6F0000;strokeWidth=2;" parent="1" vertex="1">
          <mxGeometry x="8902" y="4032" width="262" height="379" as="geometry" />
        </mxCell>
        <mxCell id="bemgITp-xIqUBpVqshJo-58" value="" style="shape=tableRow;horizontal=0;startSize=0;swimlaneHead=0;swimlaneBody=0;fillColor=none;collapsible=0;dropTarget=0;points=[[0,0.5],[1,0.5]];portConstraint=eastwest;top=0;left=0;right=0;bottom=1;strokeWidth=2;" parent="bemgITp-xIqUBpVqshJo-57" vertex="1">
          <mxGeometry y="42" width="262" height="37" as="geometry" />
        </mxCell>
        <mxCell id="bemgITp-xIqUBpVqshJo-59" value="&lt;font style=&quot;font-size: 20px;&quot;&gt;PK&lt;/font&gt;" style="shape=partialRectangle;connectable=0;fillColor=none;top=0;left=0;bottom=0;right=0;fontStyle=1;overflow=hidden;whiteSpace=wrap;html=1;strokeWidth=2;" parent="bemgITp-xIqUBpVqshJo-58" vertex="1">
          <mxGeometry width="41.928641183036234" height="37" as="geometry">
            <mxRectangle width="41.928641183036234" height="37" as="alternateBounds" />
          </mxGeometry>
        </mxCell>
        <mxCell id="bemgITp-xIqUBpVqshJo-60" value="&lt;b style=&quot;text-align: center;&quot;&gt;&lt;font style=&quot;font-size: 20px;&quot;&gt;StudentID&lt;/font&gt;&lt;/b&gt;" style="shape=partialRectangle;connectable=0;fillColor=none;top=0;left=0;bottom=0;right=0;align=left;spacingLeft=6;fontStyle=5;overflow=hidden;whiteSpace=wrap;html=1;strokeWidth=2;" parent="bemgITp-xIqUBpVqshJo-58" vertex="1">
          <mxGeometry x="41.928641183036234" width="220.07135881696377" height="37" as="geometry">
            <mxRectangle width="220.07135881696377" height="37" as="alternateBounds" />
          </mxGeometry>
        </mxCell>
        <mxCell id="bemgITp-xIqUBpVqshJo-61" value="" style="shape=tableRow;horizontal=0;startSize=0;swimlaneHead=0;swimlaneBody=0;fillColor=none;collapsible=0;dropTarget=0;points=[[0,0.5],[1,0.5]];portConstraint=eastwest;top=0;left=0;right=0;bottom=0;strokeWidth=2;" parent="bemgITp-xIqUBpVqshJo-57" vertex="1">
          <mxGeometry y="79" width="262" height="30" as="geometry" />
        </mxCell>
        <mxCell id="bemgITp-xIqUBpVqshJo-62" value="" style="shape=partialRectangle;connectable=0;fillColor=none;top=0;left=0;bottom=0;right=0;editable=1;overflow=hidden;whiteSpace=wrap;html=1;strokeWidth=2;" parent="bemgITp-xIqUBpVqshJo-61" vertex="1">
          <mxGeometry width="41.928641183036234" height="30" as="geometry">
            <mxRectangle width="41.928641183036234" height="30" as="alternateBounds" />
          </mxGeometry>
        </mxCell>
        <mxCell id="bemgITp-xIqUBpVqshJo-63" value="&lt;b style=&quot;text-align: center;&quot;&gt;&lt;font style=&quot;font-size: 20px;&quot;&gt;MaritalStutus&lt;/font&gt;&lt;/b&gt;" style="shape=partialRectangle;connectable=0;fillColor=none;top=0;left=0;bottom=0;right=0;align=left;spacingLeft=6;overflow=hidden;whiteSpace=wrap;html=1;strokeWidth=2;" parent="bemgITp-xIqUBpVqshJo-61" vertex="1">
          <mxGeometry x="41.928641183036234" width="220.07135881696377" height="30" as="geometry">
            <mxRectangle width="220.07135881696377" height="30" as="alternateBounds" />
          </mxGeometry>
        </mxCell>
        <mxCell id="bemgITp-xIqUBpVqshJo-64" value="" style="shape=tableRow;horizontal=0;startSize=0;swimlaneHead=0;swimlaneBody=0;fillColor=none;collapsible=0;dropTarget=0;points=[[0,0.5],[1,0.5]];portConstraint=eastwest;top=0;left=0;right=0;bottom=0;strokeWidth=2;" parent="bemgITp-xIqUBpVqshJo-57" vertex="1">
          <mxGeometry y="109" width="262" height="30" as="geometry" />
        </mxCell>
        <mxCell id="bemgITp-xIqUBpVqshJo-65" value="" style="shape=partialRectangle;connectable=0;fillColor=none;top=0;left=0;bottom=0;right=0;editable=1;overflow=hidden;whiteSpace=wrap;html=1;strokeWidth=2;" parent="bemgITp-xIqUBpVqshJo-64" vertex="1">
          <mxGeometry width="41.928641183036234" height="30" as="geometry">
            <mxRectangle width="41.928641183036234" height="30" as="alternateBounds" />
          </mxGeometry>
        </mxCell>
        <mxCell id="bemgITp-xIqUBpVqshJo-66" value="&lt;b style=&quot;text-align: center;&quot;&gt;&lt;font style=&quot;font-size: 20px;&quot;&gt;Gpa&lt;/font&gt;&lt;/b&gt;" style="shape=partialRectangle;connectable=0;fillColor=none;top=0;left=0;bottom=0;right=0;align=left;spacingLeft=6;overflow=hidden;whiteSpace=wrap;html=1;strokeWidth=2;" parent="bemgITp-xIqUBpVqshJo-64" vertex="1">
          <mxGeometry x="41.928641183036234" width="220.07135881696377" height="30" as="geometry">
            <mxRectangle width="220.07135881696377" height="30" as="alternateBounds" />
          </mxGeometry>
        </mxCell>
        <mxCell id="bemgITp-xIqUBpVqshJo-67" value="" style="shape=tableRow;horizontal=0;startSize=0;swimlaneHead=0;swimlaneBody=0;fillColor=none;collapsible=0;dropTarget=0;points=[[0,0.5],[1,0.5]];portConstraint=eastwest;top=0;left=0;right=0;bottom=0;strokeWidth=2;" parent="bemgITp-xIqUBpVqshJo-57" vertex="1">
          <mxGeometry y="139" width="262" height="30" as="geometry" />
        </mxCell>
        <mxCell id="bemgITp-xIqUBpVqshJo-68" value="" style="shape=partialRectangle;connectable=0;fillColor=none;top=0;left=0;bottom=0;right=0;editable=1;overflow=hidden;whiteSpace=wrap;html=1;strokeWidth=2;" parent="bemgITp-xIqUBpVqshJo-67" vertex="1">
          <mxGeometry width="41.928641183036234" height="30" as="geometry">
            <mxRectangle width="41.928641183036234" height="30" as="alternateBounds" />
          </mxGeometry>
        </mxCell>
        <mxCell id="bemgITp-xIqUBpVqshJo-69" value="&lt;b style=&quot;text-align: center;&quot;&gt;&lt;font style=&quot;font-size: 20px;&quot;&gt;MilitaryStatus&lt;/font&gt;&lt;/b&gt;" style="shape=partialRectangle;connectable=0;fillColor=none;top=0;left=0;bottom=0;right=0;align=left;spacingLeft=6;overflow=hidden;whiteSpace=wrap;html=1;strokeWidth=2;" parent="bemgITp-xIqUBpVqshJo-67" vertex="1">
          <mxGeometry x="41.928641183036234" width="220.07135881696377" height="30" as="geometry">
            <mxRectangle width="220.07135881696377" height="30" as="alternateBounds" />
          </mxGeometry>
        </mxCell>
        <mxCell id="bemgITp-xIqUBpVqshJo-70" value="" style="shape=tableRow;horizontal=0;startSize=0;swimlaneHead=0;swimlaneBody=0;fillColor=none;collapsible=0;dropTarget=0;points=[[0,0.5],[1,0.5]];portConstraint=eastwest;top=0;left=0;right=0;bottom=0;strokeWidth=2;" parent="bemgITp-xIqUBpVqshJo-57" vertex="1">
          <mxGeometry y="169" width="262" height="30" as="geometry" />
        </mxCell>
        <mxCell id="bemgITp-xIqUBpVqshJo-71" value="" style="shape=partialRectangle;connectable=0;fillColor=none;top=0;left=0;bottom=0;right=0;editable=1;overflow=hidden;whiteSpace=wrap;html=1;strokeWidth=2;" parent="bemgITp-xIqUBpVqshJo-70" vertex="1">
          <mxGeometry width="41.928641183036234" height="30" as="geometry">
            <mxRectangle width="41.928641183036234" height="30" as="alternateBounds" />
          </mxGeometry>
        </mxCell>
        <mxCell id="bemgITp-xIqUBpVqshJo-72" value="&lt;b style=&quot;text-align: center;&quot;&gt;&lt;font style=&quot;font-size: 20px;&quot;&gt;Faculty&lt;/font&gt;&lt;/b&gt;" style="shape=partialRectangle;connectable=0;fillColor=none;top=0;left=0;bottom=0;right=0;align=left;spacingLeft=6;overflow=hidden;whiteSpace=wrap;html=1;strokeWidth=2;" parent="bemgITp-xIqUBpVqshJo-70" vertex="1">
          <mxGeometry x="41.928641183036234" width="220.07135881696377" height="30" as="geometry">
            <mxRectangle width="220.07135881696377" height="30" as="alternateBounds" />
          </mxGeometry>
        </mxCell>
        <mxCell id="bemgITp-xIqUBpVqshJo-88" value="" style="shape=tableRow;horizontal=0;startSize=0;swimlaneHead=0;swimlaneBody=0;fillColor=none;collapsible=0;dropTarget=0;points=[[0,0.5],[1,0.5]];portConstraint=eastwest;top=0;left=0;right=0;bottom=0;strokeWidth=2;" parent="bemgITp-xIqUBpVqshJo-57" vertex="1">
          <mxGeometry y="199" width="262" height="36" as="geometry" />
        </mxCell>
        <mxCell id="bemgITp-xIqUBpVqshJo-89" value="" style="shape=partialRectangle;connectable=0;fillColor=none;top=0;left=0;bottom=0;right=0;editable=1;overflow=hidden;whiteSpace=wrap;html=1;strokeWidth=2;" parent="bemgITp-xIqUBpVqshJo-88" vertex="1">
          <mxGeometry width="41.928641183036234" height="36" as="geometry">
            <mxRectangle width="41.928641183036234" height="36" as="alternateBounds" />
          </mxGeometry>
        </mxCell>
        <mxCell id="bemgITp-xIqUBpVqshJo-90" value="&lt;b style=&quot;text-align: center;&quot;&gt;&lt;font style=&quot;font-size: 20px;&quot;&gt;EnrollmentDate&lt;/font&gt;&lt;/b&gt;" style="shape=partialRectangle;connectable=0;fillColor=none;top=0;left=0;bottom=0;right=0;align=left;spacingLeft=6;overflow=hidden;whiteSpace=wrap;html=1;strokeWidth=2;" parent="bemgITp-xIqUBpVqshJo-88" vertex="1">
          <mxGeometry x="41.928641183036234" width="220.07135881696377" height="36" as="geometry">
            <mxRectangle width="220.07135881696377" height="36" as="alternateBounds" />
          </mxGeometry>
        </mxCell>
        <mxCell id="bemgITp-xIqUBpVqshJo-85" value="" style="shape=tableRow;horizontal=0;startSize=0;swimlaneHead=0;swimlaneBody=0;fillColor=none;collapsible=0;dropTarget=0;points=[[0,0.5],[1,0.5]];portConstraint=eastwest;top=0;left=0;right=0;bottom=0;strokeWidth=2;" parent="bemgITp-xIqUBpVqshJo-57" vertex="1">
          <mxGeometry y="235" width="262" height="36" as="geometry" />
        </mxCell>
        <mxCell id="bemgITp-xIqUBpVqshJo-86" value="" style="shape=partialRectangle;connectable=0;fillColor=none;top=0;left=0;bottom=0;right=0;editable=1;overflow=hidden;whiteSpace=wrap;html=1;strokeWidth=2;" parent="bemgITp-xIqUBpVqshJo-85" vertex="1">
          <mxGeometry width="41.928641183036234" height="36" as="geometry">
            <mxRectangle width="41.928641183036234" height="36" as="alternateBounds" />
          </mxGeometry>
        </mxCell>
        <mxCell id="bemgITp-xIqUBpVqshJo-87" value="&lt;b style=&quot;text-align: center;&quot;&gt;&lt;font style=&quot;font-size: 20px;&quot;&gt;GraduationYear&lt;/font&gt;&lt;/b&gt;" style="shape=partialRectangle;connectable=0;fillColor=none;top=0;left=0;bottom=0;right=0;align=left;spacingLeft=6;overflow=hidden;whiteSpace=wrap;html=1;strokeWidth=2;" parent="bemgITp-xIqUBpVqshJo-85" vertex="1">
          <mxGeometry x="41.928641183036234" width="220.07135881696377" height="36" as="geometry">
            <mxRectangle width="220.07135881696377" height="36" as="alternateBounds" />
          </mxGeometry>
        </mxCell>
        <mxCell id="bemgITp-xIqUBpVqshJo-82" value="" style="shape=tableRow;horizontal=0;startSize=0;swimlaneHead=0;swimlaneBody=0;fillColor=none;collapsible=0;dropTarget=0;points=[[0,0.5],[1,0.5]];portConstraint=eastwest;top=0;left=0;right=0;bottom=0;strokeWidth=2;" parent="bemgITp-xIqUBpVqshJo-57" vertex="1">
          <mxGeometry y="271" width="262" height="36" as="geometry" />
        </mxCell>
        <mxCell id="bemgITp-xIqUBpVqshJo-83" value="" style="shape=partialRectangle;connectable=0;fillColor=none;top=0;left=0;bottom=0;right=0;editable=1;overflow=hidden;whiteSpace=wrap;html=1;strokeWidth=2;" parent="bemgITp-xIqUBpVqshJo-82" vertex="1">
          <mxGeometry width="41.928641183036234" height="36" as="geometry">
            <mxRectangle width="41.928641183036234" height="36" as="alternateBounds" />
          </mxGeometry>
        </mxCell>
        <mxCell id="bemgITp-xIqUBpVqshJo-84" value="&lt;b style=&quot;text-align: center;&quot;&gt;&lt;font style=&quot;font-size: 20px;&quot;&gt;NationalID&lt;/font&gt;&lt;/b&gt;" style="shape=partialRectangle;connectable=0;fillColor=none;top=0;left=0;bottom=0;right=0;align=left;spacingLeft=6;overflow=hidden;whiteSpace=wrap;html=1;strokeWidth=2;" parent="bemgITp-xIqUBpVqshJo-82" vertex="1">
          <mxGeometry x="41.928641183036234" width="220.07135881696377" height="36" as="geometry">
            <mxRectangle width="220.07135881696377" height="36" as="alternateBounds" />
          </mxGeometry>
        </mxCell>
        <mxCell id="bemgITp-xIqUBpVqshJo-79" value="" style="shape=tableRow;horizontal=0;startSize=0;swimlaneHead=0;swimlaneBody=0;fillColor=none;collapsible=0;dropTarget=0;points=[[0,0.5],[1,0.5]];portConstraint=eastwest;top=0;left=0;right=0;bottom=0;strokeWidth=2;" parent="bemgITp-xIqUBpVqshJo-57" vertex="1">
          <mxGeometry y="307" width="262" height="36" as="geometry" />
        </mxCell>
        <mxCell id="bemgITp-xIqUBpVqshJo-80" value="&lt;b&gt;&lt;font style=&quot;font-size: 20px;&quot;&gt;FK&lt;/font&gt;&lt;/b&gt;" style="shape=partialRectangle;connectable=0;fillColor=none;top=0;left=0;bottom=0;right=0;editable=1;overflow=hidden;whiteSpace=wrap;html=1;strokeWidth=2;" parent="bemgITp-xIqUBpVqshJo-79" vertex="1">
          <mxGeometry width="41.928641183036234" height="36" as="geometry">
            <mxRectangle width="41.928641183036234" height="36" as="alternateBounds" />
          </mxGeometry>
        </mxCell>
        <mxCell id="bemgITp-xIqUBpVqshJo-81" value="&lt;b style=&quot;text-align: center;&quot;&gt;&lt;font style=&quot;font-size: 20px;&quot;&gt;BIT_ID&lt;/font&gt;&lt;/b&gt;" style="shape=partialRectangle;connectable=0;fillColor=none;top=0;left=0;bottom=0;right=0;align=left;spacingLeft=6;overflow=hidden;whiteSpace=wrap;html=1;strokeWidth=2;" parent="bemgITp-xIqUBpVqshJo-79" vertex="1">
          <mxGeometry x="41.928641183036234" width="220.07135881696377" height="36" as="geometry">
            <mxRectangle width="220.07135881696377" height="36" as="alternateBounds" />
          </mxGeometry>
        </mxCell>
        <mxCell id="bemgITp-xIqUBpVqshJo-73" value="" style="shape=tableRow;horizontal=0;startSize=0;swimlaneHead=0;swimlaneBody=0;fillColor=none;collapsible=0;dropTarget=0;points=[[0,0.5],[1,0.5]];portConstraint=eastwest;top=0;left=0;right=0;bottom=0;strokeWidth=2;" parent="bemgITp-xIqUBpVqshJo-57" vertex="1">
          <mxGeometry y="343" width="262" height="36" as="geometry" />
        </mxCell>
        <mxCell id="bemgITp-xIqUBpVqshJo-74" value="&lt;font style=&quot;font-size: 20px;&quot;&gt;&lt;b&gt;FK&lt;/b&gt;&lt;/font&gt;" style="shape=partialRectangle;connectable=0;fillColor=none;top=0;left=0;bottom=0;right=0;editable=1;overflow=hidden;whiteSpace=wrap;html=1;strokeWidth=2;" parent="bemgITp-xIqUBpVqshJo-73" vertex="1">
          <mxGeometry width="41.928641183036234" height="36" as="geometry">
            <mxRectangle width="41.928641183036234" height="36" as="alternateBounds" />
          </mxGeometry>
        </mxCell>
        <mxCell id="bemgITp-xIqUBpVqshJo-75" value="&lt;font style=&quot;font-size: 20px;&quot;&gt;&lt;b&gt;PersonID&lt;/b&gt;&lt;/font&gt;" style="shape=partialRectangle;connectable=0;fillColor=none;top=0;left=0;bottom=0;right=0;align=left;spacingLeft=6;overflow=hidden;whiteSpace=wrap;html=1;strokeWidth=2;" parent="bemgITp-xIqUBpVqshJo-73" vertex="1">
          <mxGeometry x="41.928641183036234" width="220.07135881696377" height="36" as="geometry">
            <mxRectangle width="220.07135881696377" height="36" as="alternateBounds" />
          </mxGeometry>
        </mxCell>
        <mxCell id="bemgITp-xIqUBpVqshJo-102" value="&lt;b style=&quot;text-wrap-mode: wrap;&quot;&gt;&lt;font style=&quot;font-size: 27px;&quot;&gt;Course&lt;/font&gt;&lt;/b&gt;" style="shape=table;startSize=30;container=1;collapsible=1;childLayout=tableLayout;fixedRows=1;rowLines=0;fontStyle=1;align=center;resizeLast=1;html=1;fillColor=#a20025;fontColor=#ffffff;strokeColor=#6F0000;strokeWidth=2;" parent="1" vertex="1">
          <mxGeometry x="8413" y="4604" width="259" height="335" as="geometry" />
        </mxCell>
        <mxCell id="bemgITp-xIqUBpVqshJo-103" value="" style="shape=tableRow;horizontal=0;startSize=0;swimlaneHead=0;swimlaneBody=0;fillColor=none;collapsible=0;dropTarget=0;points=[[0,0.5],[1,0.5]];portConstraint=eastwest;top=0;left=0;right=0;bottom=1;strokeWidth=2;" parent="bemgITp-xIqUBpVqshJo-102" vertex="1">
          <mxGeometry y="30" width="259" height="40" as="geometry" />
        </mxCell>
        <mxCell id="bemgITp-xIqUBpVqshJo-104" value="&lt;font style=&quot;font-size: 20px;&quot;&gt;PK&lt;/font&gt;" style="shape=partialRectangle;connectable=0;fillColor=none;top=0;left=0;bottom=0;right=0;fontStyle=1;overflow=hidden;whiteSpace=wrap;html=1;strokeWidth=2;" parent="bemgITp-xIqUBpVqshJo-103" vertex="1">
          <mxGeometry width="41.928641183036234" height="40" as="geometry">
            <mxRectangle width="41.928641183036234" height="40" as="alternateBounds" />
          </mxGeometry>
        </mxCell>
        <mxCell id="bemgITp-xIqUBpVqshJo-105" value="&lt;b style=&quot;text-align: center;&quot;&gt;&lt;font style=&quot;font-size: 20px;&quot;&gt;CourseID&lt;/font&gt;&lt;/b&gt;" style="shape=partialRectangle;connectable=0;fillColor=none;top=0;left=0;bottom=0;right=0;align=left;spacingLeft=6;fontStyle=5;overflow=hidden;whiteSpace=wrap;html=1;strokeWidth=2;" parent="bemgITp-xIqUBpVqshJo-103" vertex="1">
          <mxGeometry x="41.928641183036234" width="217.07135881696377" height="40" as="geometry">
            <mxRectangle width="217.07135881696377" height="40" as="alternateBounds" />
          </mxGeometry>
        </mxCell>
        <mxCell id="bemgITp-xIqUBpVqshJo-106" value="" style="shape=tableRow;horizontal=0;startSize=0;swimlaneHead=0;swimlaneBody=0;fillColor=none;collapsible=0;dropTarget=0;points=[[0,0.5],[1,0.5]];portConstraint=eastwest;top=0;left=0;right=0;bottom=0;strokeWidth=2;" parent="bemgITp-xIqUBpVqshJo-102" vertex="1">
          <mxGeometry y="70" width="259" height="31" as="geometry" />
        </mxCell>
        <mxCell id="bemgITp-xIqUBpVqshJo-107" value="" style="shape=partialRectangle;connectable=0;fillColor=none;top=0;left=0;bottom=0;right=0;editable=1;overflow=hidden;whiteSpace=wrap;html=1;strokeWidth=2;" parent="bemgITp-xIqUBpVqshJo-106" vertex="1">
          <mxGeometry width="41.928641183036234" height="31" as="geometry">
            <mxRectangle width="41.928641183036234" height="31" as="alternateBounds" />
          </mxGeometry>
        </mxCell>
        <mxCell id="bemgITp-xIqUBpVqshJo-108" value="&lt;b style=&quot;text-align: center;&quot;&gt;&lt;font style=&quot;font-size: 20px;&quot;&gt;CourseID&lt;/font&gt;&lt;/b&gt;" style="shape=partialRectangle;connectable=0;fillColor=none;top=0;left=0;bottom=0;right=0;align=left;spacingLeft=6;overflow=hidden;whiteSpace=wrap;html=1;strokeWidth=2;" parent="bemgITp-xIqUBpVqshJo-106" vertex="1">
          <mxGeometry x="41.928641183036234" width="217.07135881696377" height="31" as="geometry">
            <mxRectangle width="217.07135881696377" height="31" as="alternateBounds" />
          </mxGeometry>
        </mxCell>
        <mxCell id="bemgITp-xIqUBpVqshJo-109" value="" style="shape=tableRow;horizontal=0;startSize=0;swimlaneHead=0;swimlaneBody=0;fillColor=none;collapsible=0;dropTarget=0;points=[[0,0.5],[1,0.5]];portConstraint=eastwest;top=0;left=0;right=0;bottom=0;strokeWidth=2;" parent="bemgITp-xIqUBpVqshJo-102" vertex="1">
          <mxGeometry y="101" width="259" height="30" as="geometry" />
        </mxCell>
        <mxCell id="bemgITp-xIqUBpVqshJo-110" value="" style="shape=partialRectangle;connectable=0;fillColor=none;top=0;left=0;bottom=0;right=0;editable=1;overflow=hidden;whiteSpace=wrap;html=1;strokeWidth=2;" parent="bemgITp-xIqUBpVqshJo-109" vertex="1">
          <mxGeometry width="41.928641183036234" height="30" as="geometry">
            <mxRectangle width="41.928641183036234" height="30" as="alternateBounds" />
          </mxGeometry>
        </mxCell>
        <mxCell id="bemgITp-xIqUBpVqshJo-111" value="&lt;b style=&quot;text-align: center;&quot;&gt;&lt;font style=&quot;font-size: 20px;&quot;&gt;CourseName&lt;/font&gt;&lt;/b&gt;" style="shape=partialRectangle;connectable=0;fillColor=none;top=0;left=0;bottom=0;right=0;align=left;spacingLeft=6;overflow=hidden;whiteSpace=wrap;html=1;strokeWidth=2;" parent="bemgITp-xIqUBpVqshJo-109" vertex="1">
          <mxGeometry x="41.928641183036234" width="217.07135881696377" height="30" as="geometry">
            <mxRectangle width="217.07135881696377" height="30" as="alternateBounds" />
          </mxGeometry>
        </mxCell>
        <mxCell id="bemgITp-xIqUBpVqshJo-112" value="" style="shape=tableRow;horizontal=0;startSize=0;swimlaneHead=0;swimlaneBody=0;fillColor=none;collapsible=0;dropTarget=0;points=[[0,0.5],[1,0.5]];portConstraint=eastwest;top=0;left=0;right=0;bottom=0;strokeWidth=2;" parent="bemgITp-xIqUBpVqshJo-102" vertex="1">
          <mxGeometry y="131" width="259" height="30" as="geometry" />
        </mxCell>
        <mxCell id="bemgITp-xIqUBpVqshJo-113" value="" style="shape=partialRectangle;connectable=0;fillColor=none;top=0;left=0;bottom=0;right=0;editable=1;overflow=hidden;whiteSpace=wrap;html=1;strokeWidth=2;" parent="bemgITp-xIqUBpVqshJo-112" vertex="1">
          <mxGeometry width="41.928641183036234" height="30" as="geometry">
            <mxRectangle width="41.928641183036234" height="30" as="alternateBounds" />
          </mxGeometry>
        </mxCell>
        <mxCell id="bemgITp-xIqUBpVqshJo-114" value="&lt;b style=&quot;text-align: center;&quot;&gt;&lt;font style=&quot;font-size: 20px;&quot;&gt;CourseDescription&lt;/font&gt;&lt;/b&gt;" style="shape=partialRectangle;connectable=0;fillColor=none;top=0;left=0;bottom=0;right=0;align=left;spacingLeft=6;overflow=hidden;whiteSpace=wrap;html=1;strokeWidth=2;" parent="bemgITp-xIqUBpVqshJo-112" vertex="1">
          <mxGeometry x="41.928641183036234" width="217.07135881696377" height="30" as="geometry">
            <mxRectangle width="217.07135881696377" height="30" as="alternateBounds" />
          </mxGeometry>
        </mxCell>
        <mxCell id="bemgITp-xIqUBpVqshJo-115" value="" style="shape=tableRow;horizontal=0;startSize=0;swimlaneHead=0;swimlaneBody=0;fillColor=none;collapsible=0;dropTarget=0;points=[[0,0.5],[1,0.5]];portConstraint=eastwest;top=0;left=0;right=0;bottom=0;strokeWidth=2;" parent="bemgITp-xIqUBpVqshJo-102" vertex="1">
          <mxGeometry y="161" width="259" height="30" as="geometry" />
        </mxCell>
        <mxCell id="bemgITp-xIqUBpVqshJo-116" value="" style="shape=partialRectangle;connectable=0;fillColor=none;top=0;left=0;bottom=0;right=0;editable=1;overflow=hidden;whiteSpace=wrap;html=1;strokeWidth=2;" parent="bemgITp-xIqUBpVqshJo-115" vertex="1">
          <mxGeometry width="41.928641183036234" height="30" as="geometry">
            <mxRectangle width="41.928641183036234" height="30" as="alternateBounds" />
          </mxGeometry>
        </mxCell>
        <mxCell id="bemgITp-xIqUBpVqshJo-117" value="&lt;b style=&quot;text-align: center;&quot;&gt;&lt;font style=&quot;font-size: 20px;&quot;&gt;MinDegree&lt;/font&gt;&lt;/b&gt;" style="shape=partialRectangle;connectable=0;fillColor=none;top=0;left=0;bottom=0;right=0;align=left;spacingLeft=6;overflow=hidden;whiteSpace=wrap;html=1;strokeWidth=2;" parent="bemgITp-xIqUBpVqshJo-115" vertex="1">
          <mxGeometry x="41.928641183036234" width="217.07135881696377" height="30" as="geometry">
            <mxRectangle width="217.07135881696377" height="30" as="alternateBounds" />
          </mxGeometry>
        </mxCell>
        <mxCell id="bemgITp-xIqUBpVqshJo-118" value="" style="shape=tableRow;horizontal=0;startSize=0;swimlaneHead=0;swimlaneBody=0;fillColor=none;collapsible=0;dropTarget=0;points=[[0,0.5],[1,0.5]];portConstraint=eastwest;top=0;left=0;right=0;bottom=0;strokeWidth=2;" parent="bemgITp-xIqUBpVqshJo-102" vertex="1">
          <mxGeometry y="191" width="259" height="36" as="geometry" />
        </mxCell>
        <mxCell id="bemgITp-xIqUBpVqshJo-119" value="" style="shape=partialRectangle;connectable=0;fillColor=none;top=0;left=0;bottom=0;right=0;editable=1;overflow=hidden;whiteSpace=wrap;html=1;strokeWidth=2;" parent="bemgITp-xIqUBpVqshJo-118" vertex="1">
          <mxGeometry width="41.928641183036234" height="36" as="geometry">
            <mxRectangle width="41.928641183036234" height="36" as="alternateBounds" />
          </mxGeometry>
        </mxCell>
        <mxCell id="bemgITp-xIqUBpVqshJo-120" value="&lt;b style=&quot;text-align: center;&quot;&gt;&lt;font style=&quot;font-size: 20px;&quot;&gt;MaxDegree&lt;/font&gt;&lt;/b&gt;" style="shape=partialRectangle;connectable=0;fillColor=none;top=0;left=0;bottom=0;right=0;align=left;spacingLeft=6;overflow=hidden;whiteSpace=wrap;html=1;strokeWidth=2;" parent="bemgITp-xIqUBpVqshJo-118" vertex="1">
          <mxGeometry x="41.928641183036234" width="217.07135881696377" height="36" as="geometry">
            <mxRectangle width="217.07135881696377" height="36" as="alternateBounds" />
          </mxGeometry>
        </mxCell>
        <mxCell id="bemgITp-xIqUBpVqshJo-141" value="" style="shape=tableRow;horizontal=0;startSize=0;swimlaneHead=0;swimlaneBody=0;fillColor=none;collapsible=0;dropTarget=0;points=[[0,0.5],[1,0.5]];portConstraint=eastwest;top=0;left=0;right=0;bottom=0;strokeWidth=2;" parent="bemgITp-xIqUBpVqshJo-102" vertex="1">
          <mxGeometry y="227" width="259" height="36" as="geometry" />
        </mxCell>
        <mxCell id="bemgITp-xIqUBpVqshJo-142" value="" style="shape=partialRectangle;connectable=0;fillColor=none;top=0;left=0;bottom=0;right=0;editable=1;overflow=hidden;whiteSpace=wrap;html=1;strokeWidth=2;" parent="bemgITp-xIqUBpVqshJo-141" vertex="1">
          <mxGeometry width="41.928641183036234" height="36" as="geometry">
            <mxRectangle width="41.928641183036234" height="36" as="alternateBounds" />
          </mxGeometry>
        </mxCell>
        <mxCell id="bemgITp-xIqUBpVqshJo-143" value="&lt;b style=&quot;text-align: center;&quot;&gt;&lt;font style=&quot;font-size: 20px;&quot;&gt;CourseStatus&lt;/font&gt;&lt;/b&gt;" style="shape=partialRectangle;connectable=0;fillColor=none;top=0;left=0;bottom=0;right=0;align=left;spacingLeft=6;overflow=hidden;whiteSpace=wrap;html=1;strokeWidth=2;" parent="bemgITp-xIqUBpVqshJo-141" vertex="1">
          <mxGeometry x="41.928641183036234" width="217.07135881696377" height="36" as="geometry">
            <mxRectangle width="217.07135881696377" height="36" as="alternateBounds" />
          </mxGeometry>
        </mxCell>
        <mxCell id="bemgITp-xIqUBpVqshJo-144" value="" style="shape=tableRow;horizontal=0;startSize=0;swimlaneHead=0;swimlaneBody=0;fillColor=none;collapsible=0;dropTarget=0;points=[[0,0.5],[1,0.5]];portConstraint=eastwest;top=0;left=0;right=0;bottom=0;strokeWidth=2;" parent="bemgITp-xIqUBpVqshJo-102" vertex="1">
          <mxGeometry y="263" width="259" height="36" as="geometry" />
        </mxCell>
        <mxCell id="bemgITp-xIqUBpVqshJo-145" value="&lt;b&gt;&lt;font style=&quot;font-size: 20px;&quot;&gt;FK&lt;/font&gt;&lt;/b&gt;" style="shape=partialRectangle;connectable=0;fillColor=none;top=0;left=0;bottom=0;right=0;editable=1;overflow=hidden;whiteSpace=wrap;html=1;strokeWidth=2;" parent="bemgITp-xIqUBpVqshJo-144" vertex="1">
          <mxGeometry width="41.928641183036234" height="36" as="geometry">
            <mxRectangle width="41.928641183036234" height="36" as="alternateBounds" />
          </mxGeometry>
        </mxCell>
        <mxCell id="bemgITp-xIqUBpVqshJo-146" value="&lt;b style=&quot;text-align: center;&quot;&gt;&lt;font style=&quot;font-size: 20px;&quot;&gt;InstructorID&lt;/font&gt;&lt;/b&gt;" style="shape=partialRectangle;connectable=0;fillColor=none;top=0;left=0;bottom=0;right=0;align=left;spacingLeft=6;overflow=hidden;whiteSpace=wrap;html=1;strokeWidth=2;" parent="bemgITp-xIqUBpVqshJo-144" vertex="1">
          <mxGeometry x="41.928641183036234" width="217.07135881696377" height="36" as="geometry">
            <mxRectangle width="217.07135881696377" height="36" as="alternateBounds" />
          </mxGeometry>
        </mxCell>
        <mxCell id="bemgITp-xIqUBpVqshJo-121" value="" style="shape=tableRow;horizontal=0;startSize=0;swimlaneHead=0;swimlaneBody=0;fillColor=none;collapsible=0;dropTarget=0;points=[[0,0.5],[1,0.5]];portConstraint=eastwest;top=0;left=0;right=0;bottom=0;strokeWidth=2;" parent="bemgITp-xIqUBpVqshJo-102" vertex="1">
          <mxGeometry y="299" width="259" height="36" as="geometry" />
        </mxCell>
        <mxCell id="bemgITp-xIqUBpVqshJo-122" value="&lt;b&gt;&lt;font style=&quot;font-size: 20px;&quot;&gt;FK&lt;/font&gt;&lt;/b&gt;" style="shape=partialRectangle;connectable=0;fillColor=none;top=0;left=0;bottom=0;right=0;editable=1;overflow=hidden;whiteSpace=wrap;html=1;strokeWidth=2;" parent="bemgITp-xIqUBpVqshJo-121" vertex="1">
          <mxGeometry width="41.928641183036234" height="36" as="geometry">
            <mxRectangle width="41.928641183036234" height="36" as="alternateBounds" />
          </mxGeometry>
        </mxCell>
        <mxCell id="bemgITp-xIqUBpVqshJo-123" value="&lt;b style=&quot;font-size: 20px;&quot;&gt;TrackID&lt;/b&gt;" style="shape=partialRectangle;connectable=0;fillColor=none;top=0;left=0;bottom=0;right=0;align=left;spacingLeft=6;overflow=hidden;whiteSpace=wrap;html=1;strokeWidth=2;" parent="bemgITp-xIqUBpVqshJo-121" vertex="1">
          <mxGeometry x="41.928641183036234" width="217.07135881696377" height="36" as="geometry">
            <mxRectangle width="217.07135881696377" height="36" as="alternateBounds" />
          </mxGeometry>
        </mxCell>
        <mxCell id="bemgITp-xIqUBpVqshJo-170" value="&lt;b style=&quot;text-wrap-mode: wrap;&quot;&gt;&lt;font style=&quot;font-size: 27px;&quot;&gt;Branch&lt;/font&gt;&lt;/b&gt;" style="shape=table;startSize=39;container=1;collapsible=1;childLayout=tableLayout;fixedRows=1;rowLines=0;fontStyle=1;align=center;resizeLast=1;html=1;fillColor=#a20025;fontColor=#ffffff;strokeColor=#6F0000;strokeWidth=2;" parent="1" vertex="1">
          <mxGeometry x="9513" y="3140" width="259" height="240" as="geometry" />
        </mxCell>
        <mxCell id="bemgITp-xIqUBpVqshJo-171" value="" style="shape=tableRow;horizontal=0;startSize=0;swimlaneHead=0;swimlaneBody=0;fillColor=none;collapsible=0;dropTarget=0;points=[[0,0.5],[1,0.5]];portConstraint=eastwest;top=0;left=0;right=0;bottom=1;strokeWidth=2;" parent="bemgITp-xIqUBpVqshJo-170" vertex="1">
          <mxGeometry y="39" width="259" height="37" as="geometry" />
        </mxCell>
        <mxCell id="bemgITp-xIqUBpVqshJo-172" value="&lt;font style=&quot;font-size: 20px;&quot;&gt;PK&lt;/font&gt;" style="shape=partialRectangle;connectable=0;fillColor=none;top=0;left=0;bottom=0;right=0;fontStyle=1;overflow=hidden;whiteSpace=wrap;html=1;strokeWidth=2;" parent="bemgITp-xIqUBpVqshJo-171" vertex="1">
          <mxGeometry width="41.928641183036234" height="37" as="geometry">
            <mxRectangle width="41.928641183036234" height="37" as="alternateBounds" />
          </mxGeometry>
        </mxCell>
        <mxCell id="bemgITp-xIqUBpVqshJo-173" value="&lt;b style=&quot;text-align: center;&quot;&gt;&lt;font style=&quot;font-size: 20px;&quot;&gt;BranchID&lt;/font&gt;&lt;/b&gt;" style="shape=partialRectangle;connectable=0;fillColor=none;top=0;left=0;bottom=0;right=0;align=left;spacingLeft=6;fontStyle=5;overflow=hidden;whiteSpace=wrap;html=1;strokeWidth=2;" parent="bemgITp-xIqUBpVqshJo-171" vertex="1">
          <mxGeometry x="41.928641183036234" width="217.07135881696377" height="37" as="geometry">
            <mxRectangle width="217.07135881696377" height="37" as="alternateBounds" />
          </mxGeometry>
        </mxCell>
        <mxCell id="bemgITp-xIqUBpVqshJo-174" value="" style="shape=tableRow;horizontal=0;startSize=0;swimlaneHead=0;swimlaneBody=0;fillColor=none;collapsible=0;dropTarget=0;points=[[0,0.5],[1,0.5]];portConstraint=eastwest;top=0;left=0;right=0;bottom=0;strokeWidth=2;" parent="bemgITp-xIqUBpVqshJo-170" vertex="1">
          <mxGeometry y="76" width="259" height="30" as="geometry" />
        </mxCell>
        <mxCell id="bemgITp-xIqUBpVqshJo-175" value="" style="shape=partialRectangle;connectable=0;fillColor=none;top=0;left=0;bottom=0;right=0;editable=1;overflow=hidden;whiteSpace=wrap;html=1;strokeWidth=2;" parent="bemgITp-xIqUBpVqshJo-174" vertex="1">
          <mxGeometry width="41.928641183036234" height="30" as="geometry">
            <mxRectangle width="41.928641183036234" height="30" as="alternateBounds" />
          </mxGeometry>
        </mxCell>
        <mxCell id="bemgITp-xIqUBpVqshJo-176" value="&lt;b style=&quot;text-align: center;&quot;&gt;&lt;font style=&quot;font-size: 20px;&quot;&gt;BranchName&lt;/font&gt;&lt;/b&gt;" style="shape=partialRectangle;connectable=0;fillColor=none;top=0;left=0;bottom=0;right=0;align=left;spacingLeft=6;overflow=hidden;whiteSpace=wrap;html=1;strokeWidth=2;" parent="bemgITp-xIqUBpVqshJo-174" vertex="1">
          <mxGeometry x="41.928641183036234" width="217.07135881696377" height="30" as="geometry">
            <mxRectangle width="217.07135881696377" height="30" as="alternateBounds" />
          </mxGeometry>
        </mxCell>
        <mxCell id="bemgITp-xIqUBpVqshJo-177" value="" style="shape=tableRow;horizontal=0;startSize=0;swimlaneHead=0;swimlaneBody=0;fillColor=none;collapsible=0;dropTarget=0;points=[[0,0.5],[1,0.5]];portConstraint=eastwest;top=0;left=0;right=0;bottom=0;strokeWidth=2;" parent="bemgITp-xIqUBpVqshJo-170" vertex="1">
          <mxGeometry y="106" width="259" height="33" as="geometry" />
        </mxCell>
        <mxCell id="bemgITp-xIqUBpVqshJo-178" value="" style="shape=partialRectangle;connectable=0;fillColor=none;top=0;left=0;bottom=0;right=0;editable=1;overflow=hidden;whiteSpace=wrap;html=1;strokeWidth=2;" parent="bemgITp-xIqUBpVqshJo-177" vertex="1">
          <mxGeometry width="41.928641183036234" height="33" as="geometry">
            <mxRectangle width="41.928641183036234" height="33" as="alternateBounds" />
          </mxGeometry>
        </mxCell>
        <mxCell id="bemgITp-xIqUBpVqshJo-179" value="&lt;b style=&quot;text-align: center;&quot;&gt;&lt;font style=&quot;font-size: 20px;&quot;&gt;BranchAddress&lt;/font&gt;&lt;/b&gt;" style="shape=partialRectangle;connectable=0;fillColor=none;top=0;left=0;bottom=0;right=0;align=left;spacingLeft=6;overflow=hidden;whiteSpace=wrap;html=1;strokeWidth=2;" parent="bemgITp-xIqUBpVqshJo-177" vertex="1">
          <mxGeometry x="41.928641183036234" width="217.07135881696377" height="33" as="geometry">
            <mxRectangle width="217.07135881696377" height="33" as="alternateBounds" />
          </mxGeometry>
        </mxCell>
        <mxCell id="bemgITp-xIqUBpVqshJo-180" value="" style="shape=tableRow;horizontal=0;startSize=0;swimlaneHead=0;swimlaneBody=0;fillColor=none;collapsible=0;dropTarget=0;points=[[0,0.5],[1,0.5]];portConstraint=eastwest;top=0;left=0;right=0;bottom=0;strokeWidth=2;" parent="bemgITp-xIqUBpVqshJo-170" vertex="1">
          <mxGeometry y="139" width="259" height="30" as="geometry" />
        </mxCell>
        <mxCell id="bemgITp-xIqUBpVqshJo-181" value="" style="shape=partialRectangle;connectable=0;fillColor=none;top=0;left=0;bottom=0;right=0;editable=1;overflow=hidden;whiteSpace=wrap;html=1;strokeWidth=2;" parent="bemgITp-xIqUBpVqshJo-180" vertex="1">
          <mxGeometry width="41.928641183036234" height="30" as="geometry">
            <mxRectangle width="41.928641183036234" height="30" as="alternateBounds" />
          </mxGeometry>
        </mxCell>
        <mxCell id="bemgITp-xIqUBpVqshJo-182" value="&lt;b style=&quot;text-align: center;&quot;&gt;&lt;font style=&quot;font-size: 20px;&quot;&gt;BranchEmail&lt;/font&gt;&lt;/b&gt;" style="shape=partialRectangle;connectable=0;fillColor=none;top=0;left=0;bottom=0;right=0;align=left;spacingLeft=6;overflow=hidden;whiteSpace=wrap;html=1;strokeWidth=2;" parent="bemgITp-xIqUBpVqshJo-180" vertex="1">
          <mxGeometry x="41.928641183036234" width="217.07135881696377" height="30" as="geometry">
            <mxRectangle width="217.07135881696377" height="30" as="alternateBounds" />
          </mxGeometry>
        </mxCell>
        <mxCell id="bemgITp-xIqUBpVqshJo-183" value="" style="shape=tableRow;horizontal=0;startSize=0;swimlaneHead=0;swimlaneBody=0;fillColor=none;collapsible=0;dropTarget=0;points=[[0,0.5],[1,0.5]];portConstraint=eastwest;top=0;left=0;right=0;bottom=0;strokeWidth=2;" parent="bemgITp-xIqUBpVqshJo-170" vertex="1">
          <mxGeometry y="169" width="259" height="35" as="geometry" />
        </mxCell>
        <mxCell id="bemgITp-xIqUBpVqshJo-184" value="" style="shape=partialRectangle;connectable=0;fillColor=none;top=0;left=0;bottom=0;right=0;editable=1;overflow=hidden;whiteSpace=wrap;html=1;strokeWidth=2;" parent="bemgITp-xIqUBpVqshJo-183" vertex="1">
          <mxGeometry width="41.928641183036234" height="35" as="geometry">
            <mxRectangle width="41.928641183036234" height="35" as="alternateBounds" />
          </mxGeometry>
        </mxCell>
        <mxCell id="bemgITp-xIqUBpVqshJo-185" value="&lt;b style=&quot;text-align: center;&quot;&gt;&lt;font style=&quot;font-size: 20px;&quot;&gt;BranchPhone&lt;/font&gt;&lt;/b&gt;" style="shape=partialRectangle;connectable=0;fillColor=none;top=0;left=0;bottom=0;right=0;align=left;spacingLeft=6;overflow=hidden;whiteSpace=wrap;html=1;strokeWidth=2;" parent="bemgITp-xIqUBpVqshJo-183" vertex="1">
          <mxGeometry x="41.928641183036234" width="217.07135881696377" height="35" as="geometry">
            <mxRectangle width="217.07135881696377" height="35" as="alternateBounds" />
          </mxGeometry>
        </mxCell>
        <mxCell id="bemgITp-xIqUBpVqshJo-186" value="" style="shape=tableRow;horizontal=0;startSize=0;swimlaneHead=0;swimlaneBody=0;fillColor=none;collapsible=0;dropTarget=0;points=[[0,0.5],[1,0.5]];portConstraint=eastwest;top=0;left=0;right=0;bottom=0;strokeWidth=2;" parent="bemgITp-xIqUBpVqshJo-170" vertex="1">
          <mxGeometry y="204" width="259" height="36" as="geometry" />
        </mxCell>
        <mxCell id="bemgITp-xIqUBpVqshJo-187" value="&lt;b&gt;&lt;font style=&quot;font-size: 20px;&quot;&gt;FK&lt;/font&gt;&lt;/b&gt;" style="shape=partialRectangle;connectable=0;fillColor=none;top=0;left=0;bottom=0;right=0;editable=1;overflow=hidden;whiteSpace=wrap;html=1;strokeWidth=2;" parent="bemgITp-xIqUBpVqshJo-186" vertex="1">
          <mxGeometry width="41.928641183036234" height="36" as="geometry">
            <mxRectangle width="41.928641183036234" height="36" as="alternateBounds" />
          </mxGeometry>
        </mxCell>
        <mxCell id="bemgITp-xIqUBpVqshJo-188" value="&lt;b style=&quot;text-align: center;&quot;&gt;&lt;font style=&quot;font-size: 20px;&quot;&gt;ManagerID&lt;/font&gt;&lt;/b&gt;" style="shape=partialRectangle;connectable=0;fillColor=none;top=0;left=0;bottom=0;right=0;align=left;spacingLeft=6;overflow=hidden;whiteSpace=wrap;html=1;strokeWidth=2;" parent="bemgITp-xIqUBpVqshJo-186" vertex="1">
          <mxGeometry x="41.928641183036234" width="217.07135881696377" height="36" as="geometry">
            <mxRectangle width="217.07135881696377" height="36" as="alternateBounds" />
          </mxGeometry>
        </mxCell>
        <mxCell id="bemgITp-xIqUBpVqshJo-189" value="&lt;b style=&quot;text-wrap-mode: wrap;&quot;&gt;&lt;font style=&quot;font-size: 27px;&quot;&gt;Intake&lt;/font&gt;&lt;/b&gt;" style="shape=table;startSize=39;container=1;collapsible=1;childLayout=tableLayout;fixedRows=1;rowLines=0;fontStyle=1;align=center;resizeLast=1;html=1;fillColor=#a20025;fontColor=#ffffff;strokeColor=#6F0000;strokeWidth=2;" parent="1" vertex="1">
          <mxGeometry x="7903" y="4502" width="259" height="204" as="geometry" />
        </mxCell>
        <mxCell id="bemgITp-xIqUBpVqshJo-190" value="" style="shape=tableRow;horizontal=0;startSize=0;swimlaneHead=0;swimlaneBody=0;fillColor=none;collapsible=0;dropTarget=0;points=[[0,0.5],[1,0.5]];portConstraint=eastwest;top=0;left=0;right=0;bottom=1;strokeWidth=2;" parent="bemgITp-xIqUBpVqshJo-189" vertex="1">
          <mxGeometry y="39" width="259" height="37" as="geometry" />
        </mxCell>
        <mxCell id="bemgITp-xIqUBpVqshJo-191" value="&lt;font style=&quot;font-size: 20px;&quot;&gt;PK&lt;/font&gt;" style="shape=partialRectangle;connectable=0;fillColor=none;top=0;left=0;bottom=0;right=0;fontStyle=1;overflow=hidden;whiteSpace=wrap;html=1;strokeWidth=2;" parent="bemgITp-xIqUBpVqshJo-190" vertex="1">
          <mxGeometry width="41.928641183036234" height="37" as="geometry">
            <mxRectangle width="41.928641183036234" height="37" as="alternateBounds" />
          </mxGeometry>
        </mxCell>
        <mxCell id="bemgITp-xIqUBpVqshJo-192" value="&lt;b style=&quot;text-align: center;&quot;&gt;&lt;font style=&quot;font-size: 20px;&quot;&gt;IntakeID&lt;/font&gt;&lt;/b&gt;" style="shape=partialRectangle;connectable=0;fillColor=none;top=0;left=0;bottom=0;right=0;align=left;spacingLeft=6;fontStyle=5;overflow=hidden;whiteSpace=wrap;html=1;strokeWidth=2;" parent="bemgITp-xIqUBpVqshJo-190" vertex="1">
          <mxGeometry x="41.928641183036234" width="217.07135881696377" height="37" as="geometry">
            <mxRectangle width="217.07135881696377" height="37" as="alternateBounds" />
          </mxGeometry>
        </mxCell>
        <mxCell id="bemgITp-xIqUBpVqshJo-193" value="" style="shape=tableRow;horizontal=0;startSize=0;swimlaneHead=0;swimlaneBody=0;fillColor=none;collapsible=0;dropTarget=0;points=[[0,0.5],[1,0.5]];portConstraint=eastwest;top=0;left=0;right=0;bottom=0;strokeWidth=2;" parent="bemgITp-xIqUBpVqshJo-189" vertex="1">
          <mxGeometry y="76" width="259" height="30" as="geometry" />
        </mxCell>
        <mxCell id="bemgITp-xIqUBpVqshJo-194" value="" style="shape=partialRectangle;connectable=0;fillColor=none;top=0;left=0;bottom=0;right=0;editable=1;overflow=hidden;whiteSpace=wrap;html=1;strokeWidth=2;" parent="bemgITp-xIqUBpVqshJo-193" vertex="1">
          <mxGeometry width="41.928641183036234" height="30" as="geometry">
            <mxRectangle width="41.928641183036234" height="30" as="alternateBounds" />
          </mxGeometry>
        </mxCell>
        <mxCell id="bemgITp-xIqUBpVqshJo-195" value="&lt;b style=&quot;text-align: center;&quot;&gt;&lt;font style=&quot;font-size: 20px;&quot;&gt;IntakeName&lt;/font&gt;&lt;/b&gt;" style="shape=partialRectangle;connectable=0;fillColor=none;top=0;left=0;bottom=0;right=0;align=left;spacingLeft=6;overflow=hidden;whiteSpace=wrap;html=1;strokeWidth=2;" parent="bemgITp-xIqUBpVqshJo-193" vertex="1">
          <mxGeometry x="41.928641183036234" width="217.07135881696377" height="30" as="geometry">
            <mxRectangle width="217.07135881696377" height="30" as="alternateBounds" />
          </mxGeometry>
        </mxCell>
        <mxCell id="bemgITp-xIqUBpVqshJo-196" value="" style="shape=tableRow;horizontal=0;startSize=0;swimlaneHead=0;swimlaneBody=0;fillColor=none;collapsible=0;dropTarget=0;points=[[0,0.5],[1,0.5]];portConstraint=eastwest;top=0;left=0;right=0;bottom=0;strokeWidth=2;" parent="bemgITp-xIqUBpVqshJo-189" vertex="1">
          <mxGeometry y="106" width="259" height="33" as="geometry" />
        </mxCell>
        <mxCell id="bemgITp-xIqUBpVqshJo-197" value="" style="shape=partialRectangle;connectable=0;fillColor=none;top=0;left=0;bottom=0;right=0;editable=1;overflow=hidden;whiteSpace=wrap;html=1;strokeWidth=2;" parent="bemgITp-xIqUBpVqshJo-196" vertex="1">
          <mxGeometry width="41.928641183036234" height="33" as="geometry">
            <mxRectangle width="41.928641183036234" height="33" as="alternateBounds" />
          </mxGeometry>
        </mxCell>
        <mxCell id="bemgITp-xIqUBpVqshJo-198" value="&lt;b style=&quot;text-align: center;&quot;&gt;&lt;font style=&quot;font-size: 20px;&quot;&gt;StartDate&lt;/font&gt;&lt;/b&gt;" style="shape=partialRectangle;connectable=0;fillColor=none;top=0;left=0;bottom=0;right=0;align=left;spacingLeft=6;overflow=hidden;whiteSpace=wrap;html=1;strokeWidth=2;" parent="bemgITp-xIqUBpVqshJo-196" vertex="1">
          <mxGeometry x="41.928641183036234" width="217.07135881696377" height="33" as="geometry">
            <mxRectangle width="217.07135881696377" height="33" as="alternateBounds" />
          </mxGeometry>
        </mxCell>
        <mxCell id="bemgITp-xIqUBpVqshJo-199" value="" style="shape=tableRow;horizontal=0;startSize=0;swimlaneHead=0;swimlaneBody=0;fillColor=none;collapsible=0;dropTarget=0;points=[[0,0.5],[1,0.5]];portConstraint=eastwest;top=0;left=0;right=0;bottom=0;strokeWidth=2;" parent="bemgITp-xIqUBpVqshJo-189" vertex="1">
          <mxGeometry y="139" width="259" height="30" as="geometry" />
        </mxCell>
        <mxCell id="bemgITp-xIqUBpVqshJo-200" value="" style="shape=partialRectangle;connectable=0;fillColor=none;top=0;left=0;bottom=0;right=0;editable=1;overflow=hidden;whiteSpace=wrap;html=1;strokeWidth=2;" parent="bemgITp-xIqUBpVqshJo-199" vertex="1">
          <mxGeometry width="41.928641183036234" height="30" as="geometry">
            <mxRectangle width="41.928641183036234" height="30" as="alternateBounds" />
          </mxGeometry>
        </mxCell>
        <mxCell id="bemgITp-xIqUBpVqshJo-201" value="&lt;b style=&quot;text-align: center;&quot;&gt;&lt;font style=&quot;font-size: 20px;&quot;&gt;EndDate&lt;/font&gt;&lt;/b&gt;" style="shape=partialRectangle;connectable=0;fillColor=none;top=0;left=0;bottom=0;right=0;align=left;spacingLeft=6;overflow=hidden;whiteSpace=wrap;html=1;strokeWidth=2;" parent="bemgITp-xIqUBpVqshJo-199" vertex="1">
          <mxGeometry x="41.928641183036234" width="217.07135881696377" height="30" as="geometry">
            <mxRectangle width="217.07135881696377" height="30" as="alternateBounds" />
          </mxGeometry>
        </mxCell>
        <mxCell id="bemgITp-xIqUBpVqshJo-202" value="" style="shape=tableRow;horizontal=0;startSize=0;swimlaneHead=0;swimlaneBody=0;fillColor=none;collapsible=0;dropTarget=0;points=[[0,0.5],[1,0.5]];portConstraint=eastwest;top=0;left=0;right=0;bottom=0;strokeWidth=2;" parent="bemgITp-xIqUBpVqshJo-189" vertex="1">
          <mxGeometry y="169" width="259" height="35" as="geometry" />
        </mxCell>
        <mxCell id="bemgITp-xIqUBpVqshJo-203" value="" style="shape=partialRectangle;connectable=0;fillColor=none;top=0;left=0;bottom=0;right=0;editable=1;overflow=hidden;whiteSpace=wrap;html=1;strokeWidth=2;" parent="bemgITp-xIqUBpVqshJo-202" vertex="1">
          <mxGeometry width="41.928641183036234" height="35" as="geometry">
            <mxRectangle width="41.928641183036234" height="35" as="alternateBounds" />
          </mxGeometry>
        </mxCell>
        <mxCell id="bemgITp-xIqUBpVqshJo-204" value="&lt;b style=&quot;text-align: center;&quot;&gt;&lt;font style=&quot;font-size: 20px;&quot;&gt;Year&lt;/font&gt;&lt;/b&gt;" style="shape=partialRectangle;connectable=0;fillColor=none;top=0;left=0;bottom=0;right=0;align=left;spacingLeft=6;overflow=hidden;whiteSpace=wrap;html=1;strokeWidth=2;" parent="bemgITp-xIqUBpVqshJo-202" vertex="1">
          <mxGeometry x="41.928641183036234" width="217.07135881696377" height="35" as="geometry">
            <mxRectangle width="217.07135881696377" height="35" as="alternateBounds" />
          </mxGeometry>
        </mxCell>
        <mxCell id="bemgITp-xIqUBpVqshJo-211" value="&lt;b style=&quot;text-wrap-mode: wrap;&quot;&gt;&lt;font style=&quot;font-size: 27px;&quot;&gt;Track&lt;/font&gt;&lt;/b&gt;" style="shape=table;startSize=39;container=1;collapsible=1;childLayout=tableLayout;fixedRows=1;rowLines=0;fontStyle=1;align=center;resizeLast=1;html=1;fillColor=#a20025;fontColor=#ffffff;strokeColor=#6F0000;strokeWidth=2;" parent="1" vertex="1">
          <mxGeometry x="8383" y="4162" width="259" height="169" as="geometry" />
        </mxCell>
        <mxCell id="bemgITp-xIqUBpVqshJo-212" value="" style="shape=tableRow;horizontal=0;startSize=0;swimlaneHead=0;swimlaneBody=0;fillColor=none;collapsible=0;dropTarget=0;points=[[0,0.5],[1,0.5]];portConstraint=eastwest;top=0;left=0;right=0;bottom=1;strokeWidth=2;" parent="bemgITp-xIqUBpVqshJo-211" vertex="1">
          <mxGeometry y="39" width="259" height="37" as="geometry" />
        </mxCell>
        <mxCell id="bemgITp-xIqUBpVqshJo-213" value="&lt;font style=&quot;font-size: 20px;&quot;&gt;PK&lt;/font&gt;" style="shape=partialRectangle;connectable=0;fillColor=none;top=0;left=0;bottom=0;right=0;fontStyle=1;overflow=hidden;whiteSpace=wrap;html=1;strokeWidth=2;" parent="bemgITp-xIqUBpVqshJo-212" vertex="1">
          <mxGeometry width="41.928641183036234" height="37" as="geometry">
            <mxRectangle width="41.928641183036234" height="37" as="alternateBounds" />
          </mxGeometry>
        </mxCell>
        <mxCell id="bemgITp-xIqUBpVqshJo-214" value="&lt;b style=&quot;text-align: center;&quot;&gt;&lt;font style=&quot;font-size: 20px;&quot;&gt;TrackID&lt;/font&gt;&lt;/b&gt;" style="shape=partialRectangle;connectable=0;fillColor=none;top=0;left=0;bottom=0;right=0;align=left;spacingLeft=6;fontStyle=5;overflow=hidden;whiteSpace=wrap;html=1;strokeWidth=2;" parent="bemgITp-xIqUBpVqshJo-212" vertex="1">
          <mxGeometry x="41.928641183036234" width="217.07135881696377" height="37" as="geometry">
            <mxRectangle width="217.07135881696377" height="37" as="alternateBounds" />
          </mxGeometry>
        </mxCell>
        <mxCell id="bemgITp-xIqUBpVqshJo-215" value="" style="shape=tableRow;horizontal=0;startSize=0;swimlaneHead=0;swimlaneBody=0;fillColor=none;collapsible=0;dropTarget=0;points=[[0,0.5],[1,0.5]];portConstraint=eastwest;top=0;left=0;right=0;bottom=0;strokeWidth=2;" parent="bemgITp-xIqUBpVqshJo-211" vertex="1">
          <mxGeometry y="76" width="259" height="30" as="geometry" />
        </mxCell>
        <mxCell id="bemgITp-xIqUBpVqshJo-216" value="" style="shape=partialRectangle;connectable=0;fillColor=none;top=0;left=0;bottom=0;right=0;editable=1;overflow=hidden;whiteSpace=wrap;html=1;strokeWidth=2;" parent="bemgITp-xIqUBpVqshJo-215" vertex="1">
          <mxGeometry width="41.928641183036234" height="30" as="geometry">
            <mxRectangle width="41.928641183036234" height="30" as="alternateBounds" />
          </mxGeometry>
        </mxCell>
        <mxCell id="bemgITp-xIqUBpVqshJo-217" value="&lt;b style=&quot;text-align: center;&quot;&gt;&lt;font style=&quot;font-size: 20px;&quot;&gt;TrackName&lt;/font&gt;&lt;/b&gt;" style="shape=partialRectangle;connectable=0;fillColor=none;top=0;left=0;bottom=0;right=0;align=left;spacingLeft=6;overflow=hidden;whiteSpace=wrap;html=1;strokeWidth=2;" parent="bemgITp-xIqUBpVqshJo-215" vertex="1">
          <mxGeometry x="41.928641183036234" width="217.07135881696377" height="30" as="geometry">
            <mxRectangle width="217.07135881696377" height="30" as="alternateBounds" />
          </mxGeometry>
        </mxCell>
        <mxCell id="bemgITp-xIqUBpVqshJo-218" value="" style="shape=tableRow;horizontal=0;startSize=0;swimlaneHead=0;swimlaneBody=0;fillColor=none;collapsible=0;dropTarget=0;points=[[0,0.5],[1,0.5]];portConstraint=eastwest;top=0;left=0;right=0;bottom=0;strokeWidth=2;" parent="bemgITp-xIqUBpVqshJo-211" vertex="1">
          <mxGeometry y="106" width="259" height="33" as="geometry" />
        </mxCell>
        <mxCell id="bemgITp-xIqUBpVqshJo-219" value="" style="shape=partialRectangle;connectable=0;fillColor=none;top=0;left=0;bottom=0;right=0;editable=1;overflow=hidden;whiteSpace=wrap;html=1;strokeWidth=2;" parent="bemgITp-xIqUBpVqshJo-218" vertex="1">
          <mxGeometry width="41.928641183036234" height="33" as="geometry">
            <mxRectangle width="41.928641183036234" height="33" as="alternateBounds" />
          </mxGeometry>
        </mxCell>
        <mxCell id="bemgITp-xIqUBpVqshJo-220" value="&lt;b style=&quot;text-align: center;&quot;&gt;&lt;font style=&quot;font-size: 20px;&quot;&gt;Description&lt;/font&gt;&lt;/b&gt;" style="shape=partialRectangle;connectable=0;fillColor=none;top=0;left=0;bottom=0;right=0;align=left;spacingLeft=6;overflow=hidden;whiteSpace=wrap;html=1;strokeWidth=2;" parent="bemgITp-xIqUBpVqshJo-218" vertex="1">
          <mxGeometry x="41.928641183036234" width="217.07135881696377" height="33" as="geometry">
            <mxRectangle width="217.07135881696377" height="33" as="alternateBounds" />
          </mxGeometry>
        </mxCell>
        <mxCell id="bemgITp-xIqUBpVqshJo-221" value="" style="shape=tableRow;horizontal=0;startSize=0;swimlaneHead=0;swimlaneBody=0;fillColor=none;collapsible=0;dropTarget=0;points=[[0,0.5],[1,0.5]];portConstraint=eastwest;top=0;left=0;right=0;bottom=0;strokeWidth=2;" parent="bemgITp-xIqUBpVqshJo-211" vertex="1">
          <mxGeometry y="139" width="259" height="30" as="geometry" />
        </mxCell>
        <mxCell id="bemgITp-xIqUBpVqshJo-222" value="&lt;b&gt;&lt;font style=&quot;font-size: 20px;&quot;&gt;FK&lt;/font&gt;&lt;/b&gt;" style="shape=partialRectangle;connectable=0;fillColor=none;top=0;left=0;bottom=0;right=0;editable=1;overflow=hidden;whiteSpace=wrap;html=1;strokeWidth=2;" parent="bemgITp-xIqUBpVqshJo-221" vertex="1">
          <mxGeometry width="41.928641183036234" height="30" as="geometry">
            <mxRectangle width="41.928641183036234" height="30" as="alternateBounds" />
          </mxGeometry>
        </mxCell>
        <mxCell id="bemgITp-xIqUBpVqshJo-223" value="&lt;b style=&quot;text-align: center;&quot;&gt;&lt;font style=&quot;font-size: 20px;&quot;&gt;DepartmentID&lt;/font&gt;&lt;/b&gt;" style="shape=partialRectangle;connectable=0;fillColor=none;top=0;left=0;bottom=0;right=0;align=left;spacingLeft=6;overflow=hidden;whiteSpace=wrap;html=1;strokeWidth=2;" parent="bemgITp-xIqUBpVqshJo-221" vertex="1">
          <mxGeometry x="41.928641183036234" width="217.07135881696377" height="30" as="geometry">
            <mxRectangle width="217.07135881696377" height="30" as="alternateBounds" />
          </mxGeometry>
        </mxCell>
        <mxCell id="bemgITp-xIqUBpVqshJo-248" value="&lt;b style=&quot;text-wrap-mode: wrap;&quot;&gt;&lt;font style=&quot;font-size: 27px;&quot;&gt;Department&lt;/font&gt;&lt;/b&gt;" style="shape=table;startSize=39;container=1;collapsible=1;childLayout=tableLayout;fixedRows=1;rowLines=0;fontStyle=1;align=center;resizeLast=1;html=1;fillColor=#a20025;fontColor=#ffffff;strokeColor=#6F0000;strokeWidth=2;" parent="1" vertex="1">
          <mxGeometry x="8410" y="3634" width="259" height="106" as="geometry" />
        </mxCell>
        <mxCell id="bemgITp-xIqUBpVqshJo-249" value="" style="shape=tableRow;horizontal=0;startSize=0;swimlaneHead=0;swimlaneBody=0;fillColor=none;collapsible=0;dropTarget=0;points=[[0,0.5],[1,0.5]];portConstraint=eastwest;top=0;left=0;right=0;bottom=1;strokeWidth=2;" parent="bemgITp-xIqUBpVqshJo-248" vertex="1">
          <mxGeometry y="39" width="259" height="37" as="geometry" />
        </mxCell>
        <mxCell id="bemgITp-xIqUBpVqshJo-250" value="&lt;font style=&quot;font-size: 20px;&quot;&gt;PK&lt;/font&gt;" style="shape=partialRectangle;connectable=0;fillColor=none;top=0;left=0;bottom=0;right=0;fontStyle=1;overflow=hidden;whiteSpace=wrap;html=1;strokeWidth=2;" parent="bemgITp-xIqUBpVqshJo-249" vertex="1">
          <mxGeometry width="41.928641183036234" height="37" as="geometry">
            <mxRectangle width="41.928641183036234" height="37" as="alternateBounds" />
          </mxGeometry>
        </mxCell>
        <mxCell id="bemgITp-xIqUBpVqshJo-251" value="&lt;b style=&quot;text-align: center;&quot;&gt;&lt;font style=&quot;font-size: 20px;&quot;&gt;DepartmentID&lt;/font&gt;&lt;/b&gt;" style="shape=partialRectangle;connectable=0;fillColor=none;top=0;left=0;bottom=0;right=0;align=left;spacingLeft=6;fontStyle=5;overflow=hidden;whiteSpace=wrap;html=1;strokeWidth=2;" parent="bemgITp-xIqUBpVqshJo-249" vertex="1">
          <mxGeometry x="41.928641183036234" width="217.07135881696377" height="37" as="geometry">
            <mxRectangle width="217.07135881696377" height="37" as="alternateBounds" />
          </mxGeometry>
        </mxCell>
        <mxCell id="bemgITp-xIqUBpVqshJo-252" value="" style="shape=tableRow;horizontal=0;startSize=0;swimlaneHead=0;swimlaneBody=0;fillColor=none;collapsible=0;dropTarget=0;points=[[0,0.5],[1,0.5]];portConstraint=eastwest;top=0;left=0;right=0;bottom=0;strokeWidth=2;" parent="bemgITp-xIqUBpVqshJo-248" vertex="1">
          <mxGeometry y="76" width="259" height="30" as="geometry" />
        </mxCell>
        <mxCell id="bemgITp-xIqUBpVqshJo-253" value="" style="shape=partialRectangle;connectable=0;fillColor=none;top=0;left=0;bottom=0;right=0;editable=1;overflow=hidden;whiteSpace=wrap;html=1;strokeWidth=2;" parent="bemgITp-xIqUBpVqshJo-252" vertex="1">
          <mxGeometry width="41.928641183036234" height="30" as="geometry">
            <mxRectangle width="41.928641183036234" height="30" as="alternateBounds" />
          </mxGeometry>
        </mxCell>
        <mxCell id="bemgITp-xIqUBpVqshJo-254" value="&lt;b style=&quot;text-align: center;&quot;&gt;&lt;font style=&quot;font-size: 20px;&quot;&gt;DepartmentName&lt;/font&gt;&lt;/b&gt;" style="shape=partialRectangle;connectable=0;fillColor=none;top=0;left=0;bottom=0;right=0;align=left;spacingLeft=6;overflow=hidden;whiteSpace=wrap;html=1;strokeWidth=2;" parent="bemgITp-xIqUBpVqshJo-252" vertex="1">
          <mxGeometry x="41.928641183036234" width="217.07135881696377" height="30" as="geometry">
            <mxRectangle width="217.07135881696377" height="30" as="alternateBounds" />
          </mxGeometry>
        </mxCell>
        <mxCell id="bemgITp-xIqUBpVqshJo-261" value="&lt;b style=&quot;text-wrap-mode: wrap;&quot;&gt;&lt;font style=&quot;font-size: 27px;&quot;&gt;BranchIntakeTrack&lt;/font&gt;&lt;/b&gt;" style="shape=table;startSize=42;container=1;collapsible=1;childLayout=tableLayout;fixedRows=1;rowLines=0;fontStyle=1;align=center;resizeLast=1;html=1;fillColor=#a20025;fontColor=#ffffff;strokeColor=#6F0000;strokeWidth=2;dashed=1;" parent="1" vertex="1">
          <mxGeometry x="7954" y="3765" width="262" height="169" as="geometry" />
        </mxCell>
        <mxCell id="bemgITp-xIqUBpVqshJo-262" value="" style="shape=tableRow;horizontal=0;startSize=0;swimlaneHead=0;swimlaneBody=0;fillColor=none;collapsible=0;dropTarget=0;points=[[0,0.5],[1,0.5]];portConstraint=eastwest;top=0;left=0;right=0;bottom=1;strokeWidth=2;" parent="bemgITp-xIqUBpVqshJo-261" vertex="1">
          <mxGeometry y="42" width="262" height="37" as="geometry" />
        </mxCell>
        <mxCell id="bemgITp-xIqUBpVqshJo-263" value="&lt;font style=&quot;font-size: 20px;&quot;&gt;PK&lt;/font&gt;" style="shape=partialRectangle;connectable=0;fillColor=none;top=0;left=0;bottom=0;right=0;fontStyle=1;overflow=hidden;whiteSpace=wrap;html=1;strokeWidth=2;" parent="bemgITp-xIqUBpVqshJo-262" vertex="1">
          <mxGeometry width="37.305572509765625" height="37" as="geometry">
            <mxRectangle width="37.305572509765625" height="37" as="alternateBounds" />
          </mxGeometry>
        </mxCell>
        <mxCell id="bemgITp-xIqUBpVqshJo-264" value="&lt;b style=&quot;text-align: center;&quot;&gt;&lt;font style=&quot;font-size: 20px;&quot;&gt;BIT_ID&lt;/font&gt;&lt;/b&gt;" style="shape=partialRectangle;connectable=0;fillColor=none;top=0;left=0;bottom=0;right=0;align=left;spacingLeft=6;fontStyle=5;overflow=hidden;whiteSpace=wrap;html=1;strokeWidth=2;" parent="bemgITp-xIqUBpVqshJo-262" vertex="1">
          <mxGeometry x="37.305572509765625" width="224.69442749023438" height="37" as="geometry">
            <mxRectangle width="224.69442749023438" height="37" as="alternateBounds" />
          </mxGeometry>
        </mxCell>
        <mxCell id="bemgITp-xIqUBpVqshJo-265" value="" style="shape=tableRow;horizontal=0;startSize=0;swimlaneHead=0;swimlaneBody=0;fillColor=none;collapsible=0;dropTarget=0;points=[[0,0.5],[1,0.5]];portConstraint=eastwest;top=0;left=0;right=0;bottom=0;strokeWidth=2;" parent="bemgITp-xIqUBpVqshJo-261" vertex="1">
          <mxGeometry y="79" width="262" height="30" as="geometry" />
        </mxCell>
        <mxCell id="bemgITp-xIqUBpVqshJo-266" value="&lt;b&gt;&lt;font style=&quot;font-size: 20px;&quot;&gt;FK&lt;/font&gt;&lt;/b&gt;" style="shape=partialRectangle;connectable=0;fillColor=none;top=0;left=0;bottom=0;right=0;editable=1;overflow=hidden;whiteSpace=wrap;html=1;strokeWidth=2;" parent="bemgITp-xIqUBpVqshJo-265" vertex="1">
          <mxGeometry width="37.305572509765625" height="30" as="geometry">
            <mxRectangle width="37.305572509765625" height="30" as="alternateBounds" />
          </mxGeometry>
        </mxCell>
        <mxCell id="bemgITp-xIqUBpVqshJo-267" value="&lt;b style=&quot;text-align: center;&quot;&gt;&lt;font style=&quot;font-size: 20px;&quot;&gt;BranchID&lt;/font&gt;&lt;/b&gt;" style="shape=partialRectangle;connectable=0;fillColor=none;top=0;left=0;bottom=0;right=0;align=left;spacingLeft=6;overflow=hidden;whiteSpace=wrap;html=1;strokeWidth=2;" parent="bemgITp-xIqUBpVqshJo-265" vertex="1">
          <mxGeometry x="37.305572509765625" width="224.69442749023438" height="30" as="geometry">
            <mxRectangle width="224.69442749023438" height="30" as="alternateBounds" />
          </mxGeometry>
        </mxCell>
        <mxCell id="bemgITp-xIqUBpVqshJo-268" value="" style="shape=tableRow;horizontal=0;startSize=0;swimlaneHead=0;swimlaneBody=0;fillColor=none;collapsible=0;dropTarget=0;points=[[0,0.5],[1,0.5]];portConstraint=eastwest;top=0;left=0;right=0;bottom=0;strokeWidth=2;" parent="bemgITp-xIqUBpVqshJo-261" vertex="1">
          <mxGeometry y="109" width="262" height="30" as="geometry" />
        </mxCell>
        <mxCell id="bemgITp-xIqUBpVqshJo-269" value="&lt;b&gt;&lt;font style=&quot;font-size: 20px;&quot;&gt;FK&lt;/font&gt;&lt;/b&gt;" style="shape=partialRectangle;connectable=0;fillColor=none;top=0;left=0;bottom=0;right=0;editable=1;overflow=hidden;whiteSpace=wrap;html=1;strokeWidth=2;" parent="bemgITp-xIqUBpVqshJo-268" vertex="1">
          <mxGeometry width="37.305572509765625" height="30" as="geometry">
            <mxRectangle width="37.305572509765625" height="30" as="alternateBounds" />
          </mxGeometry>
        </mxCell>
        <mxCell id="bemgITp-xIqUBpVqshJo-270" value="&lt;b style=&quot;text-align: center;&quot;&gt;&lt;font style=&quot;font-size: 20px;&quot;&gt;IntakeID&lt;/font&gt;&lt;/b&gt;" style="shape=partialRectangle;connectable=0;fillColor=none;top=0;left=0;bottom=0;right=0;align=left;spacingLeft=6;overflow=hidden;whiteSpace=wrap;html=1;strokeWidth=2;" parent="bemgITp-xIqUBpVqshJo-268" vertex="1">
          <mxGeometry x="37.305572509765625" width="224.69442749023438" height="30" as="geometry">
            <mxRectangle width="224.69442749023438" height="30" as="alternateBounds" />
          </mxGeometry>
        </mxCell>
        <mxCell id="bemgITp-xIqUBpVqshJo-271" value="" style="shape=tableRow;horizontal=0;startSize=0;swimlaneHead=0;swimlaneBody=0;fillColor=none;collapsible=0;dropTarget=0;points=[[0,0.5],[1,0.5]];portConstraint=eastwest;top=0;left=0;right=0;bottom=0;strokeWidth=2;" parent="bemgITp-xIqUBpVqshJo-261" vertex="1">
          <mxGeometry y="139" width="262" height="30" as="geometry" />
        </mxCell>
        <mxCell id="bemgITp-xIqUBpVqshJo-272" value="&lt;b&gt;&lt;font style=&quot;font-size: 20px;&quot;&gt;FK&lt;/font&gt;&lt;/b&gt;" style="shape=partialRectangle;connectable=0;fillColor=none;top=0;left=0;bottom=0;right=0;editable=1;overflow=hidden;whiteSpace=wrap;html=1;strokeWidth=2;" parent="bemgITp-xIqUBpVqshJo-271" vertex="1">
          <mxGeometry width="37.305572509765625" height="30" as="geometry">
            <mxRectangle width="37.305572509765625" height="30" as="alternateBounds" />
          </mxGeometry>
        </mxCell>
        <mxCell id="bemgITp-xIqUBpVqshJo-273" value="&lt;b style=&quot;text-align: center;&quot;&gt;&lt;font style=&quot;font-size: 20px;&quot;&gt;TrackID&lt;/font&gt;&lt;/b&gt;" style="shape=partialRectangle;connectable=0;fillColor=none;top=0;left=0;bottom=0;right=0;align=left;spacingLeft=6;overflow=hidden;whiteSpace=wrap;html=1;strokeWidth=2;" parent="bemgITp-xIqUBpVqshJo-271" vertex="1">
          <mxGeometry x="37.305572509765625" width="224.69442749023438" height="30" as="geometry">
            <mxRectangle width="224.69442749023438" height="30" as="alternateBounds" />
          </mxGeometry>
        </mxCell>
        <mxCell id="bemgITp-xIqUBpVqshJo-340" value="&lt;b style=&quot;text-wrap-mode: wrap;&quot;&gt;&lt;font style=&quot;font-size: 27px;&quot;&gt;StudentExamQuestion&lt;/font&gt;&lt;/b&gt;" style="shape=table;startSize=42;container=1;collapsible=1;childLayout=tableLayout;fixedRows=1;rowLines=0;fontStyle=1;align=center;resizeLast=1;html=1;fillColor=#a20025;fontColor=#ffffff;strokeColor=#6F0000;strokeWidth=2;dashed=1;" parent="1" vertex="1">
          <mxGeometry x="9495" y="4722" width="321" height="261" as="geometry" />
        </mxCell>
        <mxCell id="bemgITp-xIqUBpVqshJo-341" value="" style="shape=tableRow;horizontal=0;startSize=0;swimlaneHead=0;swimlaneBody=0;fillColor=none;collapsible=0;dropTarget=0;points=[[0,0.5],[1,0.5]];portConstraint=eastwest;top=0;left=0;right=0;bottom=1;strokeWidth=2;" parent="bemgITp-xIqUBpVqshJo-340" vertex="1">
          <mxGeometry y="42" width="321" height="37" as="geometry" />
        </mxCell>
        <mxCell id="bemgITp-xIqUBpVqshJo-342" value="&lt;font style=&quot;font-size: 20px;&quot;&gt;PK&lt;/font&gt;" style="shape=partialRectangle;connectable=0;fillColor=none;top=0;left=0;bottom=0;right=0;fontStyle=1;overflow=hidden;whiteSpace=wrap;html=1;strokeWidth=2;" parent="bemgITp-xIqUBpVqshJo-341" vertex="1">
          <mxGeometry width="37.305572509765625" height="37" as="geometry">
            <mxRectangle width="37.305572509765625" height="37" as="alternateBounds" />
          </mxGeometry>
        </mxCell>
        <mxCell id="bemgITp-xIqUBpVqshJo-343" value="&lt;b style=&quot;text-align: center;&quot;&gt;&lt;font style=&quot;font-size: 20px;&quot;&gt;SEQ&lt;/font&gt;&lt;/b&gt;" style="shape=partialRectangle;connectable=0;fillColor=none;top=0;left=0;bottom=0;right=0;align=left;spacingLeft=6;fontStyle=5;overflow=hidden;whiteSpace=wrap;html=1;strokeWidth=2;" parent="bemgITp-xIqUBpVqshJo-341" vertex="1">
          <mxGeometry x="37.305572509765625" width="283.6944274902344" height="37" as="geometry">
            <mxRectangle width="283.6944274902344" height="37" as="alternateBounds" />
          </mxGeometry>
        </mxCell>
        <mxCell id="bemgITp-xIqUBpVqshJo-344" value="" style="shape=tableRow;horizontal=0;startSize=0;swimlaneHead=0;swimlaneBody=0;fillColor=none;collapsible=0;dropTarget=0;points=[[0,0.5],[1,0.5]];portConstraint=eastwest;top=0;left=0;right=0;bottom=0;strokeWidth=2;" parent="bemgITp-xIqUBpVqshJo-340" vertex="1">
          <mxGeometry y="79" width="321" height="30" as="geometry" />
        </mxCell>
        <mxCell id="bemgITp-xIqUBpVqshJo-345" value="&lt;b&gt;&lt;font style=&quot;font-size: 20px;&quot;&gt;FK&lt;/font&gt;&lt;/b&gt;" style="shape=partialRectangle;connectable=0;fillColor=none;top=0;left=0;bottom=0;right=0;editable=1;overflow=hidden;whiteSpace=wrap;html=1;strokeWidth=2;" parent="bemgITp-xIqUBpVqshJo-344" vertex="1">
          <mxGeometry width="37.305572509765625" height="30" as="geometry">
            <mxRectangle width="37.305572509765625" height="30" as="alternateBounds" />
          </mxGeometry>
        </mxCell>
        <mxCell id="bemgITp-xIqUBpVqshJo-346" value="&lt;b style=&quot;text-align: center;&quot;&gt;&lt;font style=&quot;font-size: 20px;&quot;&gt;StudentID&lt;/font&gt;&lt;/b&gt;" style="shape=partialRectangle;connectable=0;fillColor=none;top=0;left=0;bottom=0;right=0;align=left;spacingLeft=6;overflow=hidden;whiteSpace=wrap;html=1;strokeWidth=2;" parent="bemgITp-xIqUBpVqshJo-344" vertex="1">
          <mxGeometry x="37.305572509765625" width="283.6944274902344" height="30" as="geometry">
            <mxRectangle width="283.6944274902344" height="30" as="alternateBounds" />
          </mxGeometry>
        </mxCell>
        <mxCell id="bemgITp-xIqUBpVqshJo-347" value="" style="shape=tableRow;horizontal=0;startSize=0;swimlaneHead=0;swimlaneBody=0;fillColor=none;collapsible=0;dropTarget=0;points=[[0,0.5],[1,0.5]];portConstraint=eastwest;top=0;left=0;right=0;bottom=0;strokeWidth=2;" parent="bemgITp-xIqUBpVqshJo-340" vertex="1">
          <mxGeometry y="109" width="321" height="30" as="geometry" />
        </mxCell>
        <mxCell id="bemgITp-xIqUBpVqshJo-348" value="&lt;b&gt;&lt;font style=&quot;font-size: 20px;&quot;&gt;FK&lt;/font&gt;&lt;/b&gt;" style="shape=partialRectangle;connectable=0;fillColor=none;top=0;left=0;bottom=0;right=0;editable=1;overflow=hidden;whiteSpace=wrap;html=1;strokeWidth=2;" parent="bemgITp-xIqUBpVqshJo-347" vertex="1">
          <mxGeometry width="37.305572509765625" height="30" as="geometry">
            <mxRectangle width="37.305572509765625" height="30" as="alternateBounds" />
          </mxGeometry>
        </mxCell>
        <mxCell id="bemgITp-xIqUBpVqshJo-349" value="&lt;b style=&quot;text-align: center;&quot;&gt;&lt;font style=&quot;font-size: 20px;&quot;&gt;IExamID&lt;/font&gt;&lt;/b&gt;" style="shape=partialRectangle;connectable=0;fillColor=none;top=0;left=0;bottom=0;right=0;align=left;spacingLeft=6;overflow=hidden;whiteSpace=wrap;html=1;strokeWidth=2;" parent="bemgITp-xIqUBpVqshJo-347" vertex="1">
          <mxGeometry x="37.305572509765625" width="283.6944274902344" height="30" as="geometry">
            <mxRectangle width="283.6944274902344" height="30" as="alternateBounds" />
          </mxGeometry>
        </mxCell>
        <mxCell id="bemgITp-xIqUBpVqshJo-350" value="" style="shape=tableRow;horizontal=0;startSize=0;swimlaneHead=0;swimlaneBody=0;fillColor=none;collapsible=0;dropTarget=0;points=[[0,0.5],[1,0.5]];portConstraint=eastwest;top=0;left=0;right=0;bottom=0;strokeWidth=2;" parent="bemgITp-xIqUBpVqshJo-340" vertex="1">
          <mxGeometry y="139" width="321" height="30" as="geometry" />
        </mxCell>
        <mxCell id="bemgITp-xIqUBpVqshJo-351" value="&lt;b&gt;&lt;font style=&quot;font-size: 20px;&quot;&gt;FK&lt;/font&gt;&lt;/b&gt;" style="shape=partialRectangle;connectable=0;fillColor=none;top=0;left=0;bottom=0;right=0;editable=1;overflow=hidden;whiteSpace=wrap;html=1;strokeWidth=2;" parent="bemgITp-xIqUBpVqshJo-350" vertex="1">
          <mxGeometry width="37.305572509765625" height="30" as="geometry">
            <mxRectangle width="37.305572509765625" height="30" as="alternateBounds" />
          </mxGeometry>
        </mxCell>
        <mxCell id="bemgITp-xIqUBpVqshJo-352" value="&lt;b style=&quot;text-align: center;&quot;&gt;&lt;font style=&quot;font-size: 20px;&quot;&gt;QuestionID&lt;/font&gt;&lt;/b&gt;" style="shape=partialRectangle;connectable=0;fillColor=none;top=0;left=0;bottom=0;right=0;align=left;spacingLeft=6;overflow=hidden;whiteSpace=wrap;html=1;strokeWidth=2;" parent="bemgITp-xIqUBpVqshJo-350" vertex="1">
          <mxGeometry x="37.305572509765625" width="283.6944274902344" height="30" as="geometry">
            <mxRectangle width="283.6944274902344" height="30" as="alternateBounds" />
          </mxGeometry>
        </mxCell>
        <mxCell id="bemgITp-xIqUBpVqshJo-353" value="" style="shape=tableRow;horizontal=0;startSize=0;swimlaneHead=0;swimlaneBody=0;fillColor=none;collapsible=0;dropTarget=0;points=[[0,0.5],[1,0.5]];portConstraint=eastwest;top=0;left=0;right=0;bottom=0;strokeWidth=2;" parent="bemgITp-xIqUBpVqshJo-340" vertex="1">
          <mxGeometry y="169" width="321" height="30" as="geometry" />
        </mxCell>
        <mxCell id="bemgITp-xIqUBpVqshJo-354" value="" style="shape=partialRectangle;connectable=0;fillColor=none;top=0;left=0;bottom=0;right=0;editable=1;overflow=hidden;whiteSpace=wrap;html=1;strokeWidth=2;" parent="bemgITp-xIqUBpVqshJo-353" vertex="1">
          <mxGeometry width="37.305572509765625" height="30" as="geometry">
            <mxRectangle width="37.305572509765625" height="30" as="alternateBounds" />
          </mxGeometry>
        </mxCell>
        <mxCell id="bemgITp-xIqUBpVqshJo-355" value="&lt;b style=&quot;text-align: center;&quot;&gt;&lt;font style=&quot;font-size: 20px;&quot;&gt;StudentQAnswer&lt;/font&gt;&lt;/b&gt;" style="shape=partialRectangle;connectable=0;fillColor=none;top=0;left=0;bottom=0;right=0;align=left;spacingLeft=6;overflow=hidden;whiteSpace=wrap;html=1;strokeWidth=2;" parent="bemgITp-xIqUBpVqshJo-353" vertex="1">
          <mxGeometry x="37.305572509765625" width="283.6944274902344" height="30" as="geometry">
            <mxRectangle width="283.6944274902344" height="30" as="alternateBounds" />
          </mxGeometry>
        </mxCell>
        <mxCell id="bemgITp-xIqUBpVqshJo-359" value="" style="shape=tableRow;horizontal=0;startSize=0;swimlaneHead=0;swimlaneBody=0;fillColor=none;collapsible=0;dropTarget=0;points=[[0,0.5],[1,0.5]];portConstraint=eastwest;top=0;left=0;right=0;bottom=0;strokeWidth=2;" parent="bemgITp-xIqUBpVqshJo-340" vertex="1">
          <mxGeometry y="199" width="321" height="30" as="geometry" />
        </mxCell>
        <mxCell id="bemgITp-xIqUBpVqshJo-360" value="" style="shape=partialRectangle;connectable=0;fillColor=none;top=0;left=0;bottom=0;right=0;editable=1;overflow=hidden;whiteSpace=wrap;html=1;strokeWidth=2;" parent="bemgITp-xIqUBpVqshJo-359" vertex="1">
          <mxGeometry width="37.305572509765625" height="30" as="geometry">
            <mxRectangle width="37.305572509765625" height="30" as="alternateBounds" />
          </mxGeometry>
        </mxCell>
        <mxCell id="bemgITp-xIqUBpVqshJo-361" value="&lt;b style=&quot;text-align: center;&quot;&gt;&lt;font style=&quot;font-size: 20px;&quot;&gt;StudentQGrade&lt;/font&gt;&lt;/b&gt;" style="shape=partialRectangle;connectable=0;fillColor=none;top=0;left=0;bottom=0;right=0;align=left;spacingLeft=6;overflow=hidden;whiteSpace=wrap;html=1;strokeWidth=2;" parent="bemgITp-xIqUBpVqshJo-359" vertex="1">
          <mxGeometry x="37.305572509765625" width="283.6944274902344" height="30" as="geometry">
            <mxRectangle width="283.6944274902344" height="30" as="alternateBounds" />
          </mxGeometry>
        </mxCell>
        <mxCell id="bemgITp-xIqUBpVqshJo-356" value="" style="shape=tableRow;horizontal=0;startSize=0;swimlaneHead=0;swimlaneBody=0;fillColor=none;collapsible=0;dropTarget=0;points=[[0,0.5],[1,0.5]];portConstraint=eastwest;top=0;left=0;right=0;bottom=0;strokeWidth=2;" parent="bemgITp-xIqUBpVqshJo-340" vertex="1">
          <mxGeometry y="229" width="321" height="30" as="geometry" />
        </mxCell>
        <mxCell id="bemgITp-xIqUBpVqshJo-357" value="" style="shape=partialRectangle;connectable=0;fillColor=none;top=0;left=0;bottom=0;right=0;editable=1;overflow=hidden;whiteSpace=wrap;html=1;strokeWidth=2;" parent="bemgITp-xIqUBpVqshJo-356" vertex="1">
          <mxGeometry width="37.305572509765625" height="30" as="geometry">
            <mxRectangle width="37.305572509765625" height="30" as="alternateBounds" />
          </mxGeometry>
        </mxCell>
        <mxCell id="bemgITp-xIqUBpVqshJo-358" value="&lt;b style=&quot;text-align: center;&quot;&gt;&lt;font style=&quot;font-size: 20px;&quot;&gt;AnswerISValid&lt;/font&gt;&lt;/b&gt;" style="shape=partialRectangle;connectable=0;fillColor=none;top=0;left=0;bottom=0;right=0;align=left;spacingLeft=6;overflow=hidden;whiteSpace=wrap;html=1;strokeWidth=2;" parent="bemgITp-xIqUBpVqshJo-356" vertex="1">
          <mxGeometry x="37.305572509765625" width="283.6944274902344" height="30" as="geometry">
            <mxRectangle width="283.6944274902344" height="30" as="alternateBounds" />
          </mxGeometry>
        </mxCell>
        <mxCell id="bemgITp-xIqUBpVqshJo-409" value="&lt;b style=&quot;text-wrap-mode: wrap;&quot;&gt;&lt;font style=&quot;font-size: 27px;&quot;&gt;StudentExam&lt;/font&gt;&lt;/b&gt;" style="shape=table;startSize=42;container=1;collapsible=1;childLayout=tableLayout;fixedRows=1;rowLines=0;fontStyle=1;align=center;resizeLast=1;html=1;fillColor=#a20025;fontColor=#ffffff;strokeColor=#6F0000;strokeWidth=2;" parent="1" vertex="1">
          <mxGeometry x="9061" y="3340" width="262" height="271" as="geometry" />
        </mxCell>
        <mxCell id="bemgITp-xIqUBpVqshJo-410" value="" style="shape=tableRow;horizontal=0;startSize=0;swimlaneHead=0;swimlaneBody=0;fillColor=none;collapsible=0;dropTarget=0;points=[[0,0.5],[1,0.5]];portConstraint=eastwest;top=0;left=0;right=0;bottom=1;strokeWidth=2;" parent="bemgITp-xIqUBpVqshJo-409" vertex="1">
          <mxGeometry y="42" width="262" height="37" as="geometry" />
        </mxCell>
        <mxCell id="bemgITp-xIqUBpVqshJo-411" value="&lt;font style=&quot;font-size: 20px;&quot;&gt;PK&lt;/font&gt;" style="shape=partialRectangle;connectable=0;fillColor=none;top=0;left=0;bottom=0;right=0;fontStyle=1;overflow=hidden;whiteSpace=wrap;html=1;strokeWidth=2;" parent="bemgITp-xIqUBpVqshJo-410" vertex="1">
          <mxGeometry width="41.928641183036234" height="37" as="geometry">
            <mxRectangle width="41.928641183036234" height="37" as="alternateBounds" />
          </mxGeometry>
        </mxCell>
        <mxCell id="bemgITp-xIqUBpVqshJo-412" value="&lt;b style=&quot;text-align: center;&quot;&gt;&lt;font style=&quot;font-size: 20px;&quot;&gt;StudentID&lt;/font&gt;&lt;/b&gt;" style="shape=partialRectangle;connectable=0;fillColor=none;top=0;left=0;bottom=0;right=0;align=left;spacingLeft=6;fontStyle=5;overflow=hidden;whiteSpace=wrap;html=1;strokeWidth=2;" parent="bemgITp-xIqUBpVqshJo-410" vertex="1">
          <mxGeometry x="41.928641183036234" width="220.07135881696377" height="37" as="geometry">
            <mxRectangle width="220.07135881696377" height="37" as="alternateBounds" />
          </mxGeometry>
        </mxCell>
        <mxCell id="bemgITp-xIqUBpVqshJo-413" value="" style="shape=tableRow;horizontal=0;startSize=0;swimlaneHead=0;swimlaneBody=0;fillColor=none;collapsible=0;dropTarget=0;points=[[0,0.5],[1,0.5]];portConstraint=eastwest;top=0;left=0;right=0;bottom=0;strokeWidth=2;" parent="bemgITp-xIqUBpVqshJo-409" vertex="1">
          <mxGeometry y="79" width="262" height="30" as="geometry" />
        </mxCell>
        <mxCell id="bemgITp-xIqUBpVqshJo-414" value="&lt;b&gt;&lt;font style=&quot;font-size: 20px;&quot;&gt;FK&lt;/font&gt;&lt;/b&gt;" style="shape=partialRectangle;connectable=0;fillColor=none;top=0;left=0;bottom=0;right=0;editable=1;overflow=hidden;whiteSpace=wrap;html=1;strokeWidth=2;" parent="bemgITp-xIqUBpVqshJo-413" vertex="1">
          <mxGeometry width="41.928641183036234" height="30" as="geometry">
            <mxRectangle width="41.928641183036234" height="30" as="alternateBounds" />
          </mxGeometry>
        </mxCell>
        <mxCell id="bemgITp-xIqUBpVqshJo-415" value="&lt;b&gt;&lt;font style=&quot;font-size: 20px;&quot;&gt;ExamID&lt;/font&gt;&lt;/b&gt;" style="shape=partialRectangle;connectable=0;fillColor=none;top=0;left=0;bottom=0;right=0;align=left;spacingLeft=6;overflow=hidden;whiteSpace=wrap;html=1;strokeWidth=2;" parent="bemgITp-xIqUBpVqshJo-413" vertex="1">
          <mxGeometry x="41.928641183036234" width="220.07135881696377" height="30" as="geometry">
            <mxRectangle width="220.07135881696377" height="30" as="alternateBounds" />
          </mxGeometry>
        </mxCell>
        <mxCell id="bemgITp-xIqUBpVqshJo-416" value="" style="shape=tableRow;horizontal=0;startSize=0;swimlaneHead=0;swimlaneBody=0;fillColor=none;collapsible=0;dropTarget=0;points=[[0,0.5],[1,0.5]];portConstraint=eastwest;top=0;left=0;right=0;bottom=0;strokeWidth=2;" parent="bemgITp-xIqUBpVqshJo-409" vertex="1">
          <mxGeometry y="109" width="262" height="30" as="geometry" />
        </mxCell>
        <mxCell id="bemgITp-xIqUBpVqshJo-417" value="&lt;b&gt;&lt;font style=&quot;font-size: 20px;&quot;&gt;FK&lt;/font&gt;&lt;/b&gt;" style="shape=partialRectangle;connectable=0;fillColor=none;top=0;left=0;bottom=0;right=0;editable=1;overflow=hidden;whiteSpace=wrap;html=1;strokeWidth=2;" parent="bemgITp-xIqUBpVqshJo-416" vertex="1">
          <mxGeometry width="41.928641183036234" height="30" as="geometry">
            <mxRectangle width="41.928641183036234" height="30" as="alternateBounds" />
          </mxGeometry>
        </mxCell>
        <mxCell id="bemgITp-xIqUBpVqshJo-418" value="&lt;b style=&quot;text-align: center;&quot;&gt;&lt;font style=&quot;font-size: 20px;&quot;&gt;StudentID&lt;/font&gt;&lt;/b&gt;" style="shape=partialRectangle;connectable=0;fillColor=none;top=0;left=0;bottom=0;right=0;align=left;spacingLeft=6;overflow=hidden;whiteSpace=wrap;html=1;strokeWidth=2;" parent="bemgITp-xIqUBpVqshJo-416" vertex="1">
          <mxGeometry x="41.928641183036234" width="220.07135881696377" height="30" as="geometry">
            <mxRectangle width="220.07135881696377" height="30" as="alternateBounds" />
          </mxGeometry>
        </mxCell>
        <mxCell id="bemgITp-xIqUBpVqshJo-419" value="" style="shape=tableRow;horizontal=0;startSize=0;swimlaneHead=0;swimlaneBody=0;fillColor=none;collapsible=0;dropTarget=0;points=[[0,0.5],[1,0.5]];portConstraint=eastwest;top=0;left=0;right=0;bottom=0;strokeWidth=2;" parent="bemgITp-xIqUBpVqshJo-409" vertex="1">
          <mxGeometry y="139" width="262" height="30" as="geometry" />
        </mxCell>
        <mxCell id="bemgITp-xIqUBpVqshJo-420" value="" style="shape=partialRectangle;connectable=0;fillColor=none;top=0;left=0;bottom=0;right=0;editable=1;overflow=hidden;whiteSpace=wrap;html=1;strokeWidth=2;" parent="bemgITp-xIqUBpVqshJo-419" vertex="1">
          <mxGeometry width="41.928641183036234" height="30" as="geometry">
            <mxRectangle width="41.928641183036234" height="30" as="alternateBounds" />
          </mxGeometry>
        </mxCell>
        <mxCell id="bemgITp-xIqUBpVqshJo-421" value="&lt;b style=&quot;text-align: center;&quot;&gt;&lt;font style=&quot;font-size: 20px;&quot;&gt;ExamDate&lt;/font&gt;&lt;/b&gt;" style="shape=partialRectangle;connectable=0;fillColor=none;top=0;left=0;bottom=0;right=0;align=left;spacingLeft=6;overflow=hidden;whiteSpace=wrap;html=1;strokeWidth=2;" parent="bemgITp-xIqUBpVqshJo-419" vertex="1">
          <mxGeometry x="41.928641183036234" width="220.07135881696377" height="30" as="geometry">
            <mxRectangle width="220.07135881696377" height="30" as="alternateBounds" />
          </mxGeometry>
        </mxCell>
        <mxCell id="bemgITp-xIqUBpVqshJo-422" value="" style="shape=tableRow;horizontal=0;startSize=0;swimlaneHead=0;swimlaneBody=0;fillColor=none;collapsible=0;dropTarget=0;points=[[0,0.5],[1,0.5]];portConstraint=eastwest;top=0;left=0;right=0;bottom=0;strokeWidth=2;" parent="bemgITp-xIqUBpVqshJo-409" vertex="1">
          <mxGeometry y="169" width="262" height="30" as="geometry" />
        </mxCell>
        <mxCell id="bemgITp-xIqUBpVqshJo-423" value="" style="shape=partialRectangle;connectable=0;fillColor=none;top=0;left=0;bottom=0;right=0;editable=1;overflow=hidden;whiteSpace=wrap;html=1;strokeWidth=2;" parent="bemgITp-xIqUBpVqshJo-422" vertex="1">
          <mxGeometry width="41.928641183036234" height="30" as="geometry">
            <mxRectangle width="41.928641183036234" height="30" as="alternateBounds" />
          </mxGeometry>
        </mxCell>
        <mxCell id="bemgITp-xIqUBpVqshJo-424" value="&lt;b style=&quot;text-align: center;&quot;&gt;&lt;font style=&quot;font-size: 20px;&quot;&gt;StartTime&lt;/font&gt;&lt;/b&gt;" style="shape=partialRectangle;connectable=0;fillColor=none;top=0;left=0;bottom=0;right=0;align=left;spacingLeft=6;overflow=hidden;whiteSpace=wrap;html=1;strokeWidth=2;" parent="bemgITp-xIqUBpVqshJo-422" vertex="1">
          <mxGeometry x="41.928641183036234" width="220.07135881696377" height="30" as="geometry">
            <mxRectangle width="220.07135881696377" height="30" as="alternateBounds" />
          </mxGeometry>
        </mxCell>
        <mxCell id="bemgITp-xIqUBpVqshJo-425" value="" style="shape=tableRow;horizontal=0;startSize=0;swimlaneHead=0;swimlaneBody=0;fillColor=none;collapsible=0;dropTarget=0;points=[[0,0.5],[1,0.5]];portConstraint=eastwest;top=0;left=0;right=0;bottom=0;strokeWidth=2;" parent="bemgITp-xIqUBpVqshJo-409" vertex="1">
          <mxGeometry y="199" width="262" height="36" as="geometry" />
        </mxCell>
        <mxCell id="bemgITp-xIqUBpVqshJo-426" value="" style="shape=partialRectangle;connectable=0;fillColor=none;top=0;left=0;bottom=0;right=0;editable=1;overflow=hidden;whiteSpace=wrap;html=1;strokeWidth=2;" parent="bemgITp-xIqUBpVqshJo-425" vertex="1">
          <mxGeometry width="41.928641183036234" height="36" as="geometry">
            <mxRectangle width="41.928641183036234" height="36" as="alternateBounds" />
          </mxGeometry>
        </mxCell>
        <mxCell id="bemgITp-xIqUBpVqshJo-427" value="&lt;b style=&quot;text-align: center;&quot;&gt;&lt;font style=&quot;font-size: 20px;&quot;&gt;EndTime&lt;/font&gt;&lt;/b&gt;" style="shape=partialRectangle;connectable=0;fillColor=none;top=0;left=0;bottom=0;right=0;align=left;spacingLeft=6;overflow=hidden;whiteSpace=wrap;html=1;strokeWidth=2;" parent="bemgITp-xIqUBpVqshJo-425" vertex="1">
          <mxGeometry x="41.928641183036234" width="220.07135881696377" height="36" as="geometry">
            <mxRectangle width="220.07135881696377" height="36" as="alternateBounds" />
          </mxGeometry>
        </mxCell>
        <mxCell id="bemgITp-xIqUBpVqshJo-428" value="" style="shape=tableRow;horizontal=0;startSize=0;swimlaneHead=0;swimlaneBody=0;fillColor=none;collapsible=0;dropTarget=0;points=[[0,0.5],[1,0.5]];portConstraint=eastwest;top=0;left=0;right=0;bottom=0;strokeWidth=2;" parent="bemgITp-xIqUBpVqshJo-409" vertex="1">
          <mxGeometry y="235" width="262" height="36" as="geometry" />
        </mxCell>
        <mxCell id="bemgITp-xIqUBpVqshJo-429" value="" style="shape=partialRectangle;connectable=0;fillColor=none;top=0;left=0;bottom=0;right=0;editable=1;overflow=hidden;whiteSpace=wrap;html=1;strokeWidth=2;" parent="bemgITp-xIqUBpVqshJo-428" vertex="1">
          <mxGeometry width="41.928641183036234" height="36" as="geometry">
            <mxRectangle width="41.928641183036234" height="36" as="alternateBounds" />
          </mxGeometry>
        </mxCell>
        <mxCell id="bemgITp-xIqUBpVqshJo-430" value="&lt;b style=&quot;text-align: center;&quot;&gt;&lt;font style=&quot;font-size: 20px;&quot;&gt;StudentGrade&lt;/font&gt;&lt;/b&gt;" style="shape=partialRectangle;connectable=0;fillColor=none;top=0;left=0;bottom=0;right=0;align=left;spacingLeft=6;overflow=hidden;whiteSpace=wrap;html=1;strokeWidth=2;" parent="bemgITp-xIqUBpVqshJo-428" vertex="1">
          <mxGeometry x="41.928641183036234" width="220.07135881696377" height="36" as="geometry">
            <mxRectangle width="220.07135881696377" height="36" as="alternateBounds" />
          </mxGeometry>
        </mxCell>
        <mxCell id="bemgITp-xIqUBpVqshJo-440" value="&lt;b style=&quot;text-wrap-mode: wrap;&quot;&gt;&lt;font style=&quot;font-size: 27px;&quot;&gt;TextQuestion&lt;/font&gt;&lt;/b&gt;" style="shape=table;startSize=39;container=1;collapsible=1;childLayout=tableLayout;fixedRows=1;rowLines=0;fontStyle=1;align=center;resizeLast=1;html=1;fillColor=#a20025;fontColor=#ffffff;strokeColor=#6F0000;strokeWidth=2;" parent="1" vertex="1">
          <mxGeometry x="8383" y="4418" width="306" height="131.9168090820317" as="geometry" />
        </mxCell>
        <mxCell id="bemgITp-xIqUBpVqshJo-441" value="" style="shape=tableRow;horizontal=0;startSize=0;swimlaneHead=0;swimlaneBody=0;fillColor=none;collapsible=0;dropTarget=0;points=[[0,0.5],[1,0.5]];portConstraint=eastwest;top=0;left=0;right=0;bottom=1;strokeWidth=2;" parent="bemgITp-xIqUBpVqshJo-440" vertex="1">
          <mxGeometry y="39" width="306" height="42" as="geometry" />
        </mxCell>
        <mxCell id="bemgITp-xIqUBpVqshJo-442" value="&lt;font style=&quot;font-size: 20px;&quot;&gt;PK,FK&lt;/font&gt;" style="shape=partialRectangle;connectable=0;fillColor=none;top=0;left=0;bottom=0;right=0;fontStyle=1;overflow=hidden;whiteSpace=wrap;html=1;strokeWidth=2;" parent="bemgITp-xIqUBpVqshJo-441" vertex="1">
          <mxGeometry width="95.91662089030069" height="42" as="geometry">
            <mxRectangle width="95.91662089030069" height="42" as="alternateBounds" />
          </mxGeometry>
        </mxCell>
        <mxCell id="bemgITp-xIqUBpVqshJo-443" value="&lt;b style=&quot;text-align: center;&quot;&gt;&lt;font style=&quot;font-size: 20px;&quot;&gt;QuestionID&lt;/font&gt;&lt;/b&gt;" style="shape=partialRectangle;connectable=0;fillColor=none;top=0;left=0;bottom=0;right=0;align=left;spacingLeft=6;fontStyle=5;overflow=hidden;whiteSpace=wrap;html=1;strokeWidth=2;" parent="bemgITp-xIqUBpVqshJo-441" vertex="1">
          <mxGeometry x="95.91662089030069" width="210.0833791096993" height="42" as="geometry">
            <mxRectangle width="210.0833791096993" height="42" as="alternateBounds" />
          </mxGeometry>
        </mxCell>
        <mxCell id="bemgITp-xIqUBpVqshJo-444" value="" style="shape=tableRow;horizontal=0;startSize=0;swimlaneHead=0;swimlaneBody=0;fillColor=none;collapsible=0;dropTarget=0;points=[[0,0.5],[1,0.5]];portConstraint=eastwest;top=0;left=0;right=0;bottom=0;strokeWidth=2;" parent="bemgITp-xIqUBpVqshJo-440" vertex="1">
          <mxGeometry y="81" width="306" height="42" as="geometry" />
        </mxCell>
        <mxCell id="bemgITp-xIqUBpVqshJo-445" value="" style="shape=partialRectangle;connectable=0;fillColor=none;top=0;left=0;bottom=0;right=0;editable=1;overflow=hidden;whiteSpace=wrap;html=1;strokeWidth=2;" parent="bemgITp-xIqUBpVqshJo-444" vertex="1">
          <mxGeometry width="95.91662089030069" height="42" as="geometry">
            <mxRectangle width="95.91662089030069" height="42" as="alternateBounds" />
          </mxGeometry>
        </mxCell>
        <mxCell id="bemgITp-xIqUBpVqshJo-446" value="&lt;b style=&quot;text-align: center;&quot;&gt;&lt;font style=&quot;font-size: 20px;&quot;&gt;BestTextAnswer&lt;/font&gt;&lt;/b&gt;" style="shape=partialRectangle;connectable=0;fillColor=none;top=0;left=0;bottom=0;right=0;align=left;spacingLeft=6;overflow=hidden;whiteSpace=wrap;html=1;strokeWidth=2;" parent="bemgITp-xIqUBpVqshJo-444" vertex="1">
          <mxGeometry x="95.91662089030069" width="210.0833791096993" height="42" as="geometry">
            <mxRectangle width="210.0833791096993" height="42" as="alternateBounds" />
          </mxGeometry>
        </mxCell>
        <mxCell id="bemgITp-xIqUBpVqshJo-450" value="&lt;b&gt;&lt;font style=&quot;font-size: 27px;&quot;&gt;ExamQuestion&lt;/font&gt;&lt;/b&gt;" style="shape=table;startSize=43;container=1;collapsible=1;childLayout=tableLayout;fixedRows=1;rowLines=0;fontStyle=1;align=center;resizeLast=1;html=1;whiteSpace=wrap;fillColor=#a20025;fontColor=#ffffff;strokeColor=#6F0000;strokeWidth=2;" parent="1" vertex="1">
          <mxGeometry x="9513" y="2945" width="261" height="123" as="geometry" />
        </mxCell>
        <mxCell id="bemgITp-xIqUBpVqshJo-451" value="" style="shape=tableRow;horizontal=0;startSize=0;swimlaneHead=0;swimlaneBody=0;fillColor=none;collapsible=0;dropTarget=0;points=[[0,0.5],[1,0.5]];portConstraint=eastwest;top=0;left=0;right=0;bottom=0;html=1;strokeWidth=2;" parent="bemgITp-xIqUBpVqshJo-450" vertex="1">
          <mxGeometry y="43" width="261" height="30" as="geometry" />
        </mxCell>
        <mxCell id="bemgITp-xIqUBpVqshJo-452" value="&lt;font style=&quot;font-size: 20px;&quot;&gt;PK,FK&lt;/font&gt;" style="shape=partialRectangle;connectable=0;fillColor=none;top=0;left=0;bottom=0;right=0;fontStyle=1;overflow=hidden;html=1;whiteSpace=wrap;strokeWidth=2;" parent="bemgITp-xIqUBpVqshJo-451" vertex="1">
          <mxGeometry width="69.28577822730585" height="30" as="geometry">
            <mxRectangle width="69.28577822730585" height="30" as="alternateBounds" />
          </mxGeometry>
        </mxCell>
        <mxCell id="bemgITp-xIqUBpVqshJo-453" value="&lt;font style=&quot;font-size: 20px;&quot;&gt;ExamID&lt;/font&gt;" style="shape=partialRectangle;connectable=0;fillColor=none;top=0;left=0;bottom=0;right=0;align=left;spacingLeft=6;fontStyle=5;overflow=hidden;html=1;whiteSpace=wrap;strokeWidth=2;" parent="bemgITp-xIqUBpVqshJo-451" vertex="1">
          <mxGeometry x="69.28577822730585" width="191.71422177269415" height="30" as="geometry">
            <mxRectangle width="191.71422177269415" height="30" as="alternateBounds" />
          </mxGeometry>
        </mxCell>
        <mxCell id="bemgITp-xIqUBpVqshJo-454" value="" style="shape=tableRow;horizontal=0;startSize=0;swimlaneHead=0;swimlaneBody=0;fillColor=none;collapsible=0;dropTarget=0;points=[[0,0.5],[1,0.5]];portConstraint=eastwest;top=0;left=0;right=0;bottom=1;html=1;strokeWidth=2;" parent="bemgITp-xIqUBpVqshJo-450" vertex="1">
          <mxGeometry y="73" width="261" height="50" as="geometry" />
        </mxCell>
        <mxCell id="bemgITp-xIqUBpVqshJo-455" value="&lt;font style=&quot;font-size: 20px;&quot;&gt;PK,FK&lt;/font&gt;" style="shape=partialRectangle;connectable=0;fillColor=none;top=0;left=0;bottom=0;right=0;fontStyle=1;overflow=hidden;html=1;whiteSpace=wrap;strokeWidth=2;" parent="bemgITp-xIqUBpVqshJo-454" vertex="1">
          <mxGeometry width="69.28577822730585" height="50" as="geometry">
            <mxRectangle width="69.28577822730585" height="50" as="alternateBounds" />
          </mxGeometry>
        </mxCell>
        <mxCell id="bemgITp-xIqUBpVqshJo-456" value="&lt;font style=&quot;font-size: 20px;&quot;&gt;QuestionID&lt;/font&gt;" style="shape=partialRectangle;connectable=0;fillColor=none;top=0;left=0;bottom=0;right=0;align=left;spacingLeft=6;fontStyle=5;overflow=hidden;html=1;whiteSpace=wrap;strokeWidth=2;" parent="bemgITp-xIqUBpVqshJo-454" vertex="1">
          <mxGeometry x="69.28577822730585" width="191.71422177269415" height="50" as="geometry">
            <mxRectangle width="191.71422177269415" height="50" as="alternateBounds" />
          </mxGeometry>
        </mxCell>
        <mxCell id="bemgITp-xIqUBpVqshJo-463" value="&lt;b style=&quot;text-wrap-mode: wrap;&quot;&gt;&lt;font style=&quot;font-size: 27px;&quot;&gt;Choices&lt;/font&gt;&lt;/b&gt;" style="shape=table;startSize=39;container=1;collapsible=1;childLayout=tableLayout;fixedRows=1;rowLines=0;fontStyle=1;align=center;resizeLast=1;html=1;fillColor=#a20025;fontColor=#ffffff;strokeColor=#6F0000;strokeWidth=2;" parent="1" vertex="1">
          <mxGeometry x="9548" y="4411" width="259" height="204" as="geometry" />
        </mxCell>
        <mxCell id="bemgITp-xIqUBpVqshJo-464" value="" style="shape=tableRow;horizontal=0;startSize=0;swimlaneHead=0;swimlaneBody=0;fillColor=none;collapsible=0;dropTarget=0;points=[[0,0.5],[1,0.5]];portConstraint=eastwest;top=0;left=0;right=0;bottom=1;strokeWidth=2;" parent="bemgITp-xIqUBpVqshJo-463" vertex="1">
          <mxGeometry y="39" width="259" height="37" as="geometry" />
        </mxCell>
        <mxCell id="bemgITp-xIqUBpVqshJo-465" value="&lt;font style=&quot;font-size: 20px;&quot;&gt;PK&lt;/font&gt;" style="shape=partialRectangle;connectable=0;fillColor=none;top=0;left=0;bottom=0;right=0;fontStyle=1;overflow=hidden;whiteSpace=wrap;html=1;strokeWidth=2;" parent="bemgITp-xIqUBpVqshJo-464" vertex="1">
          <mxGeometry width="41.928641183036234" height="37" as="geometry">
            <mxRectangle width="41.928641183036234" height="37" as="alternateBounds" />
          </mxGeometry>
        </mxCell>
        <mxCell id="bemgITp-xIqUBpVqshJo-466" value="&lt;b style=&quot;text-align: center;&quot;&gt;&lt;font style=&quot;font-size: 20px;&quot;&gt;ChoiceID&lt;/font&gt;&lt;/b&gt;" style="shape=partialRectangle;connectable=0;fillColor=none;top=0;left=0;bottom=0;right=0;align=left;spacingLeft=6;fontStyle=5;overflow=hidden;whiteSpace=wrap;html=1;strokeWidth=2;" parent="bemgITp-xIqUBpVqshJo-464" vertex="1">
          <mxGeometry x="41.928641183036234" width="217.07135881696377" height="37" as="geometry">
            <mxRectangle width="217.07135881696377" height="37" as="alternateBounds" />
          </mxGeometry>
        </mxCell>
        <mxCell id="bemgITp-xIqUBpVqshJo-467" value="" style="shape=tableRow;horizontal=0;startSize=0;swimlaneHead=0;swimlaneBody=0;fillColor=none;collapsible=0;dropTarget=0;points=[[0,0.5],[1,0.5]];portConstraint=eastwest;top=0;left=0;right=0;bottom=0;strokeWidth=2;" parent="bemgITp-xIqUBpVqshJo-463" vertex="1">
          <mxGeometry y="76" width="259" height="30" as="geometry" />
        </mxCell>
        <mxCell id="bemgITp-xIqUBpVqshJo-468" value="&lt;b&gt;&lt;font style=&quot;font-size: 20px;&quot;&gt;FK&lt;/font&gt;&lt;/b&gt;" style="shape=partialRectangle;connectable=0;fillColor=none;top=0;left=0;bottom=0;right=0;editable=1;overflow=hidden;whiteSpace=wrap;html=1;strokeWidth=2;" parent="bemgITp-xIqUBpVqshJo-467" vertex="1">
          <mxGeometry width="41.928641183036234" height="30" as="geometry">
            <mxRectangle width="41.928641183036234" height="30" as="alternateBounds" />
          </mxGeometry>
        </mxCell>
        <mxCell id="bemgITp-xIqUBpVqshJo-469" value="&lt;b style=&quot;text-align: center;&quot;&gt;&lt;font style=&quot;font-size: 20px;&quot;&gt;QuestionID&lt;/font&gt;&lt;/b&gt;" style="shape=partialRectangle;connectable=0;fillColor=none;top=0;left=0;bottom=0;right=0;align=left;spacingLeft=6;overflow=hidden;whiteSpace=wrap;html=1;strokeWidth=2;" parent="bemgITp-xIqUBpVqshJo-467" vertex="1">
          <mxGeometry x="41.928641183036234" width="217.07135881696377" height="30" as="geometry">
            <mxRectangle width="217.07135881696377" height="30" as="alternateBounds" />
          </mxGeometry>
        </mxCell>
        <mxCell id="bemgITp-xIqUBpVqshJo-470" value="" style="shape=tableRow;horizontal=0;startSize=0;swimlaneHead=0;swimlaneBody=0;fillColor=none;collapsible=0;dropTarget=0;points=[[0,0.5],[1,0.5]];portConstraint=eastwest;top=0;left=0;right=0;bottom=0;strokeWidth=2;" parent="bemgITp-xIqUBpVqshJo-463" vertex="1">
          <mxGeometry y="106" width="259" height="33" as="geometry" />
        </mxCell>
        <mxCell id="bemgITp-xIqUBpVqshJo-471" value="" style="shape=partialRectangle;connectable=0;fillColor=none;top=0;left=0;bottom=0;right=0;editable=1;overflow=hidden;whiteSpace=wrap;html=1;strokeWidth=2;" parent="bemgITp-xIqUBpVqshJo-470" vertex="1">
          <mxGeometry width="41.928641183036234" height="33" as="geometry">
            <mxRectangle width="41.928641183036234" height="33" as="alternateBounds" />
          </mxGeometry>
        </mxCell>
        <mxCell id="bemgITp-xIqUBpVqshJo-472" value="&lt;b style=&quot;text-align: center;&quot;&gt;&lt;font style=&quot;font-size: 20px;&quot;&gt;ChoiceText&lt;/font&gt;&lt;/b&gt;" style="shape=partialRectangle;connectable=0;fillColor=none;top=0;left=0;bottom=0;right=0;align=left;spacingLeft=6;overflow=hidden;whiteSpace=wrap;html=1;strokeWidth=2;" parent="bemgITp-xIqUBpVqshJo-470" vertex="1">
          <mxGeometry x="41.928641183036234" width="217.07135881696377" height="33" as="geometry">
            <mxRectangle width="217.07135881696377" height="33" as="alternateBounds" />
          </mxGeometry>
        </mxCell>
        <mxCell id="bemgITp-xIqUBpVqshJo-473" value="" style="shape=tableRow;horizontal=0;startSize=0;swimlaneHead=0;swimlaneBody=0;fillColor=none;collapsible=0;dropTarget=0;points=[[0,0.5],[1,0.5]];portConstraint=eastwest;top=0;left=0;right=0;bottom=0;strokeWidth=2;" parent="bemgITp-xIqUBpVqshJo-463" vertex="1">
          <mxGeometry y="139" width="259" height="30" as="geometry" />
        </mxCell>
        <mxCell id="bemgITp-xIqUBpVqshJo-474" value="" style="shape=partialRectangle;connectable=0;fillColor=none;top=0;left=0;bottom=0;right=0;editable=1;overflow=hidden;whiteSpace=wrap;html=1;strokeWidth=2;" parent="bemgITp-xIqUBpVqshJo-473" vertex="1">
          <mxGeometry width="41.928641183036234" height="30" as="geometry">
            <mxRectangle width="41.928641183036234" height="30" as="alternateBounds" />
          </mxGeometry>
        </mxCell>
        <mxCell id="bemgITp-xIqUBpVqshJo-475" value="&lt;b style=&quot;text-align: center;&quot;&gt;&lt;font style=&quot;font-size: 20px;&quot;&gt;IsCorrect&lt;/font&gt;&lt;/b&gt;" style="shape=partialRectangle;connectable=0;fillColor=none;top=0;left=0;bottom=0;right=0;align=left;spacingLeft=6;overflow=hidden;whiteSpace=wrap;html=1;strokeWidth=2;" parent="bemgITp-xIqUBpVqshJo-473" vertex="1">
          <mxGeometry x="41.928641183036234" width="217.07135881696377" height="30" as="geometry">
            <mxRectangle width="217.07135881696377" height="30" as="alternateBounds" />
          </mxGeometry>
        </mxCell>
        <mxCell id="bemgITp-xIqUBpVqshJo-476" value="" style="shape=tableRow;horizontal=0;startSize=0;swimlaneHead=0;swimlaneBody=0;fillColor=none;collapsible=0;dropTarget=0;points=[[0,0.5],[1,0.5]];portConstraint=eastwest;top=0;left=0;right=0;bottom=0;strokeWidth=2;" parent="bemgITp-xIqUBpVqshJo-463" vertex="1">
          <mxGeometry y="169" width="259" height="35" as="geometry" />
        </mxCell>
        <mxCell id="bemgITp-xIqUBpVqshJo-477" value="" style="shape=partialRectangle;connectable=0;fillColor=none;top=0;left=0;bottom=0;right=0;editable=1;overflow=hidden;whiteSpace=wrap;html=1;strokeWidth=2;" parent="bemgITp-xIqUBpVqshJo-476" vertex="1">
          <mxGeometry width="41.928641183036234" height="35" as="geometry">
            <mxRectangle width="41.928641183036234" height="35" as="alternateBounds" />
          </mxGeometry>
        </mxCell>
        <mxCell id="bemgITp-xIqUBpVqshJo-478" value="&lt;b style=&quot;text-align: center;&quot;&gt;&lt;font style=&quot;font-size: 20px;&quot;&gt;ChoiceLetter&lt;/font&gt;&lt;/b&gt;" style="shape=partialRectangle;connectable=0;fillColor=none;top=0;left=0;bottom=0;right=0;align=left;spacingLeft=6;overflow=hidden;whiteSpace=wrap;html=1;strokeWidth=2;" parent="bemgITp-xIqUBpVqshJo-476" vertex="1">
          <mxGeometry x="41.928641183036234" width="217.07135881696377" height="35" as="geometry">
            <mxRectangle width="217.07135881696377" height="35" as="alternateBounds" />
          </mxGeometry>
        </mxCell>
        <mxCell id="bemgITp-xIqUBpVqshJo-483" value="&lt;b style=&quot;text-wrap-mode: wrap;&quot;&gt;&lt;font style=&quot;font-size: 27px;&quot;&gt;Exam&lt;/font&gt;&lt;/b&gt;" style="shape=table;startSize=44;container=1;collapsible=1;childLayout=tableLayout;fixedRows=1;rowLines=0;fontStyle=1;align=center;resizeLast=1;html=1;fillColor=#a20025;fontColor=#ffffff;strokeColor=#6F0000;strokeWidth=2;" parent="1" vertex="1">
          <mxGeometry x="8895" y="2733" width="262" height="490.0999755859375" as="geometry" />
        </mxCell>
        <mxCell id="bemgITp-xIqUBpVqshJo-484" value="" style="shape=tableRow;horizontal=0;startSize=0;swimlaneHead=0;swimlaneBody=0;fillColor=none;collapsible=0;dropTarget=0;points=[[0,0.5],[1,0.5]];portConstraint=eastwest;top=0;left=0;right=0;bottom=1;strokeWidth=2;" parent="bemgITp-xIqUBpVqshJo-483" vertex="1">
          <mxGeometry y="44" width="262" height="37" as="geometry" />
        </mxCell>
        <mxCell id="bemgITp-xIqUBpVqshJo-485" value="&lt;font style=&quot;font-size: 20px;&quot;&gt;PK&lt;/font&gt;" style="shape=partialRectangle;connectable=0;fillColor=none;top=0;left=0;bottom=0;right=0;fontStyle=1;overflow=hidden;whiteSpace=wrap;html=1;strokeWidth=2;" parent="bemgITp-xIqUBpVqshJo-484" vertex="1">
          <mxGeometry width="41.928641183036234" height="37" as="geometry">
            <mxRectangle width="41.928641183036234" height="37" as="alternateBounds" />
          </mxGeometry>
        </mxCell>
        <mxCell id="bemgITp-xIqUBpVqshJo-486" value="&lt;b style=&quot;text-align: center;&quot;&gt;&lt;font style=&quot;font-size: 20px;&quot;&gt;ExamID&lt;/font&gt;&lt;/b&gt;" style="shape=partialRectangle;connectable=0;fillColor=none;top=0;left=0;bottom=0;right=0;align=left;spacingLeft=6;fontStyle=5;overflow=hidden;whiteSpace=wrap;html=1;strokeWidth=2;" parent="bemgITp-xIqUBpVqshJo-484" vertex="1">
          <mxGeometry x="41.928641183036234" width="220.07135881696377" height="37" as="geometry">
            <mxRectangle width="220.07135881696377" height="37" as="alternateBounds" />
          </mxGeometry>
        </mxCell>
        <mxCell id="bemgITp-xIqUBpVqshJo-487" value="" style="shape=tableRow;horizontal=0;startSize=0;swimlaneHead=0;swimlaneBody=0;fillColor=none;collapsible=0;dropTarget=0;points=[[0,0.5],[1,0.5]];portConstraint=eastwest;top=0;left=0;right=0;bottom=0;strokeWidth=2;" parent="bemgITp-xIqUBpVqshJo-483" vertex="1">
          <mxGeometry y="81" width="262" height="30" as="geometry" />
        </mxCell>
        <mxCell id="bemgITp-xIqUBpVqshJo-488" value="&lt;b&gt;&lt;font style=&quot;font-size: 20px;&quot;&gt;FK&lt;/font&gt;&lt;/b&gt;" style="shape=partialRectangle;connectable=0;fillColor=none;top=0;left=0;bottom=0;right=0;editable=1;overflow=hidden;whiteSpace=wrap;html=1;strokeWidth=2;" parent="bemgITp-xIqUBpVqshJo-487" vertex="1">
          <mxGeometry width="41.928641183036234" height="30" as="geometry">
            <mxRectangle width="41.928641183036234" height="30" as="alternateBounds" />
          </mxGeometry>
        </mxCell>
        <mxCell id="bemgITp-xIqUBpVqshJo-489" value="&lt;b&gt;&lt;font style=&quot;font-size: 20px;&quot;&gt;ExamType&lt;/font&gt;&lt;/b&gt;" style="shape=partialRectangle;connectable=0;fillColor=none;top=0;left=0;bottom=0;right=0;align=left;spacingLeft=6;overflow=hidden;whiteSpace=wrap;html=1;strokeWidth=2;" parent="bemgITp-xIqUBpVqshJo-487" vertex="1">
          <mxGeometry x="41.928641183036234" width="220.07135881696377" height="30" as="geometry">
            <mxRectangle width="220.07135881696377" height="30" as="alternateBounds" />
          </mxGeometry>
        </mxCell>
        <mxCell id="bemgITp-xIqUBpVqshJo-490" value="" style="shape=tableRow;horizontal=0;startSize=0;swimlaneHead=0;swimlaneBody=0;fillColor=none;collapsible=0;dropTarget=0;points=[[0,0.5],[1,0.5]];portConstraint=eastwest;top=0;left=0;right=0;bottom=0;strokeWidth=2;" parent="bemgITp-xIqUBpVqshJo-483" vertex="1">
          <mxGeometry y="111" width="262" height="37" as="geometry" />
        </mxCell>
        <mxCell id="bemgITp-xIqUBpVqshJo-491" value="" style="shape=partialRectangle;connectable=0;fillColor=none;top=0;left=0;bottom=0;right=0;editable=1;overflow=hidden;whiteSpace=wrap;html=1;strokeWidth=2;" parent="bemgITp-xIqUBpVqshJo-490" vertex="1">
          <mxGeometry width="41.928641183036234" height="37" as="geometry">
            <mxRectangle width="41.928641183036234" height="37" as="alternateBounds" />
          </mxGeometry>
        </mxCell>
        <mxCell id="bemgITp-xIqUBpVqshJo-492" value="&lt;b style=&quot;text-align: center;&quot;&gt;&lt;font style=&quot;font-size: 20px;&quot;&gt;Duration&lt;/font&gt;&lt;/b&gt;" style="shape=partialRectangle;connectable=0;fillColor=none;top=0;left=0;bottom=0;right=0;align=left;spacingLeft=6;overflow=hidden;whiteSpace=wrap;html=1;strokeWidth=2;" parent="bemgITp-xIqUBpVqshJo-490" vertex="1">
          <mxGeometry x="41.928641183036234" width="220.07135881696377" height="37" as="geometry">
            <mxRectangle width="220.07135881696377" height="37" as="alternateBounds" />
          </mxGeometry>
        </mxCell>
        <mxCell id="bemgITp-xIqUBpVqshJo-493" value="" style="shape=tableRow;horizontal=0;startSize=0;swimlaneHead=0;swimlaneBody=0;fillColor=none;collapsible=0;dropTarget=0;points=[[0,0.5],[1,0.5]];portConstraint=eastwest;top=0;left=0;right=0;bottom=0;strokeWidth=2;" parent="bemgITp-xIqUBpVqshJo-483" vertex="1">
          <mxGeometry y="148" width="262" height="30" as="geometry" />
        </mxCell>
        <mxCell id="bemgITp-xIqUBpVqshJo-494" value="" style="shape=partialRectangle;connectable=0;fillColor=none;top=0;left=0;bottom=0;right=0;editable=1;overflow=hidden;whiteSpace=wrap;html=1;strokeWidth=2;" parent="bemgITp-xIqUBpVqshJo-493" vertex="1">
          <mxGeometry width="41.928641183036234" height="30" as="geometry">
            <mxRectangle width="41.928641183036234" height="30" as="alternateBounds" />
          </mxGeometry>
        </mxCell>
        <mxCell id="bemgITp-xIqUBpVqshJo-495" value="&lt;b style=&quot;text-align: center;&quot;&gt;&lt;font style=&quot;font-size: 20px;&quot;&gt;No-OF_mCQ&lt;/font&gt;&lt;/b&gt;" style="shape=partialRectangle;connectable=0;fillColor=none;top=0;left=0;bottom=0;right=0;align=left;spacingLeft=6;overflow=hidden;whiteSpace=wrap;html=1;strokeWidth=2;" parent="bemgITp-xIqUBpVqshJo-493" vertex="1">
          <mxGeometry x="41.928641183036234" width="220.07135881696377" height="30" as="geometry">
            <mxRectangle width="220.07135881696377" height="30" as="alternateBounds" />
          </mxGeometry>
        </mxCell>
        <mxCell id="bemgITp-xIqUBpVqshJo-496" value="" style="shape=tableRow;horizontal=0;startSize=0;swimlaneHead=0;swimlaneBody=0;fillColor=none;collapsible=0;dropTarget=0;points=[[0,0.5],[1,0.5]];portConstraint=eastwest;top=0;left=0;right=0;bottom=0;strokeWidth=2;" parent="bemgITp-xIqUBpVqshJo-483" vertex="1">
          <mxGeometry y="178" width="262" height="30" as="geometry" />
        </mxCell>
        <mxCell id="bemgITp-xIqUBpVqshJo-497" value="" style="shape=partialRectangle;connectable=0;fillColor=none;top=0;left=0;bottom=0;right=0;editable=1;overflow=hidden;whiteSpace=wrap;html=1;strokeWidth=2;" parent="bemgITp-xIqUBpVqshJo-496" vertex="1">
          <mxGeometry width="41.928641183036234" height="30" as="geometry">
            <mxRectangle width="41.928641183036234" height="30" as="alternateBounds" />
          </mxGeometry>
        </mxCell>
        <mxCell id="bemgITp-xIqUBpVqshJo-498" value="&lt;b style=&quot;text-align: center;&quot;&gt;&lt;font style=&quot;font-size: 20px;&quot;&gt;No_Of_TextQ&lt;/font&gt;&lt;/b&gt;" style="shape=partialRectangle;connectable=0;fillColor=none;top=0;left=0;bottom=0;right=0;align=left;spacingLeft=6;overflow=hidden;whiteSpace=wrap;html=1;strokeWidth=2;" parent="bemgITp-xIqUBpVqshJo-496" vertex="1">
          <mxGeometry x="41.928641183036234" width="220.07135881696377" height="30" as="geometry">
            <mxRectangle width="220.07135881696377" height="30" as="alternateBounds" />
          </mxGeometry>
        </mxCell>
        <mxCell id="bemgITp-xIqUBpVqshJo-508" value="" style="shape=tableRow;horizontal=0;startSize=0;swimlaneHead=0;swimlaneBody=0;fillColor=none;collapsible=0;dropTarget=0;points=[[0,0.5],[1,0.5]];portConstraint=eastwest;top=0;left=0;right=0;bottom=0;strokeWidth=2;" parent="bemgITp-xIqUBpVqshJo-483" vertex="1">
          <mxGeometry y="208" width="262" height="30" as="geometry" />
        </mxCell>
        <mxCell id="bemgITp-xIqUBpVqshJo-509" value="" style="shape=partialRectangle;connectable=0;fillColor=none;top=0;left=0;bottom=0;right=0;editable=1;overflow=hidden;whiteSpace=wrap;html=1;strokeWidth=2;" parent="bemgITp-xIqUBpVqshJo-508" vertex="1">
          <mxGeometry width="41.928641183036234" height="30" as="geometry">
            <mxRectangle width="41.928641183036234" height="30" as="alternateBounds" />
          </mxGeometry>
        </mxCell>
        <mxCell id="bemgITp-xIqUBpVqshJo-510" value="&lt;b style=&quot;text-align: center;&quot;&gt;&lt;font style=&quot;font-size: 20px;&quot;&gt;No_Of_TFQ&lt;/font&gt;&lt;/b&gt;" style="shape=partialRectangle;connectable=0;fillColor=none;top=0;left=0;bottom=0;right=0;align=left;spacingLeft=6;overflow=hidden;whiteSpace=wrap;html=1;strokeWidth=2;" parent="bemgITp-xIqUBpVqshJo-508" vertex="1">
          <mxGeometry x="41.928641183036234" width="220.07135881696377" height="30" as="geometry">
            <mxRectangle width="220.07135881696377" height="30" as="alternateBounds" />
          </mxGeometry>
        </mxCell>
        <mxCell id="bemgITp-xIqUBpVqshJo-499" value="" style="shape=tableRow;horizontal=0;startSize=0;swimlaneHead=0;swimlaneBody=0;fillColor=none;collapsible=0;dropTarget=0;points=[[0,0.5],[1,0.5]];portConstraint=eastwest;top=0;left=0;right=0;bottom=0;strokeWidth=2;" parent="bemgITp-xIqUBpVqshJo-483" vertex="1">
          <mxGeometry y="238" width="262" height="36" as="geometry" />
        </mxCell>
        <mxCell id="bemgITp-xIqUBpVqshJo-500" value="" style="shape=partialRectangle;connectable=0;fillColor=none;top=0;left=0;bottom=0;right=0;editable=1;overflow=hidden;whiteSpace=wrap;html=1;strokeWidth=2;" parent="bemgITp-xIqUBpVqshJo-499" vertex="1">
          <mxGeometry width="41.928641183036234" height="36" as="geometry">
            <mxRectangle width="41.928641183036234" height="36" as="alternateBounds" />
          </mxGeometry>
        </mxCell>
        <mxCell id="bemgITp-xIqUBpVqshJo-501" value="&lt;b style=&quot;text-align: center;&quot;&gt;&lt;font style=&quot;font-size: 20px;&quot;&gt;StartTime&lt;/font&gt;&lt;/b&gt;" style="shape=partialRectangle;connectable=0;fillColor=none;top=0;left=0;bottom=0;right=0;align=left;spacingLeft=6;overflow=hidden;whiteSpace=wrap;html=1;strokeWidth=2;" parent="bemgITp-xIqUBpVqshJo-499" vertex="1">
          <mxGeometry x="41.928641183036234" width="220.07135881696377" height="36" as="geometry">
            <mxRectangle width="220.07135881696377" height="36" as="alternateBounds" />
          </mxGeometry>
        </mxCell>
        <mxCell id="bemgITp-xIqUBpVqshJo-505" value="" style="shape=tableRow;horizontal=0;startSize=0;swimlaneHead=0;swimlaneBody=0;fillColor=none;collapsible=0;dropTarget=0;points=[[0,0.5],[1,0.5]];portConstraint=eastwest;top=0;left=0;right=0;bottom=0;strokeWidth=2;" parent="bemgITp-xIqUBpVqshJo-483" vertex="1">
          <mxGeometry y="274" width="262" height="36" as="geometry" />
        </mxCell>
        <mxCell id="bemgITp-xIqUBpVqshJo-506" value="" style="shape=partialRectangle;connectable=0;fillColor=none;top=0;left=0;bottom=0;right=0;editable=1;overflow=hidden;whiteSpace=wrap;html=1;strokeWidth=2;" parent="bemgITp-xIqUBpVqshJo-505" vertex="1">
          <mxGeometry width="41.928641183036234" height="36" as="geometry">
            <mxRectangle width="41.928641183036234" height="36" as="alternateBounds" />
          </mxGeometry>
        </mxCell>
        <mxCell id="bemgITp-xIqUBpVqshJo-507" value="&lt;b style=&quot;text-align: center;&quot;&gt;&lt;font style=&quot;font-size: 20px;&quot;&gt;EndTime&lt;/font&gt;&lt;/b&gt;" style="shape=partialRectangle;connectable=0;fillColor=none;top=0;left=0;bottom=0;right=0;align=left;spacingLeft=6;overflow=hidden;whiteSpace=wrap;html=1;strokeWidth=2;" parent="bemgITp-xIqUBpVqshJo-505" vertex="1">
          <mxGeometry x="41.928641183036234" width="220.07135881696377" height="36" as="geometry">
            <mxRectangle width="220.07135881696377" height="36" as="alternateBounds" />
          </mxGeometry>
        </mxCell>
        <mxCell id="bemgITp-xIqUBpVqshJo-502" value="" style="shape=tableRow;horizontal=0;startSize=0;swimlaneHead=0;swimlaneBody=0;fillColor=none;collapsible=0;dropTarget=0;points=[[0,0.5],[1,0.5]];portConstraint=eastwest;top=0;left=0;right=0;bottom=0;strokeWidth=2;" parent="bemgITp-xIqUBpVqshJo-483" vertex="1">
          <mxGeometry y="310" width="262" height="36" as="geometry" />
        </mxCell>
        <mxCell id="bemgITp-xIqUBpVqshJo-503" value="" style="shape=partialRectangle;connectable=0;fillColor=none;top=0;left=0;bottom=0;right=0;editable=1;overflow=hidden;whiteSpace=wrap;html=1;strokeWidth=2;" parent="bemgITp-xIqUBpVqshJo-502" vertex="1">
          <mxGeometry width="41.928641183036234" height="36" as="geometry">
            <mxRectangle width="41.928641183036234" height="36" as="alternateBounds" />
          </mxGeometry>
        </mxCell>
        <mxCell id="bemgITp-xIqUBpVqshJo-504" value="&lt;b style=&quot;text-align: center;&quot;&gt;&lt;font style=&quot;font-size: 20px;&quot;&gt;ExamGrade&lt;/font&gt;&lt;/b&gt;" style="shape=partialRectangle;connectable=0;fillColor=none;top=0;left=0;bottom=0;right=0;align=left;spacingLeft=6;overflow=hidden;whiteSpace=wrap;html=1;strokeWidth=2;" parent="bemgITp-xIqUBpVqshJo-502" vertex="1">
          <mxGeometry x="41.928641183036234" width="220.07135881696377" height="36" as="geometry">
            <mxRectangle width="220.07135881696377" height="36" as="alternateBounds" />
          </mxGeometry>
        </mxCell>
        <mxCell id="bemgITp-xIqUBpVqshJo-511" value="" style="shape=tableRow;horizontal=0;startSize=0;swimlaneHead=0;swimlaneBody=0;fillColor=none;collapsible=0;dropTarget=0;points=[[0,0.5],[1,0.5]];portConstraint=eastwest;top=0;left=0;right=0;bottom=0;strokeWidth=2;" parent="bemgITp-xIqUBpVqshJo-483" vertex="1">
          <mxGeometry y="346" width="262" height="36" as="geometry" />
        </mxCell>
        <mxCell id="bemgITp-xIqUBpVqshJo-512" value="" style="shape=partialRectangle;connectable=0;fillColor=none;top=0;left=0;bottom=0;right=0;editable=1;overflow=hidden;whiteSpace=wrap;html=1;strokeWidth=2;" parent="bemgITp-xIqUBpVqshJo-511" vertex="1">
          <mxGeometry width="41.928641183036234" height="36" as="geometry">
            <mxRectangle width="41.928641183036234" height="36" as="alternateBounds" />
          </mxGeometry>
        </mxCell>
        <mxCell id="bemgITp-xIqUBpVqshJo-513" value="&lt;b style=&quot;text-align: center;&quot;&gt;&lt;font style=&quot;font-size: 20px;&quot;&gt;AllowneceOptions&lt;/font&gt;&lt;/b&gt;" style="shape=partialRectangle;connectable=0;fillColor=none;top=0;left=0;bottom=0;right=0;align=left;spacingLeft=6;overflow=hidden;whiteSpace=wrap;html=1;strokeWidth=2;" parent="bemgITp-xIqUBpVqshJo-511" vertex="1">
          <mxGeometry x="41.928641183036234" width="220.07135881696377" height="36" as="geometry">
            <mxRectangle width="220.07135881696377" height="36" as="alternateBounds" />
          </mxGeometry>
        </mxCell>
        <mxCell id="bemgITp-xIqUBpVqshJo-514" value="" style="shape=tableRow;horizontal=0;startSize=0;swimlaneHead=0;swimlaneBody=0;fillColor=none;collapsible=0;dropTarget=0;points=[[0,0.5],[1,0.5]];portConstraint=eastwest;top=0;left=0;right=0;bottom=0;strokeWidth=2;" parent="bemgITp-xIqUBpVqshJo-483" vertex="1">
          <mxGeometry y="382" width="262" height="36" as="geometry" />
        </mxCell>
        <mxCell id="bemgITp-xIqUBpVqshJo-515" value="&lt;b&gt;&lt;font style=&quot;font-size: 20px;&quot;&gt;FK&lt;/font&gt;&lt;/b&gt;" style="shape=partialRectangle;connectable=0;fillColor=none;top=0;left=0;bottom=0;right=0;editable=1;overflow=hidden;whiteSpace=wrap;html=1;strokeWidth=2;" parent="bemgITp-xIqUBpVqshJo-514" vertex="1">
          <mxGeometry width="41.928641183036234" height="36" as="geometry">
            <mxRectangle width="41.928641183036234" height="36" as="alternateBounds" />
          </mxGeometry>
        </mxCell>
        <mxCell id="bemgITp-xIqUBpVqshJo-516" value="&lt;b style=&quot;text-align: center;&quot;&gt;&lt;font style=&quot;font-size: 20px;&quot;&gt;InstructorID&lt;/font&gt;&lt;/b&gt;" style="shape=partialRectangle;connectable=0;fillColor=none;top=0;left=0;bottom=0;right=0;align=left;spacingLeft=6;overflow=hidden;whiteSpace=wrap;html=1;strokeWidth=2;" parent="bemgITp-xIqUBpVqshJo-514" vertex="1">
          <mxGeometry x="41.928641183036234" width="220.07135881696377" height="36" as="geometry">
            <mxRectangle width="220.07135881696377" height="36" as="alternateBounds" />
          </mxGeometry>
        </mxCell>
        <mxCell id="bemgITp-xIqUBpVqshJo-520" value="" style="shape=tableRow;horizontal=0;startSize=0;swimlaneHead=0;swimlaneBody=0;fillColor=none;collapsible=0;dropTarget=0;points=[[0,0.5],[1,0.5]];portConstraint=eastwest;top=0;left=0;right=0;bottom=0;strokeWidth=2;" parent="bemgITp-xIqUBpVqshJo-483" vertex="1">
          <mxGeometry y="418" width="262" height="36" as="geometry" />
        </mxCell>
        <mxCell id="bemgITp-xIqUBpVqshJo-521" value="&lt;b&gt;&lt;font style=&quot;font-size: 20px;&quot;&gt;FK&lt;/font&gt;&lt;/b&gt;" style="shape=partialRectangle;connectable=0;fillColor=none;top=0;left=0;bottom=0;right=0;editable=1;overflow=hidden;whiteSpace=wrap;html=1;strokeWidth=2;" parent="bemgITp-xIqUBpVqshJo-520" vertex="1">
          <mxGeometry width="41.928641183036234" height="36" as="geometry">
            <mxRectangle width="41.928641183036234" height="36" as="alternateBounds" />
          </mxGeometry>
        </mxCell>
        <mxCell id="bemgITp-xIqUBpVqshJo-522" value="&lt;b style=&quot;text-align: center;&quot;&gt;&lt;font style=&quot;font-size: 20px;&quot;&gt;CourseID&lt;/font&gt;&lt;/b&gt;" style="shape=partialRectangle;connectable=0;fillColor=none;top=0;left=0;bottom=0;right=0;align=left;spacingLeft=6;overflow=hidden;whiteSpace=wrap;html=1;strokeWidth=2;" parent="bemgITp-xIqUBpVqshJo-520" vertex="1">
          <mxGeometry x="41.928641183036234" width="220.07135881696377" height="36" as="geometry">
            <mxRectangle width="220.07135881696377" height="36" as="alternateBounds" />
          </mxGeometry>
        </mxCell>
        <mxCell id="bemgITp-xIqUBpVqshJo-517" value="" style="shape=tableRow;horizontal=0;startSize=0;swimlaneHead=0;swimlaneBody=0;fillColor=none;collapsible=0;dropTarget=0;points=[[0,0.5],[1,0.5]];portConstraint=eastwest;top=0;left=0;right=0;bottom=0;strokeWidth=2;" parent="bemgITp-xIqUBpVqshJo-483" vertex="1">
          <mxGeometry y="454" width="262" height="36" as="geometry" />
        </mxCell>
        <mxCell id="bemgITp-xIqUBpVqshJo-518" value="&lt;b&gt;&lt;font style=&quot;font-size: 20px;&quot;&gt;FK&lt;/font&gt;&lt;/b&gt;" style="shape=partialRectangle;connectable=0;fillColor=none;top=0;left=0;bottom=0;right=0;editable=1;overflow=hidden;whiteSpace=wrap;html=1;strokeWidth=2;" parent="bemgITp-xIqUBpVqshJo-517" vertex="1">
          <mxGeometry width="41.928641183036234" height="36" as="geometry">
            <mxRectangle width="41.928641183036234" height="36" as="alternateBounds" />
          </mxGeometry>
        </mxCell>
        <mxCell id="bemgITp-xIqUBpVqshJo-519" value="&lt;b style=&quot;text-align: center;&quot;&gt;&lt;font style=&quot;font-size: 20px;&quot;&gt;BIT_ID&lt;/font&gt;&lt;/b&gt;" style="shape=partialRectangle;connectable=0;fillColor=none;top=0;left=0;bottom=0;right=0;align=left;spacingLeft=6;overflow=hidden;whiteSpace=wrap;html=1;strokeWidth=2;" parent="bemgITp-xIqUBpVqshJo-517" vertex="1">
          <mxGeometry x="41.928641183036234" width="220.07135881696377" height="36" as="geometry">
            <mxRectangle width="220.07135881696377" height="36" as="alternateBounds" />
          </mxGeometry>
        </mxCell>
        <mxCell id="bemgITp-xIqUBpVqshJo-533" value="&lt;font style=&quot;font-size: 20px;&quot;&gt;StudentCourse&lt;/font&gt;" style="shape=table;startSize=30;container=1;collapsible=1;childLayout=tableLayout;fixedRows=1;rowLines=0;fontStyle=1;align=center;resizeLast=1;html=1;whiteSpace=wrap;fillColor=#a20025;fontColor=#ffffff;strokeColor=#6F0000;strokeWidth=2;" parent="1" vertex="1">
          <mxGeometry x="8871" y="3765" width="216" height="139.17652803308783" as="geometry" />
        </mxCell>
        <mxCell id="bemgITp-xIqUBpVqshJo-534" value="" style="shape=tableRow;horizontal=0;startSize=0;swimlaneHead=0;swimlaneBody=0;fillColor=none;collapsible=0;dropTarget=0;points=[[0,0.5],[1,0.5]];portConstraint=eastwest;top=0;left=0;right=0;bottom=0;html=1;strokeWidth=2;" parent="bemgITp-xIqUBpVqshJo-533" vertex="1">
          <mxGeometry y="30" width="216" height="30" as="geometry" />
        </mxCell>
        <mxCell id="bemgITp-xIqUBpVqshJo-535" value="&lt;font style=&quot;font-size: 20px;&quot;&gt;PK,FK&lt;/font&gt;" style="shape=partialRectangle;connectable=0;fillColor=none;top=0;left=0;bottom=0;right=0;fontStyle=1;overflow=hidden;html=1;whiteSpace=wrap;strokeWidth=2;" parent="bemgITp-xIqUBpVqshJo-534" vertex="1">
          <mxGeometry width="79.82347914751881" height="30" as="geometry">
            <mxRectangle width="79.82347914751881" height="30" as="alternateBounds" />
          </mxGeometry>
        </mxCell>
        <mxCell id="bemgITp-xIqUBpVqshJo-536" value="&lt;font style=&quot;font-size: 20px;&quot;&gt;StudentID&lt;/font&gt;" style="shape=partialRectangle;connectable=0;fillColor=none;top=0;left=0;bottom=0;right=0;align=left;spacingLeft=6;fontStyle=5;overflow=hidden;html=1;whiteSpace=wrap;strokeWidth=2;" parent="bemgITp-xIqUBpVqshJo-534" vertex="1">
          <mxGeometry x="79.82347914751881" width="136.1765208524812" height="30" as="geometry">
            <mxRectangle width="136.1765208524812" height="30" as="alternateBounds" />
          </mxGeometry>
        </mxCell>
        <mxCell id="bemgITp-xIqUBpVqshJo-537" value="" style="shape=tableRow;horizontal=0;startSize=0;swimlaneHead=0;swimlaneBody=0;fillColor=none;collapsible=0;dropTarget=0;points=[[0,0.5],[1,0.5]];portConstraint=eastwest;top=0;left=0;right=0;bottom=1;html=1;strokeWidth=2;" parent="bemgITp-xIqUBpVqshJo-533" vertex="1">
          <mxGeometry y="60" width="216" height="39" as="geometry" />
        </mxCell>
        <mxCell id="bemgITp-xIqUBpVqshJo-538" value="&lt;font style=&quot;font-size: 20px;&quot;&gt;PK,FK&lt;/font&gt;" style="shape=partialRectangle;connectable=0;fillColor=none;top=0;left=0;bottom=0;right=0;fontStyle=1;overflow=hidden;html=1;whiteSpace=wrap;strokeWidth=2;" parent="bemgITp-xIqUBpVqshJo-537" vertex="1">
          <mxGeometry width="79.82347914751881" height="39" as="geometry">
            <mxRectangle width="79.82347914751881" height="39" as="alternateBounds" />
          </mxGeometry>
        </mxCell>
        <mxCell id="bemgITp-xIqUBpVqshJo-539" value="&lt;font style=&quot;font-size: 20px;&quot;&gt;CourseID&lt;/font&gt;" style="shape=partialRectangle;connectable=0;fillColor=none;top=0;left=0;bottom=0;right=0;align=left;spacingLeft=6;fontStyle=5;overflow=hidden;html=1;whiteSpace=wrap;strokeWidth=2;" parent="bemgITp-xIqUBpVqshJo-537" vertex="1">
          <mxGeometry x="79.82347914751881" width="136.1765208524812" height="39" as="geometry">
            <mxRectangle width="136.1765208524812" height="39" as="alternateBounds" />
          </mxGeometry>
        </mxCell>
        <mxCell id="bemgITp-xIqUBpVqshJo-540" value="" style="shape=tableRow;horizontal=0;startSize=0;swimlaneHead=0;swimlaneBody=0;fillColor=none;collapsible=0;dropTarget=0;points=[[0,0.5],[1,0.5]];portConstraint=eastwest;top=0;left=0;right=0;bottom=0;html=1;strokeWidth=2;" parent="bemgITp-xIqUBpVqshJo-533" vertex="1">
          <mxGeometry y="99" width="216" height="30" as="geometry" />
        </mxCell>
        <mxCell id="bemgITp-xIqUBpVqshJo-541" value="" style="shape=partialRectangle;connectable=0;fillColor=none;top=0;left=0;bottom=0;right=0;editable=1;overflow=hidden;html=1;whiteSpace=wrap;strokeWidth=2;" parent="bemgITp-xIqUBpVqshJo-540" vertex="1">
          <mxGeometry width="79.82347914751881" height="30" as="geometry">
            <mxRectangle width="79.82347914751881" height="30" as="alternateBounds" />
          </mxGeometry>
        </mxCell>
        <mxCell id="bemgITp-xIqUBpVqshJo-542" value="&lt;font style=&quot;font-size: 20px;&quot;&gt;&lt;b&gt;StudGrade&lt;/b&gt;&lt;/font&gt;" style="shape=partialRectangle;connectable=0;fillColor=none;top=0;left=0;bottom=0;right=0;align=left;spacingLeft=6;overflow=hidden;html=1;whiteSpace=wrap;strokeWidth=2;" parent="bemgITp-xIqUBpVqshJo-540" vertex="1">
          <mxGeometry x="79.82347914751881" width="136.1765208524812" height="30" as="geometry">
            <mxRectangle width="136.1765208524812" height="30" as="alternateBounds" />
          </mxGeometry>
        </mxCell>
        <mxCell id="bemgITp-xIqUBpVqshJo-549" style="edgeStyle=orthogonalEdgeStyle;rounded=0;orthogonalLoop=1;jettySize=auto;html=1;entryX=0;entryY=0.5;entryDx=0;entryDy=0;exitX=0;exitY=0.5;exitDx=0;exitDy=0;strokeWidth=2;" parent="1" source="zIbtgdpSCptLn_aJRIT2-31" target="zIbtgdpSCptLn_aJRIT2-6" edge="1">
          <mxGeometry relative="1" as="geometry">
            <Array as="points">
              <mxPoint x="9492" y="4073" />
              <mxPoint x="9492" y="4173" />
            </Array>
          </mxGeometry>
        </mxCell>
        <mxCell id="bemgITp-xIqUBpVqshJo-550" style="edgeStyle=orthogonalEdgeStyle;rounded=0;orthogonalLoop=1;jettySize=auto;html=1;entryX=1;entryY=0.239;entryDx=0;entryDy=0;entryPerimeter=0;exitX=0;exitY=0.5;exitDx=0;exitDy=0;strokeWidth=2;" parent="1" source="bemgITp-xIqUBpVqshJo-451" target="bemgITp-xIqUBpVqshJo-484" edge="1">
          <mxGeometry relative="1" as="geometry">
            <mxPoint x="9544" y="3359.5" as="sourcePoint" />
            <mxPoint x="9252" y="2738" as="targetPoint" />
            <Array as="points">
              <mxPoint x="9371" y="3003" />
              <mxPoint x="9371" y="2786" />
            </Array>
          </mxGeometry>
        </mxCell>
        <mxCell id="bemgITp-xIqUBpVqshJo-551" value="&lt;b style=&quot;text-wrap-mode: wrap;&quot;&gt;&lt;font style=&quot;font-size: 27px;&quot;&gt;Question&lt;/font&gt;&lt;/b&gt;" style="shape=table;startSize=42;container=1;collapsible=1;childLayout=tableLayout;fixedRows=1;rowLines=0;fontStyle=1;align=center;resizeLast=1;html=1;fillColor=#a20025;fontColor=#ffffff;strokeColor=#6F0000;strokeWidth=2;" parent="1" vertex="1">
          <mxGeometry x="8900" y="4544" width="262" height="235" as="geometry" />
        </mxCell>
        <mxCell id="bemgITp-xIqUBpVqshJo-552" value="" style="shape=tableRow;horizontal=0;startSize=0;swimlaneHead=0;swimlaneBody=0;fillColor=none;collapsible=0;dropTarget=0;points=[[0,0.5],[1,0.5]];portConstraint=eastwest;top=0;left=0;right=0;bottom=1;strokeWidth=2;" parent="bemgITp-xIqUBpVqshJo-551" vertex="1">
          <mxGeometry y="42" width="262" height="37" as="geometry" />
        </mxCell>
        <mxCell id="bemgITp-xIqUBpVqshJo-553" value="&lt;font style=&quot;font-size: 20px;&quot;&gt;PK&lt;/font&gt;" style="shape=partialRectangle;connectable=0;fillColor=none;top=0;left=0;bottom=0;right=0;fontStyle=1;overflow=hidden;whiteSpace=wrap;html=1;strokeWidth=2;" parent="bemgITp-xIqUBpVqshJo-552" vertex="1">
          <mxGeometry width="41.4334716796875" height="37" as="geometry">
            <mxRectangle width="41.4334716796875" height="37" as="alternateBounds" />
          </mxGeometry>
        </mxCell>
        <mxCell id="bemgITp-xIqUBpVqshJo-554" value="&lt;b style=&quot;text-align: center;&quot;&gt;&lt;font style=&quot;font-size: 20px;&quot;&gt;QuestionID&lt;/font&gt;&lt;/b&gt;" style="shape=partialRectangle;connectable=0;fillColor=none;top=0;left=0;bottom=0;right=0;align=left;spacingLeft=6;fontStyle=5;overflow=hidden;whiteSpace=wrap;html=1;strokeWidth=2;" parent="bemgITp-xIqUBpVqshJo-552" vertex="1">
          <mxGeometry x="41.4334716796875" width="220.5665283203125" height="37" as="geometry">
            <mxRectangle width="220.5665283203125" height="37" as="alternateBounds" />
          </mxGeometry>
        </mxCell>
        <mxCell id="bemgITp-xIqUBpVqshJo-555" value="" style="shape=tableRow;horizontal=0;startSize=0;swimlaneHead=0;swimlaneBody=0;fillColor=none;collapsible=0;dropTarget=0;points=[[0,0.5],[1,0.5]];portConstraint=eastwest;top=0;left=0;right=0;bottom=0;strokeWidth=2;" parent="bemgITp-xIqUBpVqshJo-551" vertex="1">
          <mxGeometry y="79" width="262" height="30" as="geometry" />
        </mxCell>
        <mxCell id="bemgITp-xIqUBpVqshJo-556" value="" style="shape=partialRectangle;connectable=0;fillColor=none;top=0;left=0;bottom=0;right=0;editable=1;overflow=hidden;whiteSpace=wrap;html=1;strokeWidth=2;" parent="bemgITp-xIqUBpVqshJo-555" vertex="1">
          <mxGeometry width="41.4334716796875" height="30" as="geometry">
            <mxRectangle width="41.4334716796875" height="30" as="alternateBounds" />
          </mxGeometry>
        </mxCell>
        <mxCell id="bemgITp-xIqUBpVqshJo-557" value="&lt;b style=&quot;text-align: center;&quot;&gt;&lt;font style=&quot;font-size: 20px;&quot;&gt;QuestionType&lt;/font&gt;&lt;/b&gt;" style="shape=partialRectangle;connectable=0;fillColor=none;top=0;left=0;bottom=0;right=0;align=left;spacingLeft=6;overflow=hidden;whiteSpace=wrap;html=1;strokeWidth=2;" parent="bemgITp-xIqUBpVqshJo-555" vertex="1">
          <mxGeometry x="41.4334716796875" width="220.5665283203125" height="30" as="geometry">
            <mxRectangle width="220.5665283203125" height="30" as="alternateBounds" />
          </mxGeometry>
        </mxCell>
        <mxCell id="bemgITp-xIqUBpVqshJo-558" value="" style="shape=tableRow;horizontal=0;startSize=0;swimlaneHead=0;swimlaneBody=0;fillColor=none;collapsible=0;dropTarget=0;points=[[0,0.5],[1,0.5]];portConstraint=eastwest;top=0;left=0;right=0;bottom=0;strokeWidth=2;" parent="bemgITp-xIqUBpVqshJo-551" vertex="1">
          <mxGeometry y="109" width="262" height="30" as="geometry" />
        </mxCell>
        <mxCell id="bemgITp-xIqUBpVqshJo-559" value="" style="shape=partialRectangle;connectable=0;fillColor=none;top=0;left=0;bottom=0;right=0;editable=1;overflow=hidden;whiteSpace=wrap;html=1;strokeWidth=2;" parent="bemgITp-xIqUBpVqshJo-558" vertex="1">
          <mxGeometry width="41.4334716796875" height="30" as="geometry">
            <mxRectangle width="41.4334716796875" height="30" as="alternateBounds" />
          </mxGeometry>
        </mxCell>
        <mxCell id="bemgITp-xIqUBpVqshJo-560" value="&lt;b style=&quot;text-align: center;&quot;&gt;&lt;font style=&quot;font-size: 20px;&quot;&gt;QuestionText&lt;/font&gt;&lt;/b&gt;" style="shape=partialRectangle;connectable=0;fillColor=none;top=0;left=0;bottom=0;right=0;align=left;spacingLeft=6;overflow=hidden;whiteSpace=wrap;html=1;strokeWidth=2;" parent="bemgITp-xIqUBpVqshJo-558" vertex="1">
          <mxGeometry x="41.4334716796875" width="220.5665283203125" height="30" as="geometry">
            <mxRectangle width="220.5665283203125" height="30" as="alternateBounds" />
          </mxGeometry>
        </mxCell>
        <mxCell id="bemgITp-xIqUBpVqshJo-561" value="" style="shape=tableRow;horizontal=0;startSize=0;swimlaneHead=0;swimlaneBody=0;fillColor=none;collapsible=0;dropTarget=0;points=[[0,0.5],[1,0.5]];portConstraint=eastwest;top=0;left=0;right=0;bottom=0;strokeWidth=2;" parent="bemgITp-xIqUBpVqshJo-551" vertex="1">
          <mxGeometry y="139" width="262" height="30" as="geometry" />
        </mxCell>
        <mxCell id="bemgITp-xIqUBpVqshJo-562" value="" style="shape=partialRectangle;connectable=0;fillColor=none;top=0;left=0;bottom=0;right=0;editable=1;overflow=hidden;whiteSpace=wrap;html=1;strokeWidth=2;" parent="bemgITp-xIqUBpVqshJo-561" vertex="1">
          <mxGeometry width="41.4334716796875" height="30" as="geometry">
            <mxRectangle width="41.4334716796875" height="30" as="alternateBounds" />
          </mxGeometry>
        </mxCell>
        <mxCell id="bemgITp-xIqUBpVqshJo-563" value="&lt;b style=&quot;text-align: center;&quot;&gt;&lt;font style=&quot;font-size: 20px;&quot;&gt;DifficultyLevel&lt;/font&gt;&lt;/b&gt;" style="shape=partialRectangle;connectable=0;fillColor=none;top=0;left=0;bottom=0;right=0;align=left;spacingLeft=6;overflow=hidden;whiteSpace=wrap;html=1;strokeWidth=2;" parent="bemgITp-xIqUBpVqshJo-561" vertex="1">
          <mxGeometry x="41.4334716796875" width="220.5665283203125" height="30" as="geometry">
            <mxRectangle width="220.5665283203125" height="30" as="alternateBounds" />
          </mxGeometry>
        </mxCell>
        <mxCell id="bemgITp-xIqUBpVqshJo-564" value="" style="shape=tableRow;horizontal=0;startSize=0;swimlaneHead=0;swimlaneBody=0;fillColor=none;collapsible=0;dropTarget=0;points=[[0,0.5],[1,0.5]];portConstraint=eastwest;top=0;left=0;right=0;bottom=0;strokeWidth=2;" parent="bemgITp-xIqUBpVqshJo-551" vertex="1">
          <mxGeometry y="169" width="262" height="30" as="geometry" />
        </mxCell>
        <mxCell id="bemgITp-xIqUBpVqshJo-565" value="" style="shape=partialRectangle;connectable=0;fillColor=none;top=0;left=0;bottom=0;right=0;editable=1;overflow=hidden;whiteSpace=wrap;html=1;strokeWidth=2;" parent="bemgITp-xIqUBpVqshJo-564" vertex="1">
          <mxGeometry width="41.4334716796875" height="30" as="geometry">
            <mxRectangle width="41.4334716796875" height="30" as="alternateBounds" />
          </mxGeometry>
        </mxCell>
        <mxCell id="bemgITp-xIqUBpVqshJo-566" value="&lt;b style=&quot;text-align: center;&quot;&gt;&lt;font style=&quot;font-size: 20px;&quot;&gt;QuestionMark&lt;/font&gt;&lt;/b&gt;" style="shape=partialRectangle;connectable=0;fillColor=none;top=0;left=0;bottom=0;right=0;align=left;spacingLeft=6;overflow=hidden;whiteSpace=wrap;html=1;strokeWidth=2;" parent="bemgITp-xIqUBpVqshJo-564" vertex="1">
          <mxGeometry x="41.4334716796875" width="220.5665283203125" height="30" as="geometry">
            <mxRectangle width="220.5665283203125" height="30" as="alternateBounds" />
          </mxGeometry>
        </mxCell>
        <mxCell id="bemgITp-xIqUBpVqshJo-567" value="" style="shape=tableRow;horizontal=0;startSize=0;swimlaneHead=0;swimlaneBody=0;fillColor=none;collapsible=0;dropTarget=0;points=[[0,0.5],[1,0.5]];portConstraint=eastwest;top=0;left=0;right=0;bottom=0;strokeWidth=2;" parent="bemgITp-xIqUBpVqshJo-551" vertex="1">
          <mxGeometry y="199" width="262" height="36" as="geometry" />
        </mxCell>
        <mxCell id="bemgITp-xIqUBpVqshJo-568" value="&lt;b&gt;&lt;font style=&quot;font-size: 20px;&quot;&gt;Fk&lt;/font&gt;&lt;/b&gt;" style="shape=partialRectangle;connectable=0;fillColor=none;top=0;left=0;bottom=0;right=0;editable=1;overflow=hidden;whiteSpace=wrap;html=1;strokeWidth=2;" parent="bemgITp-xIqUBpVqshJo-567" vertex="1">
          <mxGeometry width="41.4334716796875" height="36" as="geometry">
            <mxRectangle width="41.4334716796875" height="36" as="alternateBounds" />
          </mxGeometry>
        </mxCell>
        <mxCell id="bemgITp-xIqUBpVqshJo-569" value="&lt;b style=&quot;text-align: center;&quot;&gt;&lt;font style=&quot;font-size: 20px;&quot;&gt;CourseID&lt;/font&gt;&lt;/b&gt;" style="shape=partialRectangle;connectable=0;fillColor=none;top=0;left=0;bottom=0;right=0;align=left;spacingLeft=6;overflow=hidden;whiteSpace=wrap;html=1;strokeWidth=2;" parent="bemgITp-xIqUBpVqshJo-567" vertex="1">
          <mxGeometry x="41.4334716796875" width="220.5665283203125" height="36" as="geometry">
            <mxRectangle width="220.5665283203125" height="36" as="alternateBounds" />
          </mxGeometry>
        </mxCell>
        <mxCell id="bemgITp-xIqUBpVqshJo-582" style="edgeStyle=orthogonalEdgeStyle;rounded=0;orthogonalLoop=1;jettySize=auto;html=1;entryX=1;entryY=0.5;entryDx=0;entryDy=0;exitX=0;exitY=0.5;exitDx=0;exitDy=0;strokeWidth=2;" parent="1" source="bemgITp-xIqUBpVqshJo-514" target="bemgITp-xIqUBpVqshJo-5" edge="1">
          <mxGeometry relative="1" as="geometry">
            <Array as="points">
              <mxPoint x="8702" y="3133" />
              <mxPoint x="8702" y="3389" />
            </Array>
          </mxGeometry>
        </mxCell>
        <mxCell id="bemgITp-xIqUBpVqshJo-583" style="edgeStyle=orthogonalEdgeStyle;rounded=0;orthogonalLoop=1;jettySize=auto;html=1;entryX=1;entryY=0.5;entryDx=0;entryDy=0;exitX=0;exitY=0.5;exitDx=0;exitDy=0;strokeWidth=2;" parent="1" source="bemgITp-xIqUBpVqshJo-520" edge="1">
          <mxGeometry relative="1" as="geometry">
            <mxPoint x="8974" y="3108.003333333333" as="sourcePoint" />
            <mxPoint x="8672" y="4643.99" as="targetPoint" />
            <Array as="points">
              <mxPoint x="8735" y="3169" />
              <mxPoint x="8735" y="4644" />
            </Array>
          </mxGeometry>
        </mxCell>
        <mxCell id="bemgITp-xIqUBpVqshJo-584" style="edgeStyle=orthogonalEdgeStyle;rounded=0;orthogonalLoop=1;jettySize=auto;html=1;entryX=1;entryY=0.5;entryDx=0;entryDy=0;exitX=0;exitY=0.5;exitDx=0;exitDy=0;strokeWidth=2;" parent="1" source="bemgITp-xIqUBpVqshJo-517" target="bemgITp-xIqUBpVqshJo-262" edge="1">
          <mxGeometry relative="1" as="geometry">
            <Array as="points">
              <mxPoint x="8780" y="3205" />
              <mxPoint x="8780" y="3826" />
            </Array>
          </mxGeometry>
        </mxCell>
        <mxCell id="bemgITp-xIqUBpVqshJo-586" style="edgeStyle=orthogonalEdgeStyle;rounded=0;orthogonalLoop=1;jettySize=auto;html=1;entryX=0;entryY=0.5;entryDx=0;entryDy=0;exitX=0;exitY=0.5;exitDx=0;exitDy=0;strokeWidth=2;" parent="1" source="bemgITp-xIqUBpVqshJo-17" target="bemgITp-xIqUBpVqshJo-249" edge="1">
          <mxGeometry relative="1" as="geometry" />
        </mxCell>
        <mxCell id="bemgITp-xIqUBpVqshJo-587" style="edgeStyle=orthogonalEdgeStyle;rounded=0;orthogonalLoop=1;jettySize=auto;html=1;entryX=1;entryY=0.194;entryDx=0;entryDy=0;entryPerimeter=0;strokeWidth=2;" parent="1" source="bemgITp-xIqUBpVqshJo-20" target="bemgITp-xIqUBpVqshJo-262" edge="1">
          <mxGeometry relative="1" as="geometry" />
        </mxCell>
        <mxCell id="bemgITp-xIqUBpVqshJo-588" style="edgeStyle=orthogonalEdgeStyle;rounded=0;orthogonalLoop=1;jettySize=auto;html=1;entryX=0.003;entryY=0.205;entryDx=0;entryDy=0;exitX=1;exitY=0.5;exitDx=0;exitDy=0;strokeWidth=2;entryPerimeter=0;" parent="1" source="bemgITp-xIqUBpVqshJo-26" target="zIbtgdpSCptLn_aJRIT2-22" edge="1">
          <mxGeometry relative="1" as="geometry">
            <Array as="points">
              <mxPoint x="8897" y="3581" />
              <mxPoint x="8897" y="3650" />
              <mxPoint x="9471" y="3650" />
              <mxPoint x="9471" y="3794" />
            </Array>
          </mxGeometry>
        </mxCell>
        <mxCell id="bemgITp-xIqUBpVqshJo-589" style="edgeStyle=orthogonalEdgeStyle;rounded=0;orthogonalLoop=1;jettySize=auto;html=1;entryX=1.002;entryY=0.182;entryDx=0;entryDy=0;entryPerimeter=0;strokeWidth=2;" parent="1" source="bemgITp-xIqUBpVqshJo-534" target="bemgITp-xIqUBpVqshJo-58" edge="1">
          <mxGeometry relative="1" as="geometry" />
        </mxCell>
        <mxCell id="bemgITp-xIqUBpVqshJo-590" style="edgeStyle=orthogonalEdgeStyle;rounded=0;orthogonalLoop=1;jettySize=auto;html=1;entryX=1;entryY=0.5;entryDx=0;entryDy=0;strokeWidth=2;" parent="1" source="bemgITp-xIqUBpVqshJo-537" target="bemgITp-xIqUBpVqshJo-103" edge="1">
          <mxGeometry relative="1" as="geometry" />
        </mxCell>
        <mxCell id="bemgITp-xIqUBpVqshJo-591" style="edgeStyle=orthogonalEdgeStyle;rounded=0;orthogonalLoop=1;jettySize=auto;html=1;entryX=1.001;entryY=0.733;entryDx=0;entryDy=0;exitX=0;exitY=0.5;exitDx=0;exitDy=0;entryPerimeter=0;strokeWidth=2;" parent="1" source="bemgITp-xIqUBpVqshJo-413" target="bemgITp-xIqUBpVqshJo-484" edge="1">
          <mxGeometry relative="1" as="geometry">
            <Array as="points">
              <mxPoint x="9026" y="3434" />
              <mxPoint x="9026" y="3277" />
              <mxPoint x="9280" y="3277" />
              <mxPoint x="9280" y="2804" />
            </Array>
          </mxGeometry>
        </mxCell>
        <mxCell id="bemgITp-xIqUBpVqshJo-592" style="edgeStyle=orthogonalEdgeStyle;rounded=0;orthogonalLoop=1;jettySize=auto;html=1;entryX=0;entryY=0.5;entryDx=0;entryDy=0;strokeWidth=2;exitX=0;exitY=0.5;exitDx=0;exitDy=0;" parent="1" source="bemgITp-xIqUBpVqshJo-186" target="zIbtgdpSCptLn_aJRIT2-56" edge="1">
          <mxGeometry relative="1" as="geometry">
            <Array as="points">
              <mxPoint x="9473" y="3362" />
              <mxPoint x="9473" y="3487" />
            </Array>
          </mxGeometry>
        </mxCell>
        <mxCell id="bemgITp-xIqUBpVqshJo-593" style="edgeStyle=orthogonalEdgeStyle;rounded=0;orthogonalLoop=1;jettySize=auto;html=1;entryX=1.004;entryY=0.294;entryDx=0;entryDy=0;entryPerimeter=0;strokeWidth=2;" parent="1" source="bemgITp-xIqUBpVqshJo-464" target="bemgITp-xIqUBpVqshJo-552" edge="1">
          <mxGeometry relative="1" as="geometry">
            <Array as="points">
              <mxPoint x="9467" y="4463" />
              <mxPoint x="9467" y="4597" />
            </Array>
          </mxGeometry>
        </mxCell>
        <mxCell id="bemgITp-xIqUBpVqshJo-595" style="edgeStyle=orthogonalEdgeStyle;rounded=0;orthogonalLoop=1;jettySize=auto;html=1;entryX=1.004;entryY=0.835;entryDx=0;entryDy=0;entryPerimeter=0;exitX=0;exitY=0.5;exitDx=0;exitDy=0;strokeWidth=2;" parent="1" source="bemgITp-xIqUBpVqshJo-344" target="bemgITp-xIqUBpVqshJo-58" edge="1">
          <mxGeometry relative="1" as="geometry">
            <Array as="points">
              <mxPoint x="9280" y="4816" />
              <mxPoint x="9280" y="4105" />
            </Array>
          </mxGeometry>
        </mxCell>
        <mxCell id="bemgITp-xIqUBpVqshJo-596" style="edgeStyle=orthogonalEdgeStyle;rounded=0;orthogonalLoop=1;jettySize=auto;html=1;entryX=1;entryY=0.5;entryDx=0;entryDy=0;exitX=0;exitY=0.5;exitDx=0;exitDy=0;strokeWidth=2;" parent="1" source="bemgITp-xIqUBpVqshJo-347" target="bemgITp-xIqUBpVqshJo-484" edge="1">
          <mxGeometry relative="1" as="geometry">
            <Array as="points">
              <mxPoint x="9343" y="4846" />
              <mxPoint x="9343" y="2796" />
            </Array>
          </mxGeometry>
        </mxCell>
        <mxCell id="bemgITp-xIqUBpVqshJo-597" style="edgeStyle=orthogonalEdgeStyle;rounded=0;orthogonalLoop=1;jettySize=auto;html=1;entryX=1;entryY=0.5;entryDx=0;entryDy=0;strokeWidth=2;" parent="1" source="bemgITp-xIqUBpVqshJo-416" target="bemgITp-xIqUBpVqshJo-58" edge="1">
          <mxGeometry relative="1" as="geometry">
            <Array as="points">
              <mxPoint x="9041" y="3464" />
              <mxPoint x="9041" y="3722" />
              <mxPoint x="9204" y="3722" />
              <mxPoint x="9204" y="4093" />
            </Array>
          </mxGeometry>
        </mxCell>
        <mxCell id="bemgITp-xIqUBpVqshJo-599" style="edgeStyle=orthogonalEdgeStyle;rounded=0;orthogonalLoop=1;jettySize=auto;html=1;entryX=0;entryY=0.5;entryDx=0;entryDy=0;strokeWidth=2;" parent="1" source="bemgITp-xIqUBpVqshJo-79" target="bemgITp-xIqUBpVqshJo-262" edge="1">
          <mxGeometry relative="1" as="geometry">
            <Array as="points">
              <mxPoint x="7934" y="4357" />
              <mxPoint x="7934" y="3825" />
            </Array>
          </mxGeometry>
        </mxCell>
        <mxCell id="bemgITp-xIqUBpVqshJo-600" style="edgeStyle=orthogonalEdgeStyle;rounded=0;orthogonalLoop=1;jettySize=auto;html=1;entryX=0.006;entryY=0.784;entryDx=0;entryDy=0;entryPerimeter=0;exitX=0;exitY=0.5;exitDx=0;exitDy=0;strokeWidth=2;" parent="1" source="bemgITp-xIqUBpVqshJo-73" target="zIbtgdpSCptLn_aJRIT2-22" edge="1">
          <mxGeometry relative="1" as="geometry">
            <Array as="points">
              <mxPoint x="8902" y="4451" />
              <mxPoint x="9456" y="4451" />
              <mxPoint x="9456" y="3815" />
            </Array>
          </mxGeometry>
        </mxCell>
        <mxCell id="bemgITp-xIqUBpVqshJo-601" style="edgeStyle=orthogonalEdgeStyle;rounded=0;orthogonalLoop=1;jettySize=auto;html=1;entryX=1.001;entryY=0.737;entryDx=0;entryDy=0;entryPerimeter=0;strokeWidth=2;" parent="1" source="bemgITp-xIqUBpVqshJo-567" target="bemgITp-xIqUBpVqshJo-103" edge="1">
          <mxGeometry relative="1" as="geometry" />
        </mxCell>
        <mxCell id="bemgITp-xIqUBpVqshJo-602" style="edgeStyle=orthogonalEdgeStyle;rounded=0;orthogonalLoop=1;jettySize=auto;html=1;entryX=0;entryY=0.5;entryDx=0;entryDy=0;exitX=1;exitY=0.5;exitDx=0;exitDy=0;strokeWidth=2;" parent="1" source="bemgITp-xIqUBpVqshJo-441" target="bemgITp-xIqUBpVqshJo-552" edge="1">
          <mxGeometry relative="1" as="geometry">
            <Array as="points">
              <mxPoint x="8689" y="4483" />
              <mxPoint x="8842" y="4483" />
              <mxPoint x="8842" y="4605" />
            </Array>
          </mxGeometry>
        </mxCell>
        <mxCell id="bemgITp-xIqUBpVqshJo-603" style="edgeStyle=orthogonalEdgeStyle;rounded=0;orthogonalLoop=1;jettySize=auto;html=1;exitX=0;exitY=0.5;exitDx=0;exitDy=0;strokeWidth=2;entryX=0;entryY=0.5;entryDx=0;entryDy=0;" parent="1" source="bemgITp-xIqUBpVqshJo-26" target="zIbtgdpSCptLn_aJRIT2-22" edge="1">
          <mxGeometry relative="1" as="geometry">
            <Array as="points">
              <mxPoint x="8339" y="3581" />
              <mxPoint x="8339" y="3957" />
              <mxPoint x="9435" y="3957" />
              <mxPoint x="9435" y="3804" />
            </Array>
            <mxPoint x="9473" y="3805" as="targetPoint" />
          </mxGeometry>
        </mxCell>
        <mxCell id="bemgITp-xIqUBpVqshJo-604" style="edgeStyle=orthogonalEdgeStyle;rounded=0;orthogonalLoop=1;jettySize=auto;html=1;entryX=1;entryY=0.5;entryDx=0;entryDy=0;strokeWidth=2;" parent="1" source="bemgITp-xIqUBpVqshJo-221" target="bemgITp-xIqUBpVqshJo-249" edge="1">
          <mxGeometry relative="1" as="geometry">
            <Array as="points">
              <mxPoint x="8689" y="4325" />
              <mxPoint x="8689" y="3692" />
            </Array>
          </mxGeometry>
        </mxCell>
        <mxCell id="bemgITp-xIqUBpVqshJo-605" style="edgeStyle=orthogonalEdgeStyle;rounded=0;orthogonalLoop=1;jettySize=auto;html=1;entryX=0;entryY=0.5;entryDx=0;entryDy=0;strokeWidth=2;" parent="1" source="bemgITp-xIqUBpVqshJo-144" target="bemgITp-xIqUBpVqshJo-5" edge="1">
          <mxGeometry relative="1" as="geometry">
            <Array as="points">
              <mxPoint x="8298" y="4885" />
              <mxPoint x="8298" y="3389" />
            </Array>
          </mxGeometry>
        </mxCell>
        <mxCell id="bemgITp-xIqUBpVqshJo-606" style="edgeStyle=orthogonalEdgeStyle;rounded=0;orthogonalLoop=1;jettySize=auto;html=1;entryX=-0.001;entryY=0.827;entryDx=0;entryDy=0;entryPerimeter=0;strokeWidth=2;" parent="1" source="bemgITp-xIqUBpVqshJo-121" target="bemgITp-xIqUBpVqshJo-212" edge="1">
          <mxGeometry relative="1" as="geometry">
            <Array as="points">
              <mxPoint x="8334" y="4921" />
              <mxPoint x="8334" y="4232" />
              <mxPoint x="8383" y="4232" />
            </Array>
          </mxGeometry>
        </mxCell>
        <mxCell id="bemgITp-xIqUBpVqshJo-607" style="edgeStyle=orthogonalEdgeStyle;rounded=0;orthogonalLoop=1;jettySize=auto;html=1;entryX=1;entryY=0.5;entryDx=0;entryDy=0;strokeWidth=2;exitX=0;exitY=0.5;exitDx=0;exitDy=0;" parent="1" source="bemgITp-xIqUBpVqshJo-454" target="bemgITp-xIqUBpVqshJo-552" edge="1">
          <mxGeometry relative="1" as="geometry">
            <mxPoint x="9136" y="4864" as="targetPoint" />
            <Array as="points">
              <mxPoint x="9379" y="3043" />
              <mxPoint x="9379" y="4605" />
              <mxPoint x="9162" y="4605" />
            </Array>
          </mxGeometry>
        </mxCell>
        <mxCell id="bemgITp-xIqUBpVqshJo-608" style="edgeStyle=orthogonalEdgeStyle;rounded=0;orthogonalLoop=1;jettySize=auto;html=1;entryX=1;entryY=0.5;entryDx=0;entryDy=0;exitX=0;exitY=0.5;exitDx=0;exitDy=0;strokeWidth=2;" parent="1" source="bemgITp-xIqUBpVqshJo-1" target="zIbtgdpSCptLn_aJRIT2-22" edge="1">
          <mxGeometry relative="1" as="geometry" />
        </mxCell>
        <mxCell id="bemgITp-xIqUBpVqshJo-609" style="edgeStyle=orthogonalEdgeStyle;rounded=0;orthogonalLoop=1;jettySize=auto;html=1;exitX=0;exitY=0.5;exitDx=0;exitDy=0;entryX=0;entryY=0.5;entryDx=0;entryDy=0;strokeWidth=2;" parent="1" source="bemgITp-xIqUBpVqshJo-268" target="bemgITp-xIqUBpVqshJo-190" edge="1">
          <mxGeometry relative="1" as="geometry" />
        </mxCell>
        <mxCell id="bemgITp-xIqUBpVqshJo-610" style="edgeStyle=orthogonalEdgeStyle;rounded=0;orthogonalLoop=1;jettySize=auto;html=1;entryX=0.001;entryY=0.381;entryDx=0;entryDy=0;entryPerimeter=0;strokeWidth=2;" parent="1" source="bemgITp-xIqUBpVqshJo-271" target="bemgITp-xIqUBpVqshJo-212" edge="1">
          <mxGeometry relative="1" as="geometry">
            <Array as="points">
              <mxPoint x="8257" y="3919" />
              <mxPoint x="8257" y="4215" />
            </Array>
          </mxGeometry>
        </mxCell>
        <mxCell id="bemgITp-xIqUBpVqshJo-611" style="edgeStyle=orthogonalEdgeStyle;rounded=0;orthogonalLoop=1;jettySize=auto;html=1;entryX=0;entryY=0.5;entryDx=0;entryDy=0;exitX=1;exitY=0.5;exitDx=0;exitDy=0;strokeWidth=2;" parent="1" source="bemgITp-xIqUBpVqshJo-265" target="bemgITp-xIqUBpVqshJo-171" edge="1">
          <mxGeometry relative="1" as="geometry">
            <Array as="points">
              <mxPoint x="8254" y="3859" />
              <mxPoint x="8254" y="3914" />
              <mxPoint x="9414" y="3914" />
              <mxPoint x="9414" y="3198" />
            </Array>
          </mxGeometry>
        </mxCell>
        <mxCell id="bemgITp-xIqUBpVqshJo-612" style="edgeStyle=orthogonalEdgeStyle;rounded=0;orthogonalLoop=1;jettySize=auto;html=1;entryX=1.004;entryY=0.778;entryDx=0;entryDy=0;entryPerimeter=0;strokeWidth=2;exitX=0;exitY=0.5;exitDx=0;exitDy=0;" parent="1" source="bemgITp-xIqUBpVqshJo-350" target="bemgITp-xIqUBpVqshJo-552" edge="1">
          <mxGeometry relative="1" as="geometry">
            <Array as="points">
              <mxPoint x="9495" y="4880" />
              <mxPoint x="9315" y="4880" />
              <mxPoint x="9315" y="4615" />
            </Array>
          </mxGeometry>
        </mxCell>
        <mxCell id="lLngnLC-COLM46ZkY5_o-3" value="" style="rounded=0;whiteSpace=wrap;html=1;strokeColor=#FFFFFF;" vertex="1" parent="1">
          <mxGeometry x="8928" y="5015" width="120" height="60" as="geometry" />
        </mxCell>
      </root>
    </mxGraphModel>
  </diagram>
</mxfile>
